<?xml version="1.0" encoding="utf-8"?>
<!-- Generator: Adobe Illustrator 24.0.0, SVG Export Plug-In . SVG Version: 6.00 Build 0)  -->
<svg version="1.1" id="Layer_1" xmlns="http://www.w3.org/2000/svg" xmlns:xlink="http://www.w3.org/1999/xlink" x="0px" y="0px"
	 viewBox="0 0 549 148.5" style="enable-background:new 0 0 549 148.5;" xml:space="preserve">
<style type="text/css">
	.st0{display:none;enable-background:new    ;}
	.st1{display:inline;fill:#0071BC;}
	.st2{fill:url(#SVGID_1_);}
	.st3{fill:url(#SVGID_2_);}
	.st4{fill:url(#SVGID_3_);}
	.st5{fill:url(#SVGID_4_);}
	.st6{fill:url(#SVGID_5_);}
	.st7{fill:url(#SVGID_6_);}
	.st8{fill:url(#SVGID_7_);}
	.st9{fill:url(#SVGID_8_);}
	.st10{fill:url(#SVGID_9_);}
	.st11{fill:url(#SVGID_10_);}
	.st12{fill:url(#SVGID_11_);}
	.st13{fill:url(#SVGID_12_);}
	.st14{fill:url(#SVGID_13_);}
</style>
<title>Header</title>
<g class="st0">
	<path class="st1" d="M63.5,116v9.7c0,0.9,0.1,1.7,0.3,2.3s0.5,1.2,0.9,1.6s0.9,0.7,1.5,0.9s1.2,0.3,1.9,0.3c0.7,0,1.4-0.1,2-0.3
		s1.1-0.5,1.5-0.9s0.7-0.9,0.9-1.6c0.2-0.6,0.3-1.4,0.3-2.3V116h1.5v10c0,0.8-0.1,1.6-0.3,2.3c-0.2,0.7-0.6,1.4-1.1,1.9
		s-1.1,1-1.9,1.3s-1.7,0.5-2.8,0.5c-1.1,0-2-0.2-2.8-0.5s-1.4-0.7-1.9-1.3c-0.5-0.5-0.9-1.2-1.1-1.9c-0.2-0.7-0.3-1.5-0.3-2.3v-10
		H63.5z"/>
	<path class="st1" d="M84.3,128.5c0.3,0.5,0.6,1,1.1,1.3s1,0.6,1.6,0.7c0.6,0.1,1.3,0.2,2,0.2c0.4,0,0.9-0.1,1.3-0.2
		c0.5-0.1,0.9-0.3,1.4-0.6s0.8-0.6,1-1s0.4-0.9,0.4-1.5c0-0.4-0.1-0.8-0.3-1.1c-0.2-0.3-0.5-0.6-0.8-0.8c-0.3-0.2-0.7-0.4-1-0.5
		s-0.8-0.3-1.1-0.3l-3.5-0.9c-0.5-0.1-0.9-0.3-1.3-0.4c-0.4-0.2-0.8-0.4-1.1-0.7c-0.3-0.3-0.6-0.7-0.8-1.1c-0.2-0.4-0.3-0.9-0.3-1.6
		c0-0.4,0.1-0.8,0.2-1.3s0.4-1,0.8-1.5s1-0.8,1.7-1.2c0.7-0.3,1.6-0.5,2.7-0.5c0.8,0,1.5,0.1,2.2,0.3c0.7,0.2,1.3,0.5,1.8,0.9
		s0.9,0.9,1.3,1.5c0.3,0.6,0.5,1.3,0.5,2.1h-1.5c0-0.6-0.2-1.1-0.4-1.6c-0.2-0.4-0.6-0.8-0.9-1.1s-0.8-0.5-1.3-0.7s-1-0.2-1.6-0.2
		c-0.5,0-1,0.1-1.5,0.2s-0.9,0.3-1.3,0.5s-0.6,0.6-0.9,1c-0.2,0.4-0.3,0.9-0.3,1.5c0,0.4,0.1,0.7,0.2,1s0.3,0.5,0.5,0.7
		s0.5,0.3,0.8,0.5c0.3,0.1,0.6,0.2,0.9,0.3l3.8,0.9c0.6,0.1,1.1,0.3,1.6,0.5s0.9,0.5,1.3,0.8s0.7,0.7,0.9,1.2c0.2,0.5,0.3,1,0.3,1.6
		c0,0.2,0,0.4-0.1,0.7c0,0.3-0.1,0.6-0.3,0.9c-0.1,0.3-0.3,0.7-0.6,1c-0.3,0.3-0.6,0.6-1.1,0.9c-0.4,0.3-1,0.5-1.7,0.7
		s-1.5,0.3-2.4,0.3s-1.8-0.1-2.6-0.3c-0.8-0.2-1.5-0.5-2-1c-0.6-0.4-1-1-1.3-1.7s-0.4-1.5-0.4-2.5h1.5C83.9,127.3,84,128,84.3,128.5
		z"/>
	<path class="st1" d="M113.9,116v1.3h-9.4v5.7h8.8v1.3h-8.8v6.2h9.5v1.3h-11V116H113.9z"/>
	<path class="st1" d="M129.3,116c0.6,0,1.3,0.1,1.8,0.2c0.6,0.2,1.1,0.4,1.5,0.7c0.4,0.3,0.8,0.8,1,1.3c0.3,0.5,0.4,1.1,0.4,1.8
		c0,1-0.3,1.9-0.8,2.6s-1.3,1.2-2.3,1.4l0,0c0.5,0.1,0.9,0.2,1.3,0.4s0.6,0.5,0.8,0.8s0.4,0.7,0.5,1.1s0.2,0.8,0.2,1.3
		c0,0.3,0,0.6,0,1s0,0.8,0.1,1.2c0,0.4,0.1,0.8,0.2,1.1c0.1,0.3,0.2,0.6,0.4,0.8h-1.7c-0.1-0.1-0.2-0.3-0.2-0.5
		c-0.1-0.2-0.1-0.4-0.1-0.7c0-0.2,0-0.5-0.1-0.7s0-0.4,0-0.6c0-0.6-0.1-1.1-0.1-1.7c-0.1-0.6-0.2-1-0.4-1.5s-0.5-0.8-0.9-1
		s-1-0.4-1.7-0.4h-5.7v7H122V116H129.3z M129.2,123.4c0.5,0,0.9-0.1,1.3-0.2s0.8-0.3,1.1-0.6c0.3-0.3,0.6-0.6,0.7-1
		c0.2-0.4,0.3-0.8,0.3-1.3c0-1-0.3-1.7-0.8-2.3c-0.6-0.6-1.4-0.8-2.6-0.8h-5.6v6.2C123.6,123.4,129.2,123.4,129.2,123.4z"/>
	<path class="st1" d="M165.7,116v1.3h-9.4v5.7h8.8v1.3h-8.8v6.2h9.5v1.3h-11V116H165.7z"/>
	<path class="st1" d="M174.1,116l4.4,6.6l4.6-6.6h1.7l-5.4,7.7l5.7,8.1h-1.8l-4.8-6.9l-4.8,6.9H172l5.6-8.1l-5.3-7.6h1.8V116z"/>
	<path class="st1" d="M199.5,116c0.7,0,1.3,0.1,1.9,0.3c0.6,0.2,1.1,0.5,1.5,0.9s0.7,0.9,0.9,1.4c0.2,0.6,0.3,1.2,0.3,1.9
		s-0.1,1.3-0.3,1.9s-0.5,1-0.9,1.4s-0.9,0.7-1.5,0.9c-0.6,0.2-1.2,0.3-1.9,0.3H194v6.7h-1.5V116H199.5z M199.1,123.7
		c1,0,1.9-0.3,2.5-0.8s1-1.3,1-2.4s-0.3-1.9-1-2.4c-0.6-0.5-1.5-0.8-2.5-0.8H194v6.4C194,123.7,199.1,123.7,199.1,123.7z"/>
	<path class="st1" d="M223.2,116v1.3h-9.4v5.7h8.8v1.3h-8.8v6.2h9.5v1.3h-11V116H223.2z"/>
	<path class="st1" d="M238.5,116c0.6,0,1.3,0.1,1.8,0.2c0.6,0.2,1.1,0.4,1.5,0.7c0.4,0.3,0.8,0.8,1,1.3c0.3,0.5,0.4,1.1,0.4,1.8
		c0,1-0.3,1.9-0.8,2.6s-1.3,1.2-2.3,1.4l0,0c0.5,0.1,0.9,0.2,1.3,0.4s0.6,0.5,0.8,0.8s0.4,0.7,0.5,1.1s0.2,0.8,0.2,1.3
		c0,0.3,0,0.6,0,1s0,0.8,0.1,1.2c0,0.4,0.1,0.8,0.2,1.1c0.1,0.3,0.2,0.6,0.4,0.8h-1.7c-0.1-0.1-0.2-0.3-0.2-0.5
		c-0.1-0.2-0.1-0.4-0.1-0.7c0-0.2,0-0.5-0.1-0.7s0-0.4,0-0.6c0-0.6-0.1-1.1-0.1-1.7c-0.1-0.6-0.2-1-0.4-1.5s-0.5-0.8-0.9-1
		s-1-0.4-1.7-0.4h-5.7v7h-1.5V116H238.5z M238.4,123.4c0.5,0,0.9-0.1,1.3-0.2s0.8-0.3,1.1-0.6c0.3-0.3,0.6-0.6,0.7-1
		c0.2-0.4,0.3-0.8,0.3-1.3c0-1-0.3-1.7-0.8-2.3c-0.6-0.6-1.4-0.8-2.6-0.8h-5.6v6.2C232.8,123.4,238.4,123.4,238.4,123.4z"/>
	<path class="st1" d="M253.6,116v15.7h-1.5V116H253.6z"/>
	<path class="st1" d="M273.7,116v1.3h-9.4v5.7h8.8v1.3h-8.8v6.2h9.5v1.3h-11V116H273.7z"/>
	<path class="st1" d="M283.6,116l9.2,13.3l0,0V116h1.5v15.7h-1.7l-9.2-13.3l0,0v13.3h-1.5V116H283.6z"/>
	<path class="st1" d="M314.2,119.1c-0.3-0.5-0.7-0.9-1.1-1.2c-0.4-0.3-0.9-0.6-1.4-0.7c-0.5-0.2-1.1-0.3-1.6-0.3
		c-1,0-1.9,0.2-2.7,0.6c-0.7,0.4-1.4,0.9-1.8,1.6s-0.8,1.4-1.1,2.2s-0.3,1.7-0.3,2.5c0,0.9,0.1,1.7,0.3,2.5c0.2,0.8,0.6,1.6,1.1,2.2
		c0.5,0.7,1.1,1.2,1.8,1.6c0.7,0.4,1.6,0.6,2.7,0.6c0.7,0,1.4-0.1,2-0.4c0.6-0.3,1.1-0.6,1.5-1.1s0.8-1,1-1.6s0.4-1.3,0.5-2h1.5
		c-0.1,1-0.3,1.8-0.7,2.6c-0.4,0.8-0.8,1.4-1.4,2s-1.2,1-2,1.3s-1.6,0.4-2.5,0.4c-1.2,0-2.3-0.2-3.2-0.7s-1.7-1-2.3-1.8
		c-0.6-0.7-1.1-1.6-1.4-2.6s-0.5-2-0.5-3.1s0.2-2.1,0.5-3.1s0.8-1.9,1.4-2.6c0.6-0.8,1.4-1.4,2.3-1.8s2-0.7,3.2-0.7
		c0.7,0,1.5,0.1,2.2,0.3c0.7,0.2,1.4,0.5,1.9,1s1.1,1,1.5,1.6s0.6,1.4,0.7,2.2h-1.5C314.7,120.1,314.5,119.6,314.2,119.1z"/>
	<path class="st1" d="M335.7,116v1.3h-9.4v5.7h8.8v1.3h-8.8v6.2h9.5v1.3h-11V116H335.7z"/>
	<path class="st1" d="M361.4,116c2.4,0.1,4.2,0.7,5.4,2c1.2,1.3,1.8,3.2,1.8,5.8c0,2.6-0.6,4.6-1.8,5.8s-3,2-5.4,2H356V116H361.4z
		 M360.7,130.4c1.1,0,2.1-0.1,2.9-0.4c0.8-0.2,1.5-0.6,2-1.2s0.9-1.2,1.2-2c0.2-0.8,0.4-1.8,0.4-3s-0.1-2.2-0.4-3
		c-0.2-0.8-0.6-1.5-1.2-2s-1.2-0.9-2-1.2c-0.8-0.2-1.8-0.4-2.9-0.4h-3.2v13.2L360.7,130.4L360.7,130.4z"/>
	<path class="st1" d="M387.9,116v1.3h-9.4v5.7h8.8v1.3h-8.8v6.2h9.5v1.3h-11V116H387.9z"/>
	<path class="st1" d="M397.1,128.5c0.3,0.5,0.6,1,1.1,1.3s1,0.6,1.6,0.7c0.6,0.1,1.3,0.2,2,0.2c0.4,0,0.9-0.1,1.3-0.2
		s0.9-0.3,1.4-0.6s0.8-0.6,1-1c0.3-0.4,0.4-0.9,0.4-1.5c0-0.4-0.1-0.8-0.3-1.1c-0.2-0.3-0.5-0.6-0.8-0.8c-0.3-0.2-0.7-0.4-1-0.5
		c-0.4-0.1-0.8-0.3-1.1-0.3l-3.5-0.9c-0.5-0.1-0.9-0.3-1.3-0.4c-0.4-0.2-0.8-0.4-1.1-0.7c-0.3-0.3-0.6-0.7-0.8-1.1
		c-0.2-0.4-0.3-0.9-0.3-1.6c0-0.4,0.1-0.8,0.2-1.3s0.4-1,0.8-1.5s1-0.8,1.7-1.2c0.7-0.3,1.6-0.5,2.7-0.5c0.8,0,1.5,0.1,2.2,0.3
		c0.7,0.2,1.3,0.5,1.8,0.9s1,0.9,1.3,1.5s0.5,1.3,0.5,2.1h-1.5c0-0.6-0.2-1.1-0.4-1.6c-0.2-0.4-0.6-0.8-0.9-1.1s-0.8-0.5-1.3-0.7
		s-1-0.2-1.6-0.2c-0.5,0-1,0.1-1.5,0.2s-0.9,0.3-1.3,0.5s-0.6,0.6-0.9,1c-0.2,0.4-0.3,0.9-0.3,1.5c0,0.4,0.1,0.7,0.2,1
		s0.3,0.5,0.5,0.7s0.5,0.3,0.8,0.5c0.3,0.1,0.6,0.2,0.9,0.3l3.8,0.9c0.6,0.1,1.1,0.3,1.6,0.5s0.9,0.5,1.3,0.8s0.7,0.7,0.9,1.2
		c0.2,0.5,0.3,1,0.3,1.6c0,0.2,0,0.4-0.1,0.7c0,0.3-0.1,0.6-0.3,0.9c-0.1,0.3-0.3,0.7-0.6,1c-0.3,0.3-0.6,0.6-1.1,0.9
		c-0.4,0.3-1,0.5-1.7,0.7s-1.5,0.3-2.4,0.3s-1.8-0.1-2.6-0.3c-0.8-0.2-1.5-0.5-2-1c-0.6-0.4-1-1-1.3-1.7s-0.4-1.5-0.4-2.5h1.5
		C396.8,127.3,396.9,128,397.1,128.5z"/>
	<path class="st1" d="M417.5,116v15.7H416V116H417.5z"/>
	<path class="st1" d="M439.1,131.7l-0.2-2.9l0,0c-0.3,0.6-0.6,1-1,1.4s-0.8,0.7-1.3,1s-1,0.4-1.5,0.6s-1.1,0.2-1.7,0.2
		c-1.2,0-2.3-0.2-3.2-0.7s-1.7-1-2.3-1.8c-0.6-0.7-1.1-1.6-1.4-2.6s-0.5-2-0.5-3.1s0.2-2.1,0.5-3.1s0.8-1.9,1.4-2.6
		c0.6-0.8,1.4-1.4,2.3-1.8s2-0.7,3.2-0.7c0.8,0,1.6,0.1,2.3,0.3s1.4,0.5,2,1c0.6,0.4,1.1,1,1.5,1.6s0.7,1.4,0.8,2.3h-1.5
		c0-0.5-0.2-0.9-0.5-1.4s-0.6-0.9-1-1.3s-1-0.7-1.6-0.9c-0.6-0.2-1.3-0.4-2-0.4c-1,0-1.9,0.2-2.7,0.6c-0.7,0.4-1.4,0.9-1.8,1.6
		s-0.8,1.4-1.1,2.2s-0.3,1.7-0.3,2.5c0,0.9,0.1,1.7,0.3,2.5c0.2,0.8,0.6,1.6,1.1,2.2c0.5,0.7,1.1,1.2,1.8,1.6
		c0.7,0.4,1.6,0.6,2.7,0.6c0.9,0,1.6-0.1,2.3-0.4s1.3-0.7,1.7-1.2c0.5-0.5,0.8-1.1,1.1-1.8c0.2-0.7,0.3-1.5,0.3-2.3h-5.3v-1.3h6.7v8
		L439.1,131.7L439.1,131.7z"/>
	<path class="st1" d="M450.7,116l9.2,13.3l0,0V116h1.5v15.7h-1.7l-9.2-13.3l0,0v13.3H449V116H450.7z"/>
	<path class="st1" d="M481.4,116v1.3H472v5.7h8.8v1.3H472v6.2h9.5v1.3h-11V116H481.4z"/>
	<path class="st1" d="M496.8,116c0.6,0,1.3,0.1,1.8,0.2c0.6,0.2,1.1,0.4,1.5,0.7c0.4,0.3,0.8,0.8,1,1.3c0.3,0.5,0.4,1.1,0.4,1.8
		c0,1-0.3,1.9-0.8,2.6s-1.3,1.2-2.3,1.4l0,0c0.5,0.1,0.9,0.2,1.3,0.4c0.3,0.2,0.6,0.5,0.8,0.8c0.2,0.3,0.4,0.7,0.5,1.1
		s0.2,0.8,0.2,1.3c0,0.3,0,0.6,0,1s0,0.8,0.1,1.2c0,0.4,0.1,0.8,0.2,1.1s0.2,0.6,0.4,0.8h-1.7c-0.1-0.1-0.2-0.3-0.2-0.5
		c-0.1-0.2-0.1-0.4-0.1-0.7c0-0.2,0-0.5-0.1-0.7s0-0.4,0-0.6c0-0.6-0.1-1.1-0.1-1.7c-0.1-0.6-0.2-1-0.4-1.5c-0.2-0.4-0.5-0.8-0.9-1
		s-1-0.4-1.7-0.4H491v7h-1.5V116H496.8z M496.6,123.4c0.5,0,0.9-0.1,1.3-0.2s0.8-0.3,1.1-0.6c0.3-0.3,0.6-0.6,0.7-1
		c0.2-0.4,0.3-0.8,0.3-1.3c0-1-0.3-1.7-0.8-2.3s-1.4-0.8-2.6-0.8H491v6.2C491,123.4,496.6,123.4,496.6,123.4z"/>
</g>
<g>
	<g>
		
			<linearGradient id="SVGID_1_" gradientUnits="userSpaceOnUse" x1="11.7014" y1="526.2488" x2="302.2825" y2="816.8233" gradientTransform="matrix(1 0 0 1 0 -490)">
			<stop  offset="0" style="stop-color:#F7931E"/>
			<stop  offset="6.000000e-02" style="stop-color:#F68A1F"/>
			<stop  offset="0.17" style="stop-color:#F37022"/>
			<stop  offset="0.25" style="stop-color:#F15A24"/>
			<stop  offset="0.5" style="stop-color:#D4145A"/>
			<stop  offset="0.76" style="stop-color:#93278F"/>
			<stop  offset="1" style="stop-color:#005B97"/>
		</linearGradient>
		<path class="st2" d="M37.6,23c4-0.1,7.5,0.1,10.5,0.8c3,0.7,5.6,1.6,7.8,2.8s4,2.6,5.5,4.2c1.5,1.6,2.6,3.3,3.5,5.1
			c0.9,1.8,1.6,3.6,2,5.3c0.5,1.8,0.8,3.4,0.9,4.9c0.2,1.5,0.3,2.8,0.3,4c0,1.1,0,1.9,0,2.3c0,3.6-0.5,6.7-1.6,9.5s-2.5,5.3-4.3,7.4
			c-1.8,2.1-3.8,3.9-6.2,5.4c-2.3,1.5-4.7,2.8-7.2,3.8s-5,1.8-7.5,2.4s-4.8,1-6.9,1.2c0,2.6,0,5,0,7.3s0,4.3-0.1,6.1
			c0,1.8-0.1,3.2-0.1,4.4c-0.1,1.1-0.2,1.8-0.3,2.1c-0.4,0.9-1.2,1.5-2.4,1.9c-1.2,0.4-2.4,0.6-3.7,0.6c-1.4,0-2.7-0.3-3.7-0.9
			c-1.1-0.6-1.5-1.4-1.2-2.4c0.5-2.4,1-5.4,1.3-8.8c0.4-3.4,0.7-7.1,0.9-10.9c-2.2-0.5-4.2-1.2-6-2.1c-1.9-0.9-3.5-1.9-4.9-3.1
			c-1.4-1.2-2.5-2.6-3.3-4.1s-1.2-3.1-1.3-4.9c0.1-2.1,0.7-4,1.7-5.8c1.1-1.7,2.4-3.2,4-4.5s3.4-2.4,5.4-3.2c2-0.9,3.9-1.5,5.8-1.9
			c0.2-4.2,0.5-7.9,0.9-11.2c0.3-3.3,0.8-5.8,1.5-7.5c0.4-1,1.1-1.8,2.2-2.2c1.1-0.5,2.1-0.7,3.2-0.7s2,0.2,2.6,0.6
			c0.6,0.4,0.8,1.1,0.3,2c-0.3,0.7-0.5,1.7-0.8,2.9C36.2,37,36,38.4,35.8,40s-0.3,3.4-0.5,5.4c-0.1,2-0.2,4-0.3,6.2
			c2.3,0.3,4.2,0.8,5.8,1.4c1.5,0.7,2.7,1.4,3.6,2.2c0.9,0.8,1.5,1.6,1.8,2.5c0.3,0.8,0.4,1.5,0.4,2.1c-0.1,0.8-0.4,1.4-1,1.8
			c-0.6,0.5-1.2,0.8-1.9,1s-1.3,0.3-1.8,0.3c-0.6,0-0.9-0.2-0.9-0.5c0-0.2,0.1-0.5,0.1-0.8s0-0.6,0-0.8c0-1.4-0.5-2.6-1.4-3.7
			C38.8,56,37.2,55.3,35,55c-0.1,3.7-0.2,7.6-0.2,11.4c0,3.9,0,7.7,0,11.4c3.9-0.5,7.3-1.4,10-2.5s5-2.4,6.8-3.9s3.2-3,4.2-4.7
			c1-1.7,1.8-3.3,2.3-4.8s0.8-2.9,0.9-4.2c0.1-1.2,0.1-2.2,0.1-2.9v-0.7c0.1-4.2-0.2-7.9-0.9-10.9s-1.6-5.6-2.8-7.7s-2.5-3.8-4-5
			c-1.5-1.3-3-2.2-4.6-2.9s-3.1-1.1-4.6-1.3c-1.5-0.2-2.8-0.2-3.8-0.2c-3.5,0.4-6.4,1-8.8,2c-2.4,0.9-4.3,1.9-5.8,3
			s-2.6,2.1-3.4,3.2c-0.8,1.1-1.3,1.9-1.7,2.4c-0.1,0.1-0.2,0.3-0.3,0.4c-0.1,0.1-0.2,0.3-0.3,0.4c-0.1,0.1-0.2,0.2-0.2,0.3H18
			c-0.3,0.1-0.7,0.3-1.1,0.4c-0.5,0.1-0.9,0.2-1.4,0.2s-0.9-0.2-1.3-0.4c-0.4-0.3-0.6-0.7-0.8-1.3c0-0.3,0.1-0.8,0.5-1.6
			c0.4-0.8,0.9-1.7,1.8-2.7c0.8-1,1.9-2.1,3.2-3.2c1.3-1.1,2.9-2.1,4.7-3.1s3.9-1.8,6.3-2.4C31.9,23.4,34.6,23.1,37.6,23z
			 M26.1,55.9c-2.3,0.5-4.1,1.3-5.4,2.3s-2.3,2.1-3.1,3.2c-0.7,1.1-1.2,2.2-1.4,3.3c-0.2,1.1-0.4,2-0.5,2.6
			c-0.1,1.4,0.1,2.6,0.6,3.7c0.6,1.1,1.3,2.1,2.2,2.9c0.9,0.8,2,1.5,3.2,2.1s2.4,1,3.5,1.4c0.1-2.2,0.2-4.3,0.3-6.4
			c0.1-2.1,0.2-4.2,0.3-6.3L26.1,55.9z"/>
		
			<linearGradient id="SVGID_2_" gradientUnits="userSpaceOnUse" x1="29.2272" y1="508.7191" x2="319.8083" y2="799.2937" gradientTransform="matrix(1 0 0 1 0 -490)">
			<stop  offset="0" style="stop-color:#F7931E"/>
			<stop  offset="6.000000e-02" style="stop-color:#F68A1F"/>
			<stop  offset="0.17" style="stop-color:#F37022"/>
			<stop  offset="0.25" style="stop-color:#F15A24"/>
			<stop  offset="0.5" style="stop-color:#D4145A"/>
			<stop  offset="0.76" style="stop-color:#93278F"/>
			<stop  offset="1" style="stop-color:#005B97"/>
		</linearGradient>
		<path class="st3" d="M89,67c0-0.2,0-0.3,0.1-0.4c0-0.2,0.2-0.5,0.5-0.8c0.3-0.3,0.7-0.6,1.2-0.9c0.5-0.3,1-0.5,1.5-0.6
			c0.6-0.2,1.2-0.3,1.7-0.3c0.8,0,1.5,0.2,2.1,0.5c0.6,0.4,1,1,1.1,1.9c0.2,1,0.3,2.3,0.3,3.9c0,1.7-0.1,3.6-0.3,5.7
			c-0.2,2-0.4,4.1-0.6,6.2c-0.2,2-0.4,3.9-0.5,5.8c-0.2,1.8-0.3,3.5-0.3,5s0.1,2.8,0.4,3.8c0.2,1,0.6,1.4,1.2,1.3
			c0.4,0,0.9-0.6,1.5-1.5c0.6-1,1.2-2.2,1.9-3.7c0.7-1.5,1.4-3.2,2.1-5.1s1.4-3.7,2-5.6s1.2-3.6,1.8-5.3c0.6-1.7,1-3.1,1.4-4.2
			l0.7-2.4c0.1-0.3,0.5-0.6,1-0.6c0.5-0.1,1.1-0.1,1.7,0s1.1,0.3,1.4,0.5c0.4,0.2,0.5,0.5,0.4,0.8v-0.1l-0.6,2
			c-0.3,1.3-0.7,2.9-1.2,4.9c-0.5,1.9-1.2,4-1.9,6.2c-0.8,2.2-1.6,4.4-2.6,6.6s-2,4.2-3.2,5.9c-1.2,1.8-2.5,3.2-3.9,4.2
			c-1.4,1.1-2.9,1.6-4.5,1.5c-1.1-0.1-2-0.6-2.8-1.2c-0.8-0.7-1.5-1.5-2.1-2.5S89.4,96.3,89,95s-0.7-2.7-0.9-4.2
			c-0.7,1.2-1.6,2.4-2.7,3.4c-1.2,1-2.6,1.7-4.3,1.9c-3.3,0.2-5.9-0.3-7.8-1.5s-3.3-2.7-4.2-4.5c-0.9-1.8-1.5-3.7-1.8-5.7
			c-0.2-2-0.4-3.7-0.4-5.1c0-1,0.1-2.2,0.2-3.7s0.4-3.1,0.8-4.9c0.4-1.7,1-3.5,1.8-5.2c0.7-1.8,1.7-3.3,3-4.8
			c1.2-1.4,2.7-2.6,4.5-3.6c1.8-0.9,3.9-1.5,6.3-1.5c1.9,0,3.5,0.1,4.7,0.5s2.2,0.9,2.9,1.4c0.7,0.6,1.2,1.2,1.6,1.8
			c0.3,0.6,0.6,1.2,0.7,1.7l0.2,0.7v-0.1c0.4,0.8,0.3,1.4-0.2,1.9c-0.5,0.4-1.2,0.6-2,0.6c-0.5,0-1-0.1-1.5-0.3s-1-0.5-1.4-1
			c-0.2-0.2-0.4-0.3-0.4-0.4c0-0.1,0-0.2-0.1-0.4c-0.2-0.5-0.6-1.1-1.2-1.8s-1.5-1-2.7-0.9c-0.7,0-1.5,0.5-2.3,1.4s-1.6,2.2-2.4,3.9
			c-0.7,1.7-1.4,3.7-2,6.1s-1,5.1-1.2,8.1c0,0.3,0,0.7,0,1.2c0,0.5,0,0.8,0,1.1c0,2.8,0.2,5,0.6,6.4c0.4,1.5,0.9,2.5,1.5,3.2
			c0.6,0.6,1.2,1,1.7,1c0.6,0,1,0.1,1.3,0.1c0.6,0,1.2-0.3,1.8-0.9c0.6-0.6,1.2-1.3,1.8-2.1c0.6-0.8,1.1-1.8,1.5-2.7
			c0.5-1,0.9-1.9,1.3-2.7c0-1.8,0-3.6,0.1-5.4c0.1-1.8,0.2-3.4,0.4-4.9c0.1-1.5,0.3-2.8,0.4-3.9S88.9,67.4,89,67z"/>
		
			<linearGradient id="SVGID_3_" gradientUnits="userSpaceOnUse" x1="41.972" y1="495.974" x2="332.5532" y2="786.5486" gradientTransform="matrix(1 0 0 1 0 -490)">
			<stop  offset="0" style="stop-color:#F7931E"/>
			<stop  offset="6.000000e-02" style="stop-color:#F68A1F"/>
			<stop  offset="0.17" style="stop-color:#F37022"/>
			<stop  offset="0.25" style="stop-color:#F15A24"/>
			<stop  offset="0.5" style="stop-color:#D4145A"/>
			<stop  offset="0.76" style="stop-color:#93278F"/>
			<stop  offset="1" style="stop-color:#005B97"/>
		</linearGradient>
		<path class="st4" d="M126.4,59.4c0-0.6,0.1-1.2,0.4-1.6s0.7-0.8,1.1-1.1c0.5-0.3,1-0.5,1.6-0.6s1.3-0.2,1.9-0.2
			c0.9,0,1.8,0.1,2.6,0.3s1.5,0.5,1.9,0.8l0,0c0.5,0.4,0.7,1.7,0.7,4c0,1.3-0.1,2.8-0.2,4.6c-0.1,1.8-0.3,3.7-0.6,5.8
			s-0.6,4.4-0.9,6.7c-0.3,2.3-0.8,4.8-1.2,7.3c3.2-3.3,6.1-6.6,8.7-9.9c2.7-3.3,4.6-6.3,5.9-9.1c0.1-0.2,0.5-0.4,1.1-0.4
			s1.2,0,1.8,0.1s1.1,0.4,1.5,0.8c0.4,0.4,0.5,0.8,0.4,1.3c-0.9,2.1-2.1,4.2-3.6,6.5s-3.3,4.5-5.2,6.8s-4,4.5-6.2,6.8
			c-2.2,2.2-4.3,4.4-6.4,6.4c-0.6,2.5-1.2,5-1.9,7.5c-0.7,2.4-1.4,4.7-2.1,6.8c-0.7,2.1-1.5,4-2.3,5.7s-1.6,3-2.5,4.1
			c-1.5,1.9-3.1,3.2-4.7,4.1c-1.7,0.8-3.2,1.3-4.7,1.3c-2,0-3.6-0.6-4.8-1.7c-1.2-1.2-1.9-2.7-1.9-4.7c0-0.7,0.1-1.4,0.2-2.1
			s0.4-1.5,0.8-2.3v0.1c0.4-0.9,1.1-1.9,2.1-3.1s2.1-2.6,3.5-4c1.3-1.5,2.8-3,4.5-4.6s3.3-3.3,5.1-5l0.6-0.7
			c0.4-3.2,0.8-6.4,1.1-9.6c0.3-3.2,0.6-6.3,0.8-9.2c-0.9,1.8-2,3.7-3.1,5.7c-1.2,2-2.4,3.8-3.8,5.5c-1.3,1.7-2.7,3.1-4.1,4.2
			s-2.8,1.7-4.1,1.8c-1.5,0-2.8-0.2-3.9-0.7c-1-0.5-1.9-1.1-2.5-2c-0.6-0.8-1.1-1.8-1.4-3c-0.3-1.1-0.4-2.3-0.4-3.6
			c0-1.4,0.1-2.8,0.3-4.3c0.2-1.5,0.3-3,0.5-4.5s0.4-2.9,0.6-4.4c0.2-1.4,0.3-2.7,0.3-3.9c0-2.1-0.3-3.7-0.9-4.8
			c-0.3-0.5-0.3-0.9-0.2-1.3c0.2-0.4,0.5-0.7,1-1s1.1-0.5,1.8-0.6c0.7-0.1,1.4-0.2,2.2-0.2c1.3,0,2.5,0.2,3.6,0.7s1.7,1.1,1.8,1.9
			c0.2,0.6,0.3,1.2,0.4,1.9s0.1,1.4,0.1,2.2c0,2-0.2,4.2-0.6,6.5c-0.4,2.3-0.8,4.5-1.3,6.7c-0.4,1.7-0.7,3.3-1,4.9
			c-0.3,1.5-0.4,2.8-0.4,3.8c0,1.4,0.3,2.1,0.9,2.2c0.3-0.1,0.8-0.6,1.6-1.6c0.8-1,1.6-2.3,2.6-3.8c1-1.6,2-3.3,3.1-5.3
			s2.1-3.9,3.1-5.9s1.9-3.9,2.7-5.7c0.8-1.8,1.4-3.5,1.8-4.9c0-1.2,0.1-2.1,0.1-2.8C126.4,59.9,126.4,59.5,126.4,59.4z M115.7,120.5
			c1.4-1.2,2.7-3.3,3.8-6.2c1.1-2.9,2-6.3,2.8-10.2c-1.5,1.5-2.9,3-4.1,4.4c-1.3,1.4-2.4,2.8-3.2,4.1c-0.9,1.3-1.6,2.6-2.1,3.7
			c-0.5,1.2-0.7,2.3-0.6,3.3c0,0.4,0.1,0.8,0.3,1.3c0.1,0.5,0.4,0.8,0.8,0.8c0.2,0,0.6-0.1,1-0.3C114.6,121.3,115.1,121,115.7,120.5
			z"/>
		
			<linearGradient id="SVGID_4_" gradientUnits="userSpaceOnUse" x1="66.8763" y1="471.0691" x2="357.4575" y2="761.6437" gradientTransform="matrix(1 0 0 1 0 -490)">
			<stop  offset="0" style="stop-color:#F7931E"/>
			<stop  offset="6.000000e-02" style="stop-color:#F68A1F"/>
			<stop  offset="0.17" style="stop-color:#F37022"/>
			<stop  offset="0.25" style="stop-color:#F15A24"/>
			<stop  offset="0.5" style="stop-color:#D4145A"/>
			<stop  offset="0.76" style="stop-color:#93278F"/>
			<stop  offset="1" style="stop-color:#005B97"/>
		</linearGradient>
		<path class="st5" d="M164.3,67c0-0.2,0-0.3,0.1-0.4c0-0.2,0.2-0.5,0.5-0.8c0.3-0.3,0.7-0.6,1.2-0.9c0.5-0.3,1-0.5,1.5-0.6
			c0.6-0.2,1.2-0.3,1.7-0.3c0.8,0,1.5,0.2,2.1,0.5c0.6,0.4,1,1,1.1,1.9c0.2,1,0.3,2.3,0.3,3.9c0,1.7-0.1,3.6-0.3,5.7
			c-0.2,2-0.4,4.1-0.6,6.2c-0.2,2-0.4,3.9-0.5,5.8c-0.2,1.8-0.3,3.5-0.3,5s0.1,2.8,0.4,3.8c0.2,1,0.6,1.4,1.2,1.3
			c0.4,0,0.9-0.6,1.5-1.5c0.6-1,1.2-2.2,1.9-3.7s1.4-3.2,2.1-5.1c0.7-1.9,1.4-3.7,2-5.6s1.2-3.6,1.8-5.3c0.6-1.7,1-3.1,1.4-4.2
			l0.7-2.4c0.1-0.3,0.5-0.6,1-0.6c0.5-0.1,1.1-0.1,1.7,0c0.6,0.1,1.1,0.3,1.4,0.5c0.4,0.2,0.5,0.5,0.4,0.8v-0.1l-0.6,2
			c-0.3,1.3-0.7,2.9-1.2,4.9c-0.5,1.9-1.2,4-1.9,6.2c-0.8,2.2-1.6,4.4-2.6,6.6s-2,4.2-3.2,5.9c-1.2,1.8-2.5,3.2-3.9,4.2
			c-1.4,1.1-2.9,1.6-4.5,1.5c-1.1-0.1-2-0.6-2.8-1.2c-0.8-0.7-1.5-1.5-2.1-2.5s-1.1-2.2-1.5-3.5s-0.7-2.7-0.9-4.2
			c-0.7,1.2-1.6,2.4-2.7,3.4c-1.2,1-2.6,1.7-4.3,1.9c-3.3,0.2-5.9-0.3-7.8-1.5c-1.9-1.2-3.3-2.7-4.2-4.5s-1.5-3.7-1.8-5.7
			c-0.2-2-0.4-3.7-0.4-5.1c0-1,0.1-2.2,0.2-3.7c0.1-1.5,0.4-3.1,0.8-4.9c0.4-1.7,1-3.5,1.8-5.2c0.7-1.8,1.7-3.3,3-4.8
			c1.2-1.4,2.7-2.6,4.5-3.6c1.8-0.9,3.9-1.5,6.3-1.5c1.9,0,3.5,0.1,4.7,0.5s2.2,0.9,2.9,1.4c0.7,0.6,1.2,1.2,1.6,1.8
			c0.3,0.6,0.6,1.2,0.7,1.7l0.2,0.7v-0.1c0.4,0.8,0.3,1.4-0.2,1.9c-0.5,0.4-1.2,0.6-2,0.6c-0.5,0-1-0.1-1.5-0.3s-1-0.5-1.4-1
			c-0.2-0.2-0.4-0.3-0.4-0.4c0-0.1,0-0.2-0.1-0.4c-0.2-0.5-0.6-1.1-1.2-1.8c-0.6-0.7-1.5-1-2.7-0.9c-0.7,0-1.5,0.5-2.3,1.4
			s-1.6,2.2-2.4,3.9c-0.7,1.7-1.4,3.7-2,6.1s-1,5.1-1.2,8.1c0,0.3,0,0.7,0,1.2s0,0.8,0,1.1c0,2.8,0.2,5,0.6,6.4
			c0.4,1.5,0.9,2.5,1.5,3.2c0.6,0.6,1.2,1,1.7,1c0.6,0,1,0.1,1.3,0.1c0.6,0,1.2-0.3,1.8-0.9s1.2-1.3,1.8-2.1
			c0.6-0.8,1.1-1.8,1.5-2.7c0.5-1,0.9-1.9,1.3-2.7c0-1.8,0-3.6,0.1-5.4s0.2-3.4,0.4-4.9c0.1-1.5,0.3-2.8,0.4-3.9
			S164.2,67.4,164.3,67z"/>
		
			<linearGradient id="SVGID_5_" gradientUnits="userSpaceOnUse" x1="89.7463" y1="448.1986" x2="380.3275" y2="738.7733" gradientTransform="matrix(1 0 0 1 0 -490)">
			<stop  offset="0" style="stop-color:#F7931E"/>
			<stop  offset="6.000000e-02" style="stop-color:#F68A1F"/>
			<stop  offset="0.17" style="stop-color:#F37022"/>
			<stop  offset="0.25" style="stop-color:#F15A24"/>
			<stop  offset="0.5" style="stop-color:#D4145A"/>
			<stop  offset="0.76" style="stop-color:#93278F"/>
			<stop  offset="1" style="stop-color:#005B97"/>
		</linearGradient>
		<path class="st6" d="M189.7,31.8c1-1,2-1.8,3.1-2.2c1.1-0.5,2.3-0.7,3.4-0.7c1.1,0,2.1,0.2,3.1,0.6c1,0.4,1.9,1,2.7,1.7
			s1.4,1.6,1.9,2.6s0.7,2.1,0.7,3.3c0,5.3-0.6,10.2-1.6,14.7s-2.2,8.6-3.7,12.2s-3,6.8-4.6,9.5s-3,4.9-4.2,6.6
			c0.2,2.4,0.5,4.5,0.8,6.2c0.4,1.7,0.7,3.1,1.1,4.1c0.4,1.1,0.7,1.8,1,2.3s0.5,0.7,0.6,0.7c0.7-0.1,1.5-0.8,2.6-2.1
			c1.1-1.2,2.2-2.8,3.4-4.5c1.2-1.8,2.4-3.7,3.6-5.7s2.3-4,3.3-5.8c1-1.8,1.8-3.3,2.4-4.6c0.6-1.2,1-2,1-2.2c0-0.4,0.3-0.7,0.7-0.9
			s0.9-0.4,1.4-0.4s1,0.1,1.4,0.4c0.5,0.2,0.8,0.6,1,1.2c0,0.7-0.4,1.7-1,3.2s-1.4,3.1-2.3,4.9s-2,3.7-3.1,5.7s-2.2,3.8-3.2,5.5
			s-2,3.2-2.8,4.4c-0.8,1.2-1.4,2-1.7,2.4c-1,1-2.1,1.7-3.4,2.2c-1.2,0.5-2.5,0.8-3.8,0.8c-1.1,0-2.1-0.2-3.1-0.6s-1.8-0.9-2.5-1.7
			c-1.3-1.5-2.4-3.2-3.4-5.1s-1.7-4-2.3-6.3c-0.6-2.2-1.1-4.6-1.4-7c-0.3-2.4-0.5-4.9-0.5-7.4c0-4.1,0.3-8.3,0.9-12.4
			c0.6-4.1,1.4-7.9,2.3-11.4c0.9-3.5,1.9-6.5,3-9.1C187.7,34.6,188.7,32.8,189.7,31.8z M190.2,74.8c1.3-2.5,2.4-5.1,3.3-7.8
			c0.9-2.7,1.6-5.3,2.2-7.8c0.6-2.6,1.1-5,1.4-7.4c0.3-2.4,0.6-4.5,0.8-6.5c0.2-1.9,0.3-3.6,0.3-5s0.1-2.5,0.1-3.1v-0.6
			c0-2.8-0.3-4.2-0.9-4.2c-0.4,0-0.8,0.4-1.3,1.3s-0.9,2.1-1.3,3.6c-0.8,3.5-1.4,6.9-2,10.3c-0.6,3.3-1.1,6.5-1.5,9.5
			s-0.7,5.8-0.9,8.5c-0.2,2.6-0.3,4.9-0.3,6.9L190.2,74.8L190.2,74.8z"/>
		
			<linearGradient id="SVGID_6_" gradientUnits="userSpaceOnUse" x1="117.0391" y1="420.9052" x2="407.6203" y2="711.4798" gradientTransform="matrix(1 0 0 1 0 -490)">
			<stop  offset="0" style="stop-color:#F7931E"/>
			<stop  offset="6.000000e-02" style="stop-color:#F68A1F"/>
			<stop  offset="0.17" style="stop-color:#F37022"/>
			<stop  offset="0.25" style="stop-color:#F15A24"/>
			<stop  offset="0.5" style="stop-color:#D4145A"/>
			<stop  offset="0.76" style="stop-color:#93278F"/>
			<stop  offset="1" style="stop-color:#005B97"/>
		</linearGradient>
		<path class="st7" d="M228.4,42.9c3.6-4.3,7.5-7.6,11.6-9.7c4.1-2.2,8.2-3.5,12.3-3.9c0.8-0.1,1.5-0.2,2.3-0.2
			c0.7,0,1.5-0.1,2.3-0.1c4.1,0,7.9,0.6,11.6,1.8c3.6,1.2,6.8,3,9.5,5.3s4.8,5.1,6.4,8.5s2.3,7.2,2.2,11.5c0,1.6-0.3,3.1-0.9,4.5
			c-0.5,1.4-1.2,2.7-2,4c-0.8,1.2-1.8,2.4-2.8,3.5c-1.1,1.1-2.2,2-3.3,2.9c-2.6,2-5.6,3.8-8.9,5.4c0.5,0.3,1.1,0.7,1.8,1.3
			c0.7,0.6,1.5,1.4,2.1,2.3c0.7,0.9,1.2,2.1,1.7,3.3c0.4,1.3,0.6,2.8,0.5,4.5c-0.2,2.4-0.9,4.5-2,6.3c-1.2,1.8-2.6,3.4-4.3,4.8
			c-1.7,1.3-3.6,2.5-5.7,3.3c-2.1,0.9-4.1,1.6-6.2,2.2c-2,0.6-3.9,0.9-5.6,1.2s-3.1,0.4-4.2,0.4c-3.7-0.2-6.9-0.8-9.5-1.9
			s-4.8-2.3-6.4-3.6c-1.7-1.4-2.9-2.8-3.6-4.2c-0.7-1.5-1.1-2.7-1.2-3.8c0.3-2.6,1.1-4.8,2.5-6.5c1.4-1.8,2.9-3.1,4.6-4.2
			c1.7-1,3.3-1.8,4.9-2.3c1.6-0.5,2.8-0.8,3.5-0.9c0.1,0,0.2,0,0.3,0s0.2,0,0.3,0c-0.3-2.6-0.5-5.3-0.7-8.2s-0.3-5.7-0.5-8.6
			c-0.1-2.9-0.2-5.6-0.3-8.2c-0.1-2.6-0.1-4.9-0.1-6.8c0-1.8,0-3.3,0.1-4.4c0.1-1.1,0.2-1.8,0.3-1.9h0.1c0.2-0.4,0.8-0.8,1.5-1
			s1.6-0.4,2.5-0.4c0.7,0,1.3,0.1,2,0.2c0.6,0.1,1.2,0.4,1.7,0.7c0.5,0.3,0.9,0.7,1.1,1.3c0.2,0.5,0.3,1.2,0.2,1.9
			c0,0,0,0.7-0.1,2.1c-0.1,1.3-0.2,3.1-0.3,5.3s-0.2,4.7-0.3,7.5s-0.1,5.6-0.1,8.6c0,2.1,0,4.2,0.1,6.2c0,2,0.1,4,0.3,5.9
			c1.3,0.1,2.4,0.4,3.3,0.7c0.9,0.3,1.6,0.7,2.2,1.1c0.6,0.4,1,0.8,1.4,1.2c0.4,0.4,0.7,0.8,1,1l0.1,0.3c0.2,0.4,0.4,0.9,0.4,1.5
			s0,1.1-0.3,1.4c-0.2,0.3-0.6,0.4-1.2,0.3c-0.6-0.1-1.3-0.7-2.2-1.7c-0.9-0.9-2.3-1.5-4.2-1.9c0.4,3.4,1,5.9,1.9,7.6H252
			c0.4,0.6,0.6,1.2,0.6,1.9c0,0.7-0.3,1.3-0.9,1.6c-0.6,0.4-1.6,0.3-3.1,0s-2.6-0.9-3.2-1.7c-0.6-0.8-1.1-1.6-1.3-2.4
			c-0.2-0.9-0.5-1.9-0.7-3.2c-0.2-1.2-0.4-2.6-0.7-4.2c-0.1,0-0.4,0.1-0.6,0.1c-2,0.3-3.6,0.9-4.9,1.9s-2.2,2-2.9,3.2
			s-1.2,2.3-1.4,3.3c-0.2,1.1-0.4,1.9-0.4,2.4c0,1.5,0.5,2.8,1.5,3.8c1,1.1,2.3,1.9,3.7,2.6c1.5,0.6,3,1.1,4.7,1.3
			c1.7,0.2,3.2,0.3,4.5,0.1c4.3-0.5,7.7-1.4,10.3-2.7c2.5-1.3,4.4-2.7,5.7-4.2c1.3-1.5,2.1-3,2.4-4.5c0.4-1.5,0.5-2.7,0.5-3.6
			s-0.2-1.9-0.7-3s-1.1-2-2-2.9c-0.8-0.9-1.8-1.6-3-2.2c-1.1-0.6-2.3-0.9-3.6-1c-0.9,0-1.3-0.2-1.2-0.5c0.1-0.4,0.5-0.8,1.2-1.2
			c0.6-0.5,1.4-0.9,2.3-1.3c0.9-0.4,1.6-0.7,2.3-0.8c1.9-0.3,3.6-0.8,5.1-1.7c1.5-0.8,2.8-1.8,3.9-2.9c1.1-1.1,2-2.3,2.7-3.5
			c0.7-1.2,1.3-2.5,1.8-3.7s0.8-2.3,1-3.3s0.3-1.8,0.4-2.3c-0.3-4-1.2-7.4-2.4-10.2c-1.3-2.8-2.9-5-4.8-6.7s-4.1-2.9-6.4-3.7
			c-2.4-0.7-4.7-1.1-7.1-1.1c-0.7,0-1.3,0-2,0.1s-1.3,0.1-2,0.2h0.1c-2.4,0.3-4.6,0.8-6.6,1.6c-2.1,0.8-3.9,1.7-5.5,2.6
			s-3,1.9-4.2,2.8c-1.2,1-2,1.8-2.6,2.4c-0.2,0.2-0.6,0.4-1.2,0.5c-0.5,0.1-1,0.1-1.5,0c-0.5-0.1-0.8-0.2-1.1-0.4
			C228.2,43.4,228.1,43.2,228.4,42.9z"/>
		
			<linearGradient id="SVGID_7_" gradientUnits="userSpaceOnUse" x1="140.8617" y1="397.0821" x2="431.4429" y2="687.6566" gradientTransform="matrix(1 0 0 1 0 -490)">
			<stop  offset="0" style="stop-color:#F7931E"/>
			<stop  offset="6.000000e-02" style="stop-color:#F68A1F"/>
			<stop  offset="0.17" style="stop-color:#F37022"/>
			<stop  offset="0.25" style="stop-color:#F15A24"/>
			<stop  offset="0.5" style="stop-color:#D4145A"/>
			<stop  offset="0.76" style="stop-color:#93278F"/>
			<stop  offset="1" style="stop-color:#005B97"/>
		</linearGradient>
		<path class="st8" d="M310.2,56.2c2.7,0,4.6,0.8,5.6,2.5c1.1,1.7,1.6,3.9,1.6,6.6c0,0.9-0.1,2-0.3,3.3c-0.2,1.3-0.4,2.8-0.6,4.2
			c-0.2,1.5-0.5,3-0.8,4.4c-0.3,1.4-0.6,2.7-0.8,3.7c-0.4,2.2-0.9,4.3-1.3,6.4s-0.6,3.9-0.6,5.3c0,1.1,0.1,1.9,0.4,2.5
			c0.2,0.6,0.6,0.9,1.2,1c0.5,0,1.1-0.4,1.8-1.1c0.6-0.7,1.3-1.7,2.1-2.9c0.7-1.2,1.5-2.6,2.2-4.1c0.8-1.6,1.5-3.1,2.2-4.7
			s1.4-3.1,2-4.7c0.6-1.5,1.2-2.9,1.7-4.1c0.3-1,0.7-1.8,1-2.5c0.3-0.7,0.5-1.1,0.6-1.3v0.1c0.2-0.4,0.6-0.7,1.1-0.9
			s1.1-0.3,1.7-0.3c0.8,0,1.5,0.2,2.1,0.5c0.6,0.3,0.7,0.9,0.5,1.6c-1.8,5.8-3.8,10.6-5.9,14.3s-4.1,6.7-6.1,8.8
			c-2,2.1-3.8,3.5-5.5,4.2s-3,0.9-4,0.6c-1.7-0.5-2.8-1.5-3.5-3.1c-0.6-1.5-0.9-3.3-0.9-5.4c0-1.9,0.2-3.9,0.5-6.2
			c0.4-2.2,0.7-4.4,1.1-6.6c0.4-2,0.7-3.9,1-5.7c0.3-1.8,0.4-3.5,0.4-4.9c0-1.3-0.2-2.4-0.5-3.2c-0.3-0.8-0.9-1.3-1.7-1.4
			c-1,0-2.1,0.5-3.5,1.8c-1.4,1.2-2.8,2.8-4.1,4.6c-1.3,1.8-2.6,3.9-3.8,6c-1.2,2.2-2,4.2-2.6,6c0,1.7,0.1,3.3,0.3,4.6
			c0.1,1.3,0.4,2.4,0.8,3.2c0.2,0.5,0.4,1.1,0.4,1.6s0,1-0.3,1.3s-0.6,0.6-1.2,0.7s-1.4,0.1-2.5-0.2c-1.5-0.3-2.6-0.9-3.2-1.7
			s-1-1.6-1.2-2.5s-0.4-2.1-0.5-3.7c-0.1-1.5-0.1-3.2-0.1-5.1c0-2.8,0.1-6,0.3-9.5c0.2-3.5,0.4-7.1,0.6-10.7
			c0.3-3.6,0.6-7.2,0.9-10.7s0.6-6.6,0.9-9.4c0.3-2.8,0.6-5,0.8-6.8c0.2-1.8,0.4-2.7,0.6-2.9v-0.1c0.3-0.4,0.8-0.7,1.5-1
			s1.6-0.4,2.6-0.4c0.6,0,1.3,0.1,1.9,0.2c0.6,0.1,1.2,0.4,1.7,0.7s0.8,0.7,1.1,1.2s0.3,1.1,0.1,1.8c0,0-0.2,1.1-0.5,3.1
			c-0.4,2-0.8,4.7-1.3,7.9s-1,6.9-1.5,10.9c-0.6,4-1,8-1.4,12c0.9-1.2,2-2.4,3.2-3.6c1.2-1.2,2.5-2.3,3.8-3.3s2.7-1.8,4.1-2.4
			C307.5,56.5,308.9,56.2,310.2,56.2z"/>
		
			<linearGradient id="SVGID_8_" gradientUnits="userSpaceOnUse" x1="157.7526" y1="380.1908" x2="448.3338" y2="670.7654" gradientTransform="matrix(1 0 0 1 0 -490)">
			<stop  offset="0" style="stop-color:#F7931E"/>
			<stop  offset="6.000000e-02" style="stop-color:#F68A1F"/>
			<stop  offset="0.17" style="stop-color:#F37022"/>
			<stop  offset="0.25" style="stop-color:#F15A24"/>
			<stop  offset="0.5" style="stop-color:#D4145A"/>
			<stop  offset="0.76" style="stop-color:#93278F"/>
			<stop  offset="1" style="stop-color:#005B97"/>
		</linearGradient>
		<path class="st9" d="M348,54.9c0.3-0.4,0.6-0.7,1.1-0.9s1-0.4,1.5-0.6c0.6-0.2,1.1-0.3,1.7-0.3c1,0,1.8,0.2,2.4,0.6
			c0.6,0.4,0.9,1.1,0.9,2.2c-0.1,1.2-0.2,2.9-0.4,4.9c-0.2,2-0.4,4.3-0.7,6.7c-0.2,1.9-0.5,3.8-0.6,5.8c-0.2,2-0.4,4-0.6,6
			s-0.3,3.9-0.4,5.8s-0.1,3.6-0.1,5.2c0,2.4,0.2,4.4,0.5,5.9s0.8,2.3,1.4,2.3c0.4-0.1,0.9-0.7,1.5-1.7s1.1-2.2,1.8-3.7
			c0.6-1.5,1.3-3.1,1.9-5c0.7-1.8,1.3-3.6,1.9-5.5c0.6-1.8,1.2-3.6,1.7-5.3c0.5-1.7,1-3.1,1.4-4.4c0.1-0.5,0.2-1,0.4-1.4
			c0.2-0.5,0.4-1,0.5-1.4c0.1-0.3,0.5-0.6,1-0.6c0.5-0.1,1.1-0.1,1.6,0c0.5,0.1,1,0.3,1.4,0.5c0.4,0.2,0.5,0.5,0.4,0.8
			c-0.2,0.2-0.4,0.9-0.5,2.1c-0.3,1.2-0.7,2.9-1.2,4.9s-1.1,4.2-1.8,6.5c-0.7,2.3-1.5,4.6-2.4,6.9s-2,4.4-3.2,6.3
			c-1.2,1.8-2.5,3.3-3.9,4.4s-3,1.6-4.7,1.5c-1.5-0.1-2.7-0.7-3.7-1.7c-1-1.1-1.8-2.4-2.3-4.1s-1-3.7-1.2-5.9s-0.4-4.6-0.4-7.1
			s0.1-4.9,0.2-7.3c-0.8,1.8-1.7,3.7-2.8,5.7c-1,1.9-2.1,3.7-3.3,5.3c-1.2,1.6-2.4,2.9-3.7,4c-1.3,1.1-2.6,1.6-3.9,1.7
			c-2.7-0.1-4.6-0.9-5.7-2.5s-1.7-3.6-1.7-6.1c0-1.8,0.2-3.8,0.5-5.8c0.3-2,0.7-4.2,1.1-6.3c0.4-2,0.8-4,1.1-5.9
			c0.3-1.9,0.5-3.6,0.5-5.1c0-1.6-0.2-3-0.7-4h-0.1c-0.5-1-0.4-1.7,0.4-2.2s1.8-0.8,3.1-0.8c1.1,0,2.1,0.2,3.1,0.7s1.6,1.1,1.7,2.1
			c0.4,1.3,0.6,2.7,0.6,4.2c0,2-0.2,4.2-0.6,6.4c-0.4,2.3-0.9,4.5-1.4,6.7c-0.4,1.8-0.7,3.4-1,5c-0.3,1.5-0.4,2.8-0.4,3.9
			c0,1.5,0.3,2.3,1,2.3c0.3-0.1,0.8-0.6,1.5-1.5s1.5-2.1,2.4-3.6s1.8-3.1,2.8-4.9c1-1.8,1.9-3.6,2.9-5.5c0.9-1.9,1.8-3.8,2.6-5.6
			c0.8-1.8,1.4-3.5,1.9-4.9c0.1-1,0.3-1.9,0.4-2.6c0.1-0.7,0.2-1.3,0.3-1.7c0-0.1,0-0.2,0-0.2V56l0,0
			C347.6,55.6,347.7,55.3,348,54.9z"/>
		
			<linearGradient id="SVGID_9_" gradientUnits="userSpaceOnUse" x1="161.5971" y1="376.3462" x2="452.1783" y2="666.9208" gradientTransform="matrix(1 0 0 1 0 -490)">
			<stop  offset="0" style="stop-color:#F7931E"/>
			<stop  offset="6.000000e-02" style="stop-color:#F68A1F"/>
			<stop  offset="0.17" style="stop-color:#F37022"/>
			<stop  offset="0.25" style="stop-color:#F15A24"/>
			<stop  offset="0.5" style="stop-color:#D4145A"/>
			<stop  offset="0.76" style="stop-color:#93278F"/>
			<stop  offset="1" style="stop-color:#005B97"/>
		</linearGradient>
		<path class="st10" d="M361.6,51.5c0-0.6,0.1-1.2,0.4-1.6s0.7-0.8,1.1-1.1c0.5-0.3,1-0.5,1.6-0.6s1.3-0.2,1.9-0.2
			c0.9,0,1.8,0.1,2.6,0.3c0.8,0.2,1.5,0.5,1.8,0.8c0.6,0.4,0.9,2.3,0.9,5.7c0,1.8-0.1,3.9-0.2,6.3c-0.1,2.4-0.3,5.1-0.6,7.9
			c-0.2,2.9-0.5,5.9-0.9,9c-0.4,3.1-0.8,6.3-1.3,9.5c3-3.3,5.8-6.6,8.4-9.8c2.6-3.2,4.5-6.3,5.9-9.3c0.1-0.2,0.5-0.4,1-0.5
			s1-0.1,1.5-0.1c0.5,0.1,1,0.2,1.3,0.5s0.4,0.7,0.2,1.2c-0.9,2.2-2,4.4-3.5,6.7c-1.4,2.3-3.1,4.7-4.9,7c-1.8,2.4-3.7,4.7-5.7,7.1
			s-4,4.6-6,6.8c-0.5,2.9-1.1,5.7-1.7,8.5c-0.6,2.7-1.2,5.2-1.9,7.5c-0.7,2.3-1.4,4.3-2.2,6.1c-0.7,1.8-1.5,3.2-2.3,4.2
			c-1.5,1.9-3,3.2-4.7,4.1c-1.6,0.8-3.2,1.3-4.8,1.3c-2,0-3.6-0.6-4.8-1.8c-1.2-1.2-1.8-2.8-1.8-4.8c0-1.4,0.3-2.8,0.9-4.2
			c0.6-1.4,1.5-3,2.6-4.6c1.1-1.7,2.4-3.4,3.8-5.1c1.4-1.8,3-3.6,4.6-5.4c1.7-1.8,3.3-3.7,5.1-5.6c0.3-3.4,0.6-6.8,0.8-10.3
			c0.2-3.5,0.3-6.9,0.4-10.3c0.1-3.3,0.2-6.4,0.2-9.4s0.1-5.6,0.1-7.8c0-2.3,0-4.2-0.1-5.5C361.7,52.3,361.6,51.6,361.6,51.5z
			 M353.2,122.6c1.3-1,2.4-2.9,3.3-5.7c0.9-2.8,1.7-6.1,2.3-9.9c-2.4,2.8-4.4,5.5-6,8.1c-1.7,2.5-2.7,4.8-3.1,6.7
			c-0.1,0.4-0.1,0.8,0,1.3s0.4,0.8,0.9,0.8c0.2,0,0.6-0.1,1-0.3C352.1,123.5,352.6,123.2,353.2,122.6z M362.8,41.4
			c0-1.4,0.5-2.6,1.4-3.6s2-1.5,3.2-1.5s2.3,0.5,3.2,1.5c0.9,1,1.3,2.2,1.3,3.6c0,1.4-0.4,2.6-1.3,3.5c-0.9,1-2,1.4-3.2,1.4
			s-2.3-0.5-3.2-1.4C363.2,44,362.8,42.8,362.8,41.4z"/>
		
			<linearGradient id="SVGID_10_" gradientUnits="userSpaceOnUse" x1="190.5395" y1="347.4031" x2="481.1207" y2="637.9777" gradientTransform="matrix(1 0 0 1 0 -490)">
			<stop  offset="0" style="stop-color:#F7931E"/>
			<stop  offset="6.000000e-02" style="stop-color:#F68A1F"/>
			<stop  offset="0.17" style="stop-color:#F37022"/>
			<stop  offset="0.25" style="stop-color:#F15A24"/>
			<stop  offset="0.5" style="stop-color:#D4145A"/>
			<stop  offset="0.76" style="stop-color:#93278F"/>
			<stop  offset="1" style="stop-color:#005B97"/>
		</linearGradient>
		<path class="st11" d="M398.4,68.1c0-1.3,0.3-2.3,1-3s1.5-1.1,2.3-1.1s1.5,0.3,2.1,1s0.9,1.7,0.9,3.1v1.8c0,0.9,0,2.1,0.1,3.5
			c0,1.4,0.2,2.9,0.4,4.5c0.2,1.6,0.5,3.2,0.8,4.9c0.4,1.7,0.9,3.2,1.5,4.6s1.4,2.6,2.3,3.7c0.9,1,2,1.7,3.3,2.1
			c0.6,0.1,1.5-0.4,2.7-1.6s2.4-2.9,3.6-5.1s2.2-4.9,3.1-7.9s1.2-6.3,1.1-9.7c0-0.5-0.1-1-0.3-1.5c-0.1-0.5-0.3-0.9-0.5-1.4
			c-0.1-0.4-0.3-0.9-0.4-1.3s-0.2-0.9-0.2-1.4c0-0.9,0.4-1.8,1.1-2.9c0.7-0.8,1.3-1.4,1.8-1.7s1-0.5,1.5-0.5c0.7,0,1.3,0.3,1.8,0.9
			c0.5,0.6,0.9,1.3,1.2,2.2s0.5,1.7,0.6,2.5c0.1,0.8,0.2,1.4,0.2,1.8c0,0,0.2,0.1,0.5,0.1s0.8,0,1.3,0s1.1-0.1,1.7-0.1
			s1.2-0.1,1.9-0.1c0.5,0,1.1-0.1,1.6-0.1s1,0,1.4,0c0.8,0,1.4,0.2,1.8,0.5c0.5,0.3,0.7,0.7,0.9,1.1c0.1,0.4,0.1,0.8-0.1,1.2
			s-0.5,0.7-0.9,0.9c-1.1,0.5-2.3,0.8-3.5,0.8s-2.4,0-3.5,0h-2.4c0,0.6-0.2,1.7-0.7,3.3s-1.1,3.5-2,5.7c-0.9,2.1-2,4.3-3.3,6.6
			s-2.8,4.3-4.5,6.2c-1.7,1.8-3.5,3.3-5.5,4.4s-4.2,1.6-6.6,1.4c-1.7-0.1-3.1-0.6-4.4-1.3c-1.2-0.7-2.3-1.6-3.1-2.7s-1.5-2.3-2-3.6
			c-0.5-1.3-0.9-2.8-1.1-4.2c-1.1,2.7-2.4,4.8-4,6.3c-1.5,1.4-3.4,2.1-5.5,1.9c-2.2-0.2-3.9-1-5.3-2.3c-1.4-1.4-2.5-3.1-3.3-5.1
			s-1.3-4.3-1.7-6.8c-0.3-2.5-0.5-5-0.5-7.5c0-1.6,0-3.1,0.1-4.6s0.2-2.8,0.3-4.1c0.1-1.2,0.2-2.4,0.4-3.3c0.1-1,0.2-1.8,0.3-2.3
			c0-0.3,0.1-0.5,0.1-0.6s0-0.3,0-0.4c0-1.3,0.3-2.3,1-3.1c0.7-0.7,1.5-1.1,2.3-1.1c0.7,0,1.4,0.3,2,1s0.9,1.7,0.9,3.1
			c0,0.1,0,0.2,0,0.4c0,0.1,0,0.4,0,0.6c0,0.8-0.1,2.1-0.2,3.7s-0.1,3.6-0.1,5.7c0,2.3,0.1,4.7,0.3,7.2c0.2,2.5,0.5,4.9,0.9,7
			c0.4,2.2,1,4,1.8,5.4c0.7,1.5,1.7,2.3,2.8,2.5c0.3,0,0.7-0.5,1.4-1.3c0.6-0.8,1.3-2,2-3.5s1.4-3.3,2.1-5.3
			c0.7-2.1,1.3-4.3,1.8-6.8c0.1-0.7,0.2-1.3,0.3-1.8c0.1-0.6,0.1-1,0.2-1.4c0.1-0.2,0.1-0.4,0.1-0.5
			C398.4,68.3,398.4,68.2,398.4,68.1z"/>
		
			<linearGradient id="SVGID_11_" gradientUnits="userSpaceOnUse" x1="212.6731" y1="325.2691" x2="503.2542" y2="615.8436" gradientTransform="matrix(1 0 0 1 0 -490)">
			<stop  offset="0" style="stop-color:#F7931E"/>
			<stop  offset="6.000000e-02" style="stop-color:#F68A1F"/>
			<stop  offset="0.17" style="stop-color:#F37022"/>
			<stop  offset="0.25" style="stop-color:#F15A24"/>
			<stop  offset="0.5" style="stop-color:#D4145A"/>
			<stop  offset="0.76" style="stop-color:#93278F"/>
			<stop  offset="1" style="stop-color:#005B97"/>
		</linearGradient>
		<path class="st12" d="M455.9,67c0-0.2,0-0.3,0.1-0.4c0-0.2,0.2-0.5,0.5-0.8c0.3-0.3,0.7-0.6,1.2-0.9c0.5-0.3,1-0.5,1.5-0.6
			c0.6-0.2,1.2-0.3,1.7-0.3c0.8,0,1.5,0.2,2.1,0.5c0.6,0.4,1,1,1.1,1.9c0.2,1,0.3,2.3,0.3,3.9c0,1.7-0.1,3.6-0.3,5.7
			c-0.2,2-0.4,4.1-0.6,6.2c-0.2,2-0.4,3.9-0.5,5.8c-0.2,1.8-0.3,3.5-0.3,5s0.1,2.8,0.4,3.8s0.6,1.4,1.2,1.3c0.4,0,0.9-0.6,1.5-1.5
			c0.6-1,1.2-2.2,1.9-3.7c0.7-1.5,1.4-3.2,2.1-5.1s1.4-3.7,2-5.6s1.2-3.6,1.8-5.3c0.6-1.7,1-3.1,1.4-4.2l0.7-2.4
			c0.1-0.3,0.5-0.6,1-0.6c0.5-0.1,1.1-0.1,1.7,0s1.1,0.3,1.4,0.5c0.4,0.2,0.5,0.5,0.4,0.8v-0.1l-0.6,2c-0.3,1.3-0.7,2.9-1.2,4.9
			c-0.5,1.9-1.2,4-1.9,6.2c-0.8,2.2-1.6,4.4-2.6,6.6s-2,4.2-3.2,5.9c-1.2,1.8-2.5,3.2-3.9,4.2c-1.4,1.1-2.9,1.6-4.5,1.5
			c-1.1-0.1-2-0.6-2.8-1.2c-0.8-0.7-1.5-1.5-2.1-2.5s-1.1-2.2-1.5-3.5s-0.7-2.7-0.9-4.2c-0.7,1.2-1.6,2.4-2.7,3.4
			c-1.2,1-2.6,1.7-4.3,1.9c-3.3,0.2-5.9-0.3-7.8-1.5s-3.3-2.7-4.2-4.5c-0.9-1.8-1.5-3.7-1.8-5.7c-0.2-2-0.4-3.7-0.4-5.1
			c0-1,0.1-2.2,0.2-3.7s0.4-3.1,0.8-4.9c0.4-1.7,1-3.5,1.8-5.2c0.7-1.8,1.7-3.3,3-4.8c1.2-1.4,2.7-2.6,4.5-3.6
			c1.8-0.9,3.9-1.5,6.3-1.5c1.9,0,3.5,0.1,4.7,0.5s2.2,0.9,2.9,1.4c0.7,0.6,1.2,1.2,1.6,1.8c0.3,0.6,0.6,1.2,0.7,1.7l0.2,0.7v-0.1
			c0.4,0.8,0.3,1.4-0.2,1.9s-1.2,0.6-2,0.6c-0.5,0-1-0.1-1.5-0.3s-1-0.5-1.4-1c-0.2-0.2-0.4-0.3-0.4-0.4c0-0.1,0-0.2-0.1-0.4
			c-0.2-0.5-0.6-1.1-1.2-1.8s-1.5-1-2.7-0.9c-0.7,0-1.5,0.5-2.3,1.4s-1.6,2.2-2.4,3.9c-0.7,1.7-1.4,3.7-2,6.1s-1,5.1-1.2,8.1
			c0,0.3,0,0.7,0,1.2s0,0.8,0,1.1c0,2.8,0.2,5,0.6,6.4c0.4,1.5,0.9,2.5,1.5,3.2c0.6,0.6,1.2,1,1.7,1c0.6,0,1,0.1,1.3,0.1
			c0.6,0,1.2-0.3,1.8-0.9c0.6-0.6,1.2-1.3,1.8-2.1c0.6-0.8,1.1-1.8,1.5-2.7c0.5-1,0.9-1.9,1.3-2.7c0-1.8,0-3.6,0.1-5.4
			s0.2-3.4,0.4-4.9c0.1-1.5,0.3-2.8,0.4-3.9C455.7,68.2,455.8,67.4,455.9,67z"/>
		
			<linearGradient id="SVGID_12_" gradientUnits="userSpaceOnUse" x1="235.543" y1="302.3986" x2="526.1242" y2="592.9732" gradientTransform="matrix(1 0 0 1 0 -490)">
			<stop  offset="0" style="stop-color:#F7931E"/>
			<stop  offset="6.000000e-02" style="stop-color:#F68A1F"/>
			<stop  offset="0.17" style="stop-color:#F37022"/>
			<stop  offset="0.25" style="stop-color:#F15A24"/>
			<stop  offset="0.5" style="stop-color:#D4145A"/>
			<stop  offset="0.76" style="stop-color:#93278F"/>
			<stop  offset="1" style="stop-color:#005B97"/>
		</linearGradient>
		<path class="st13" d="M481.3,31.8c1-1,2-1.8,3.1-2.2c1.1-0.5,2.3-0.7,3.4-0.7s2.1,0.2,3.1,0.6c1,0.4,1.9,1,2.7,1.7
			c0.8,0.7,1.4,1.6,1.9,2.6s0.7,2.1,0.7,3.3c0,5.3-0.6,10.2-1.6,14.7s-2.2,8.6-3.7,12.2s-3,6.8-4.6,9.5s-3,4.9-4.2,6.6
			c0.2,2.4,0.5,4.5,0.8,6.2c0.4,1.7,0.7,3.1,1.1,4.1c0.4,1.1,0.7,1.8,1,2.3s0.5,0.7,0.6,0.7c0.7-0.1,1.5-0.8,2.6-2.1
			s2.2-2.8,3.4-4.5c1.2-1.8,2.4-3.7,3.6-5.7s2.3-4,3.3-5.8c1-1.8,1.8-3.3,2.4-4.6c0.6-1.2,1-2,1-2.2c0-0.4,0.3-0.7,0.7-0.9
			c0.4-0.2,0.9-0.4,1.4-0.4s1,0.1,1.4,0.4c0.5,0.2,0.8,0.6,1,1.2c0,0.7-0.4,1.7-1,3.2s-1.4,3.1-2.3,4.9c-0.9,1.8-2,3.7-3.1,5.7
			s-2.2,3.8-3.2,5.5s-2,3.2-2.8,4.4c-0.8,1.2-1.4,2-1.7,2.4c-1,1-2.1,1.7-3.4,2.2c-1.2,0.5-2.5,0.8-3.8,0.8c-1.1,0-2.1-0.2-3.1-0.6
			s-1.8-0.9-2.5-1.7c-1.3-1.5-2.4-3.2-3.4-5.1s-1.7-4-2.3-6.3c-0.6-2.2-1.1-4.6-1.4-7s-0.5-4.9-0.5-7.4c0-4.1,0.3-8.3,0.9-12.4
			s1.4-7.9,2.3-11.4c0.9-3.5,1.9-6.5,3-9.1C479.3,34.6,480.3,32.8,481.3,31.8z M481.8,74.8c1.3-2.5,2.4-5.1,3.3-7.8s1.6-5.3,2.2-7.8
			c0.6-2.6,1.1-5,1.4-7.4s0.6-4.5,0.8-6.5c0.2-1.9,0.3-3.6,0.3-5s0.1-2.5,0.1-3.1v-0.6c0-2.8-0.3-4.2-0.9-4.2
			c-0.4,0-0.8,0.4-1.3,1.3s-0.9,2.1-1.3,3.6c-0.8,3.5-1.4,6.9-2,10.3c-0.6,3.3-1.1,6.5-1.5,9.5s-0.7,5.8-0.9,8.5
			c-0.2,2.6-0.3,4.9-0.3,6.9L481.8,74.8L481.8,74.8z"/>
		
			<linearGradient id="SVGID_13_" gradientUnits="userSpaceOnUse" x1="243.4224" y1="294.519" x2="534.0036" y2="585.0936" gradientTransform="matrix(1 0 0 1 0 -490)">
			<stop  offset="0" style="stop-color:#F7931E"/>
			<stop  offset="6.000000e-02" style="stop-color:#F68A1F"/>
			<stop  offset="0.17" style="stop-color:#F37022"/>
			<stop  offset="0.25" style="stop-color:#F15A24"/>
			<stop  offset="0.5" style="stop-color:#D4145A"/>
			<stop  offset="0.76" style="stop-color:#93278F"/>
			<stop  offset="1" style="stop-color:#005B97"/>
		</linearGradient>
		<path class="st14" d="M517.4,67c0-0.2,0-0.3,0.1-0.4c0-0.2,0.2-0.5,0.5-0.8c0.3-0.3,0.7-0.6,1.2-0.9c0.5-0.3,1-0.5,1.5-0.6
			c0.6-0.2,1.2-0.3,1.7-0.3c0.8,0,1.5,0.2,2.1,0.5c0.6,0.4,1,1,1.1,1.9c0.2,1,0.3,2.3,0.3,3.9c0,1.7-0.1,3.6-0.3,5.7
			c-0.2,2-0.4,4.1-0.6,6.2c-0.2,2-0.4,3.9-0.5,5.8c-0.2,1.8-0.3,3.5-0.3,5s0.1,2.8,0.4,3.8s0.6,1.4,1.2,1.3c0.4,0,0.9-0.6,1.5-1.5
			c0.6-1,1.2-2.2,1.9-3.7s1.4-3.2,2.1-5.1c0.7-1.9,1.4-3.7,2-5.6s1.2-3.6,1.8-5.3c0.6-1.7,1-3.1,1.4-4.2l0.7-2.4
			c0.1-0.3,0.5-0.6,1-0.6c0.5-0.1,1.1-0.1,1.7,0c0.6,0.1,1.1,0.3,1.4,0.5c0.4,0.2,0.5,0.5,0.4,0.8v-0.1l-0.6,2
			c-0.3,1.3-0.7,2.9-1.2,4.9c-0.5,1.9-1.2,4-1.9,6.2c-0.8,2.2-1.6,4.4-2.6,6.6s-2,4.2-3.2,5.9c-1.2,1.8-2.5,3.2-3.9,4.2
			c-1.4,1.1-2.9,1.6-4.5,1.5c-1.1-0.1-2-0.6-2.8-1.2c-0.8-0.7-1.5-1.5-2.1-2.5s-1.1-2.2-1.5-3.5s-0.7-2.7-0.9-4.2
			c-0.7,1.2-1.6,2.4-2.7,3.4c-1.2,1-2.6,1.7-4.3,1.9c-3.3,0.2-5.9-0.3-7.8-1.5s-3.3-2.7-4.2-4.5c-0.9-1.8-1.5-3.7-1.8-5.7
			c-0.2-2-0.4-3.7-0.4-5.1c0-1,0.1-2.2,0.2-3.7s0.4-3.1,0.8-4.9c0.4-1.7,1-3.5,1.8-5.2c0.7-1.8,1.7-3.3,3-4.8
			c1.2-1.4,2.7-2.6,4.5-3.6c1.8-0.9,3.9-1.5,6.3-1.5c1.9,0,3.5,0.1,4.7,0.5c1.2,0.4,2.2,0.9,2.9,1.4c0.7,0.6,1.2,1.2,1.6,1.8
			c0.3,0.6,0.6,1.2,0.7,1.7l0.2,0.7v-0.1c0.4,0.8,0.3,1.4-0.2,1.9s-1.2,0.6-2,0.6c-0.5,0-1-0.1-1.5-0.3s-1-0.5-1.4-1
			c-0.2-0.2-0.4-0.3-0.4-0.4c0-0.1,0-0.2-0.1-0.4c-0.2-0.5-0.6-1.1-1.2-1.8c-0.6-0.7-1.5-1-2.7-0.9c-0.7,0-1.5,0.5-2.3,1.4
			s-1.6,2.2-2.4,3.9c-0.7,1.7-1.4,3.7-2,6.1s-1,5.1-1.2,8.1c0,0.3,0,0.7,0,1.2s0,0.8,0,1.1c0,2.8,0.2,5,0.6,6.4
			c0.4,1.5,0.9,2.5,1.5,3.2c0.6,0.6,1.2,1,1.7,1c0.6,0,1,0.1,1.3,0.1c0.6,0,1.2-0.3,1.8-0.9c0.6-0.6,1.2-1.3,1.8-2.1
			c0.6-0.8,1.1-1.8,1.5-2.7c0.5-1,0.9-1.9,1.3-2.7c0-1.8,0-3.6,0.1-5.4s0.2-3.4,0.4-4.9c0.1-1.5,0.3-2.8,0.4-3.9
			C517.2,68.2,517.3,67.4,517.4,67z"/>
	</g>
</g>
</svg>
