<?xml version="1.0" encoding="utf-8"?>
<!-- Generator: Adobe Illustrator 24.0.0, SVG Export Plug-In . SVG Version: 6.00 Build 0)  -->
<svg version="1.1" id="Layer_1" xmlns="http://www.w3.org/2000/svg" xmlns:xlink="http://www.w3.org/1999/xlink" x="0px" y="0px"
	 viewBox="0 0 477.1 150" style="enable-background:new 0 0 477.1 150;" xml:space="preserve">
<style type="text/css">
	.st0{fill:#CC0000;}
	.st1{fill:url(#SVGID_1_);}
	.st2{fill:url(#SVGID_2_);}
	.st3{fill:url(#SVGID_3_);}
	.st4{fill:url(#SVGID_4_);}
	.st5{fill:url(#SVGID_5_);}
	.st6{fill:url(#SVGID_6_);}
	.st7{fill:url(#SVGID_7_);}
	.st8{fill:url(#SVGID_8_);}
	.st9{fill:url(#SVGID_9_);}
	.st10{fill:url(#SVGID_10_);}
	.st11{fill:url(#SVGID_11_);}
	.st12{fill:url(#SVGID_12_);}
	.st13{fill:url(#SVGID_13_);}
	.st14{fill:url(#SVGID_14_);}
	.st15{fill:url(#SVGID_15_);}
	.st16{fill:url(#SVGID_16_);}
	.st17{fill:url(#SVGID_17_);}
	.st18{fill:url(#SVGID_18_);}
	.st19{fill:url(#SVGID_19_);}
	.st20{fill:url(#SVGID_20_);}
	.st21{fill:url(#SVGID_21_);}
	.st22{fill:url(#SVGID_22_);}
	.st23{fill:url(#SVGID_23_);}
	.st24{fill:url(#SVGID_24_);}
	.st25{fill:url(#SVGID_25_);}
	.st26{fill:url(#SVGID_26_);}
</style>
<title>Header</title>
<g>
	<path class="st0" d="M22.1,116.9v9.7c0,0.9,0.1,1.7,0.3,2.3s0.5,1.2,0.9,1.6s0.9,0.7,1.5,0.9s1.2,0.3,1.9,0.3s1.4-0.1,2-0.3
		s1.1-0.5,1.5-0.9s0.7-0.9,0.9-1.6c0.2-0.6,0.3-1.4,0.3-2.3V117h1.5v10c0,0.8-0.1,1.6-0.3,2.3s-0.6,1.4-1.1,1.9s-1.1,1-1.9,1.3
		s-1.7,0.5-2.8,0.5s-2-0.2-2.8-0.5s-1.4-0.7-1.9-1.3c-0.5-0.5-0.9-1.2-1.1-1.9s-0.3-1.5-0.3-2.3v-10C20.7,117,22.1,117,22.1,116.9z"
		/>
	<path class="st0" d="M42.9,129.4c0.3,0.5,0.6,1,1.1,1.3s1,0.6,1.6,0.7c0.6,0.1,1.3,0.2,2,0.2c0.4,0,0.9-0.1,1.3-0.2
		c0.5-0.1,0.9-0.3,1.4-0.6s0.8-0.6,1-1s0.4-0.9,0.4-1.5c0-0.4-0.1-0.8-0.3-1.1s-0.5-0.6-0.8-0.8s-0.7-0.4-1-0.5s-0.8-0.3-1.1-0.3
		l-3.5-0.9c-0.5-0.1-0.9-0.3-1.3-0.4c-0.4-0.2-0.8-0.4-1.1-0.7s-0.6-0.7-0.8-1.1s-0.3-0.9-0.3-1.6c0-0.4,0.1-0.8,0.2-1.3
		s0.4-1,0.8-1.5s1-0.8,1.7-1.2c0.7-0.3,1.6-0.5,2.7-0.5c0.8,0,1.5,0.1,2.2,0.3c0.7,0.2,1.3,0.5,1.8,0.9s0.9,0.9,1.3,1.5
		c0.3,0.6,0.5,1.3,0.5,2.1h-1.5c0-0.6-0.2-1.1-0.4-1.6c-0.2-0.4-0.6-0.8-0.9-1.1c-0.3-0.3-0.8-0.5-1.3-0.7s-1-0.2-1.6-0.2
		c-0.5,0-1,0.1-1.5,0.2s-0.9,0.3-1.3,0.5s-0.6,0.6-0.9,1c-0.2,0.4-0.3,0.9-0.3,1.5c0,0.4,0.1,0.7,0.2,1c0.1,0.3,0.3,0.5,0.5,0.7
		s0.5,0.3,0.8,0.5c0.3,0.1,0.6,0.2,0.9,0.3l3.8,0.9c0.6,0.1,1.1,0.3,1.6,0.5s0.9,0.5,1.3,0.8s0.7,0.7,0.9,1.2s0.3,1,0.3,1.6
		c0,0.2,0,0.4-0.1,0.7c0,0.3-0.1,0.6-0.3,0.9c-0.1,0.3-0.3,0.7-0.6,1s-0.6,0.6-1.1,0.9c-0.4,0.3-1,0.5-1.7,0.7s-1.5,0.3-2.4,0.3
		s-1.8-0.1-2.6-0.3s-1.5-0.5-2-1c-0.6-0.4-1-1-1.3-1.7s-0.4-1.5-0.4-2.5h1.5C42.5,128.2,42.6,128.9,42.9,129.4z"/>
	<path class="st0" d="M72.5,116.9v1.3h-9.4v5.7h8.8v1.3h-8.8v6.2h9.5v1.3h-11V117C61.6,117,72.5,117,72.5,116.9z"/>
	<path class="st0" d="M87.9,116.9c0.6,0,1.3,0.1,1.8,0.2c0.6,0.2,1.1,0.4,1.5,0.7c0.4,0.3,0.8,0.8,1,1.3c0.3,0.5,0.4,1.1,0.4,1.8
		c0,1-0.3,1.9-0.8,2.6s-1.3,1.2-2.3,1.4l0,0c0.5,0.1,0.9,0.2,1.3,0.4s0.6,0.5,0.8,0.8s0.4,0.7,0.5,1.1s0.2,0.8,0.2,1.3
		c0,0.3,0,0.6,0,1s0,0.8,0.1,1.2c0,0.4,0.1,0.8,0.2,1.1s0.2,0.6,0.4,0.8h-1.7c-0.1-0.1-0.2-0.3-0.2-0.5c-0.1-0.2-0.1-0.4-0.1-0.7
		c0-0.2,0-0.5-0.1-0.7s0-0.4,0-0.6c0-0.6-0.1-1.1-0.1-1.7c-0.1-0.6-0.2-1-0.4-1.5s-0.5-0.8-0.9-1s-1-0.4-1.7-0.4h-5.7v7h-1.5V117
		L87.9,116.9L87.9,116.9z M87.8,124.4c0.5,0,0.9-0.1,1.3-0.2s0.8-0.3,1.1-0.6s0.6-0.6,0.7-1c0.2-0.4,0.3-0.8,0.3-1.3
		c0-1-0.3-1.7-0.8-2.3c-0.6-0.6-1.4-0.8-2.6-0.8h-5.6v6.2C82.2,124.4,87.8,124.4,87.8,124.4z"/>
	<path class="st0" d="M124.3,116.9v1.3h-9.4v5.7h8.8v1.3h-8.8v6.2h9.5v1.3h-11V117C113.4,117,124.3,117,124.3,116.9z"/>
	<path class="st0" d="M132.7,116.9l4.4,6.6l4.6-6.6h1.7l-5.4,7.7l5.7,8.1h-1.8l-4.8-6.9l-4.8,6.9h-1.7l5.6-8.1l-5.3-7.6L132.7,116.9
		L132.7,116.9z"/>
	<path class="st0" d="M158.1,116.9c0.7,0,1.3,0.1,1.9,0.3s1.1,0.5,1.5,0.9s0.7,0.9,0.9,1.4c0.2,0.6,0.3,1.2,0.3,1.9
		c0,0.7-0.1,1.3-0.3,1.9s-0.5,1-0.9,1.4s-0.9,0.7-1.5,0.9s-1.2,0.3-1.9,0.3h-5.5v6.7h-1.5v-15.7L158.1,116.9L158.1,116.9z
		 M157.7,124.7c1,0,1.9-0.3,2.5-0.8s1-1.3,1-2.4s-0.3-1.9-1-2.4c-0.6-0.5-1.5-0.8-2.5-0.8h-5.1v6.4
		C152.6,124.7,157.7,124.7,157.7,124.7z"/>
	<path class="st0" d="M181.8,116.9v1.3h-9.4v5.7h8.8v1.3h-8.8v6.2h9.5v1.3h-11V117C170.9,117,181.8,117,181.8,116.9z"/>
	<path class="st0" d="M197.1,116.9c0.6,0,1.3,0.1,1.8,0.2c0.6,0.2,1.1,0.4,1.5,0.7c0.4,0.3,0.8,0.8,1,1.3c0.3,0.5,0.4,1.1,0.4,1.8
		c0,1-0.3,1.9-0.8,2.6s-1.3,1.2-2.3,1.4l0,0c0.5,0.1,0.9,0.2,1.3,0.4c0.4,0.2,0.6,0.5,0.8,0.8s0.4,0.7,0.5,1.1s0.2,0.8,0.2,1.3
		c0,0.3,0,0.6,0,1s0,0.8,0.1,1.2c0,0.4,0.1,0.8,0.2,1.1c0.1,0.3,0.2,0.6,0.4,0.8h-1.7c-0.1-0.1-0.2-0.3-0.2-0.5
		c-0.1-0.2-0.1-0.4-0.1-0.7c0-0.2,0-0.5-0.1-0.7s0-0.4,0-0.6c0-0.6-0.1-1.1-0.1-1.7c-0.1-0.6-0.2-1-0.4-1.5s-0.5-0.8-0.9-1
		s-1-0.4-1.7-0.4h-5.7v7h-1.5V117L197.1,116.9L197.1,116.9z M197,124.4c0.5,0,0.9-0.1,1.3-0.2c0.4-0.1,0.8-0.3,1.1-0.6
		c0.3-0.3,0.6-0.6,0.7-1c0.2-0.4,0.3-0.8,0.3-1.3c0-1-0.3-1.7-0.8-2.3c-0.6-0.6-1.4-0.8-2.6-0.8h-5.6v6.2
		C191.4,124.4,197,124.4,197,124.4z"/>
	<path class="st0" d="M212.2,116.9v15.7h-1.5V117C210.7,117,212.2,117,212.2,116.9z"/>
	<path class="st0" d="M232.3,116.9v1.3h-9.4v5.7h8.8v1.3h-8.8v6.2h9.5v1.3h-11V117C221.4,117,232.3,117,232.3,116.9z"/>
	<path class="st0" d="M242.2,116.9l9.2,13.3l0,0v-13.3h1.5v15.7h-1.7l-9.2-13.3l0,0v13.3h-1.5v-15.7
		C240.5,116.9,242.2,116.9,242.2,116.9z"/>
	<path class="st0" d="M272.8,120.1c-0.3-0.5-0.7-0.9-1.1-1.2c-0.4-0.3-0.9-0.6-1.4-0.7c-0.5-0.2-1.1-0.3-1.6-0.3
		c-1,0-1.9,0.2-2.7,0.6c-0.7,0.4-1.4,0.9-1.8,1.6s-0.8,1.4-1.1,2.2c-0.3,0.8-0.3,1.7-0.3,2.5c0,0.9,0.1,1.7,0.3,2.5
		c0.2,0.8,0.6,1.6,1.1,2.2c0.5,0.7,1.1,1.2,1.8,1.6c0.7,0.4,1.6,0.6,2.7,0.6c0.7,0,1.4-0.1,2-0.4c0.6-0.3,1.1-0.6,1.5-1.1
		s0.8-1,1-1.6s0.4-1.3,0.5-2h1.5c-0.1,1-0.3,1.8-0.7,2.6c-0.4,0.8-0.8,1.4-1.4,2s-1.2,1-2,1.3s-1.6,0.4-2.5,0.4
		c-1.2,0-2.3-0.2-3.2-0.7s-1.7-1-2.3-1.8c-0.6-0.7-1.1-1.6-1.4-2.6s-0.5-2-0.5-3.1s0.2-2.1,0.5-3.1s0.8-1.9,1.4-2.6
		c0.6-0.8,1.4-1.4,2.3-1.8s2-0.7,3.2-0.7c0.7,0,1.5,0.1,2.2,0.3c0.7,0.2,1.4,0.5,1.9,1s1.1,1,1.5,1.6s0.6,1.4,0.7,2.2h-1.5
		C273.3,121.1,273.1,120.6,272.8,120.1z"/>
	<path class="st0" d="M294.3,116.9v1.3h-9.4v5.7h8.8v1.3h-8.8v6.2h9.5v1.3h-11V117C283.4,117,294.3,117,294.3,116.9z"/>
	<path class="st0" d="M320,116.9c2.4,0.1,4.2,0.7,5.4,2c1.2,1.3,1.8,3.2,1.8,5.8s-0.6,4.6-1.8,5.8s-3,2-5.4,2h-5.4v-15.6H320z
		 M319.3,131.4c1.1,0,2.1-0.1,2.9-0.4c0.8-0.2,1.5-0.6,2-1.2s0.9-1.2,1.2-2c0.2-0.8,0.4-1.8,0.4-3s-0.1-2.2-0.4-3
		c-0.2-0.8-0.6-1.5-1.2-2s-1.2-0.9-2-1.2c-0.8-0.2-1.8-0.4-2.9-0.4h-3.2v13.2L319.3,131.4L319.3,131.4z"/>
	<path class="st0" d="M346.5,116.9v1.3h-9.4v5.7h8.8v1.3h-8.8v6.2h9.5v1.3h-11V117C335.6,117,346.5,117,346.5,116.9z"/>
	<path class="st0" d="M355.7,129.4c0.3,0.5,0.6,1,1.1,1.3s1,0.6,1.6,0.7c0.6,0.1,1.3,0.2,2,0.2c0.4,0,0.9-0.1,1.3-0.2
		s0.9-0.3,1.4-0.6s0.8-0.6,1-1c0.3-0.4,0.4-0.9,0.4-1.5c0-0.4-0.1-0.8-0.3-1.1c-0.2-0.3-0.5-0.6-0.8-0.8s-0.7-0.4-1-0.5
		c-0.4-0.1-0.8-0.3-1.1-0.3l-3.5-0.9c-0.5-0.1-0.9-0.3-1.3-0.4c-0.4-0.2-0.8-0.4-1.1-0.7c-0.3-0.3-0.6-0.7-0.8-1.1
		c-0.2-0.4-0.3-0.9-0.3-1.6c0-0.4,0.1-0.8,0.2-1.3s0.4-1,0.8-1.5s1-0.8,1.7-1.2c0.7-0.3,1.6-0.5,2.7-0.5c0.8,0,1.5,0.1,2.2,0.3
		c0.7,0.2,1.3,0.5,1.8,0.9s1,0.9,1.3,1.5s0.5,1.3,0.5,2.1H364c0-0.6-0.2-1.1-0.4-1.6c-0.2-0.4-0.6-0.8-0.9-1.1
		c-0.3-0.3-0.8-0.5-1.3-0.7s-1-0.2-1.6-0.2c-0.5,0-1,0.1-1.5,0.2s-0.9,0.3-1.3,0.5s-0.6,0.6-0.9,1c-0.2,0.4-0.3,0.9-0.3,1.5
		c0,0.4,0.1,0.7,0.2,1s0.3,0.5,0.5,0.7s0.5,0.3,0.8,0.5c0.3,0.1,0.6,0.2,0.9,0.3l3.8,0.9c0.6,0.1,1.1,0.3,1.6,0.5s0.9,0.5,1.3,0.8
		s0.7,0.7,0.9,1.2c0.2,0.5,0.3,1,0.3,1.6c0,0.2,0,0.4-0.1,0.7c0,0.3-0.1,0.6-0.3,0.9c-0.1,0.3-0.3,0.7-0.6,1
		c-0.3,0.3-0.6,0.6-1.1,0.9c-0.4,0.3-1,0.5-1.7,0.7s-1.5,0.3-2.4,0.3s-1.8-0.1-2.6-0.3c-0.8-0.2-1.5-0.5-2-1c-0.6-0.4-1-1-1.3-1.7
		s-0.4-1.5-0.4-2.5h1.5C355.4,128.2,355.5,128.9,355.7,129.4z"/>
	<path class="st0" d="M376.1,116.9v15.7h-1.5V117C374.6,117,376.1,117,376.1,116.9z"/>
	<path class="st0" d="M397.7,132.7l-0.2-2.9l0,0c-0.3,0.6-0.6,1-1,1.4s-0.8,0.7-1.3,1s-1,0.4-1.5,0.6s-1.1,0.2-1.7,0.2
		c-1.2,0-2.3-0.2-3.2-0.7s-1.7-1-2.3-1.8c-0.6-0.7-1.1-1.6-1.4-2.6s-0.5-2-0.5-3.1s0.2-2.1,0.5-3.1s0.8-1.9,1.4-2.6
		c0.6-0.8,1.4-1.4,2.3-1.8s2-0.7,3.2-0.7c0.8,0,1.6,0.1,2.3,0.3c0.7,0.2,1.4,0.5,2,1c0.6,0.4,1.1,1,1.5,1.6s0.7,1.4,0.8,2.3h-1.5
		c0-0.5-0.2-0.9-0.5-1.4s-0.6-0.9-1-1.3s-1-0.7-1.6-0.9c-0.6-0.2-1.3-0.4-2-0.4c-1,0-1.9,0.2-2.7,0.6c-0.7,0.4-1.4,0.9-1.8,1.6
		s-0.8,1.4-1.1,2.2c-0.3,0.8-0.3,1.7-0.3,2.5c0,0.9,0.1,1.7,0.3,2.5c0.2,0.8,0.6,1.6,1.1,2.2c0.5,0.7,1.1,1.2,1.8,1.6
		c0.7,0.4,1.6,0.6,2.7,0.6c0.9,0,1.6-0.1,2.3-0.4s1.3-0.7,1.7-1.2c0.5-0.5,0.8-1.1,1.1-1.8c0.2-0.7,0.3-1.5,0.3-2.3h-5.3v-1.3h6.7v8
		L397.7,132.7L397.7,132.7z"/>
	<path class="st0" d="M409.3,116.9l9.2,13.3l0,0v-13.3h1.5v15.7h-1.7l-9.2-13.3l0,0v13.3h-1.5v-15.7
		C407.6,116.9,409.3,116.9,409.3,116.9z"/>
	<path class="st0" d="M440,116.9v1.3h-9.4v5.7h8.8v1.3h-8.8v6.2h9.5v1.3h-11V117C429.1,117,440,117,440,116.9z"/>
	<path class="st0" d="M455.4,116.9c0.6,0,1.3,0.1,1.8,0.2c0.6,0.2,1.1,0.4,1.5,0.7c0.4,0.3,0.8,0.8,1,1.3c0.3,0.5,0.4,1.1,0.4,1.8
		c0,1-0.3,1.9-0.8,2.6s-1.3,1.2-2.3,1.4l0,0c0.5,0.1,0.9,0.2,1.3,0.4c0.3,0.2,0.6,0.5,0.8,0.8c0.2,0.3,0.4,0.7,0.5,1.1
		s0.2,0.8,0.2,1.3c0,0.3,0,0.6,0,1s0,0.8,0.1,1.2c0,0.4,0.1,0.8,0.2,1.1s0.2,0.6,0.4,0.8h-1.7c-0.1-0.1-0.2-0.3-0.2-0.5
		c-0.1-0.2-0.1-0.4-0.1-0.7c0-0.2,0-0.5-0.1-0.7s0-0.4,0-0.6c0-0.6-0.1-1.1-0.1-1.7c-0.1-0.6-0.2-1-0.4-1.5c-0.2-0.4-0.5-0.8-0.9-1
		s-1-0.4-1.7-0.4h-5.7v7h-1.5V117L455.4,116.9L455.4,116.9z M455.2,124.4c0.5,0,0.9-0.1,1.3-0.2s0.8-0.3,1.1-0.6
		c0.3-0.3,0.6-0.6,0.7-1c0.2-0.4,0.3-0.8,0.3-1.3c0-1-0.3-1.7-0.8-2.3s-1.4-0.8-2.6-0.8h-5.6v6.2
		C449.6,124.4,455.2,124.4,455.2,124.4z"/>
</g>
<g>
	<g>
		<g>
			
				<linearGradient id="SVGID_1_" gradientUnits="userSpaceOnUse" x1="30.3" y1="92.5625" x2="74.2" y2="92.5625" gradientTransform="matrix(1 0 0 -1 0 152)">
				<stop  offset="0" style="stop-color:#000000"/>
				<stop  offset="1" style="stop-color:#CC0000"/>
			</linearGradient>
			<path class="st1" d="M51.4,28.7c3-0.1,5.7,0.1,7.9,0.6s4.2,1.2,5.8,2.1c1.6,0.9,3,2,4.1,3.2s2,2.5,2.6,3.8c0.7,1.3,1.2,2.7,1.5,4
				s0.6,2.6,0.7,3.7c0.1,1.1,0.2,2.1,0.2,3c0,0.8,0,1.4,0,1.8c0,2.7-0.4,5-1.2,7.2c-0.8,2.1-1.9,4-3.2,5.5c-1.3,1.6-2.9,2.9-4.6,4.1
				c-1.7,1.1-3.6,2.1-5.4,2.8c-1.9,0.8-3.7,1.3-5.6,1.8c-1.9,0.4-3.6,0.7-5.2,0.9c0,1.9,0,3.8,0,5.5s0,3.3-0.1,4.6
				c0,1.3-0.1,2.4-0.1,3.3s-0.1,1.4-0.2,1.6c-0.3,0.6-0.9,1.1-1.8,1.5C45.9,90,45,90.2,44,90.2c-1.1,0-2-0.2-2.8-0.6s-1.1-1-0.9-1.8
				c0.4-1.8,0.7-4,1-6.6s0.5-5.3,0.7-8.2c-1.6-0.4-3.1-0.9-4.5-1.5c-1.4-0.7-2.6-1.4-3.7-2.3c-1.1-0.9-1.9-1.9-2.5-3.1
				c-0.6-1.1-0.9-2.3-1-3.6c0.1-1.6,0.5-3,1.3-4.3s1.8-2.4,3-3.4s2.5-1.8,4-2.4c1.5-0.6,2.9-1.1,4.3-1.5c0.2-3.1,0.4-5.9,0.6-8.4
				c0.3-2.5,0.6-4.3,1.1-5.6c0.3-0.8,0.8-1.3,1.6-1.7s1.6-0.5,2.4-0.5c0.8,0,1.5,0.2,2,0.5s0.6,0.8,0.2,1.5
				c-0.2,0.5-0.4,1.3-0.6,2.2c-0.2,0.9-0.3,2-0.5,3.2c-0.1,1.2-0.3,2.5-0.4,4c-0.1,1.5-0.2,3-0.2,4.6c1.7,0.2,3.2,0.6,4.3,1.1
				c1.2,0.5,2.1,1.1,2.7,1.7c0.7,0.6,1.1,1.2,1.3,1.9c0.2,0.6,0.3,1.2,0.3,1.6c-0.1,0.6-0.3,1-0.8,1.4c-0.5,0.3-0.9,0.6-1.4,0.8
				s-1,0.2-1.4,0.2s-0.6-0.1-0.7-0.4c0-0.2,0.1-0.4,0.1-0.6s0-0.4,0-0.6c0-1-0.4-2-1.1-2.8c-0.7-0.8-1.9-1.3-3.5-1.5
				c-0.1,2.8-0.1,5.7-0.1,8.6s0,5.8,0,8.6c3-0.4,5.4-1,7.5-1.9c2-0.8,3.7-1.8,5.1-2.9c1.3-1.1,2.4-2.3,3.2-3.5
				c0.8-1.2,1.3-2.4,1.7-3.6s0.6-2.2,0.6-3.1S67,54,67,53.5V53c0.1-3.2-0.1-5.9-0.6-8.2s-1.2-4.2-2.1-5.8s-1.9-2.8-3-3.8
				S59,33.5,57.8,33s-2.3-0.8-3.4-0.9c-1.1-0.1-2.1-0.2-2.9-0.1c-2.6,0.3-4.8,0.8-6.6,1.5s-3.2,1.5-4.3,2.3s-2,1.6-2.5,2.4
				c-0.6,0.8-1,1.4-1.2,1.8c-0.1,0.1-0.1,0.2-0.2,0.3c-0.1,0.1-0.1,0.2-0.2,0.3c-0.1,0.1-0.1,0.2-0.2,0.2h0.1
				c-0.2,0.1-0.5,0.2-0.8,0.3s-0.7,0.2-1.1,0.1c-0.4,0-0.7-0.1-1-0.3s-0.5-0.5-0.6-1c0-0.2,0.1-0.6,0.4-1.2s0.7-1.3,1.3-2
				c0.6-0.8,1.4-1.5,2.4-2.4c1-0.8,2.1-1.6,3.5-2.3s3-1.3,4.8-1.8C47.2,29.1,49.2,28.8,51.4,28.7z M42.8,53.4
				c-1.7,0.4-3.1,1-4.1,1.7c-1,0.8-1.8,1.6-2.3,2.4c-0.5,0.8-0.9,1.7-1.1,2.5c-0.2,0.8-0.3,1.5-0.4,2c-0.1,1,0,2,0.5,2.8
				c0.4,0.8,1,1.6,1.7,2.2s1.5,1.2,2.4,1.6s1.8,0.8,2.6,1c0.1-1.6,0.1-3.2,0.2-4.8c0.1-1.6,0.1-3.2,0.2-4.7L42.8,53.4z"/>
			
				<linearGradient id="SVGID_2_" gradientUnits="userSpaceOnUse" x1="74.8" y1="81.45" x2="109.6375" y2="81.45" gradientTransform="matrix(1 0 0 -1 0 152)">
				<stop  offset="0" style="stop-color:#000000"/>
				<stop  offset="1" style="stop-color:#CC0000"/>
			</linearGradient>
			<path class="st2" d="M91.3,61.7c0-0.1,0-0.2,0.1-0.3c0-0.2,0.2-0.4,0.4-0.6c0.2-0.2,0.5-0.5,0.9-0.6c0.3-0.2,0.7-0.4,1.2-0.5
				c0.4-0.1,0.9-0.2,1.3-0.2c0.6,0,1.1,0.1,1.5,0.4s0.7,0.7,0.8,1.4c0.1,0.7,0.2,1.7,0.2,2.9c0,1.3-0.1,2.7-0.2,4.2
				s-0.3,3.1-0.5,4.7c-0.1,1.5-0.3,3-0.4,4.3c-0.1,1.4-0.2,2.6-0.2,3.8c0,1.2,0.1,2.1,0.3,2.8c0.2,0.7,0.5,1.1,0.9,1
				c0.3,0,0.7-0.4,1.2-1.2c0.4-0.7,0.9-1.7,1.4-2.8c0.5-1.1,1-2.4,1.5-3.8s1-2.8,1.5-4.2c0.5-1.4,0.9-2.7,1.4-4
				c0.4-1.3,0.8-2.3,1.1-3.1l0.5-1.8c0.1-0.3,0.4-0.4,0.8-0.5s0.8-0.1,1.2,0c0.4,0.1,0.8,0.2,1.1,0.4c0.3,0.2,0.4,0.4,0.3,0.6v-0.1
				l-0.4,1.5c-0.2,1-0.5,2.2-0.9,3.6c-0.4,1.5-0.9,3-1.5,4.6s-1.2,3.3-1.9,4.9c-0.7,1.7-1.5,3.1-2.4,4.5c-0.9,1.3-1.9,2.4-2.9,3.2
				c-1.1,0.8-2.2,1.2-3.4,1.2c-0.8-0.1-1.5-0.4-2.1-0.9S93,86,92.6,85.2s-0.8-1.6-1.1-2.6c-0.3-1-0.5-2-0.7-3.2
				c-0.5,0.9-1.2,1.8-2.1,2.6c-0.9,0.8-1.9,1.3-3.2,1.4c-2.5,0.1-4.4-0.2-5.9-1.1c-1.4-0.9-2.5-2-3.2-3.3s-1.1-2.7-1.3-4.2
				c-0.2-1.5-0.3-2.8-0.3-3.9c0-0.7,0-1.6,0.1-2.8c0.1-1.1,0.3-2.3,0.6-3.6c0.3-1.3,0.8-2.6,1.3-3.9c0.6-1.3,1.3-2.5,2.2-3.6
				s2-2,3.4-2.7c1.3-0.7,2.9-1.1,4.7-1.2c1.4,0,2.6,0.1,3.5,0.4c0.9,0.3,1.6,0.6,2.2,1.1c0.5,0.4,0.9,0.9,1.2,1.4
				c0.3,0.5,0.4,0.9,0.5,1.2l0.2,0.5v-0.1c0.3,0.6,0.2,1.1-0.1,1.4c-0.4,0.3-0.9,0.5-1.5,0.5c-0.4,0-0.7-0.1-1.1-0.2
				c-0.4-0.2-0.7-0.4-1-0.7c-0.2-0.1-0.3-0.3-0.3-0.3c0-0.1,0-0.2-0.1-0.3c-0.2-0.4-0.5-0.8-0.9-1.4c-0.4-0.5-1.1-0.7-2-0.7
				c-0.5,0-1.1,0.4-1.8,1.1c-0.6,0.7-1.2,1.7-1.8,2.9c-0.6,1.3-1.1,2.8-1.5,4.6c-0.4,1.8-0.7,3.8-0.9,6.1c0,0.2,0,0.5,0,0.9
				s0,0.6,0,0.8c0,2.1,0.2,3.7,0.5,4.8c0.3,1.1,0.7,1.9,1.1,2.4s0.9,0.7,1.3,0.8c0.4,0,0.8,0.1,1,0.1c0.4,0,0.9-0.2,1.4-0.6
				s0.9-1,1.3-1.6s0.8-1.3,1.2-2.1c0.4-0.7,0.7-1.4,1-2c0-1.4,0-2.7,0.1-4s0.2-2.5,0.3-3.6c0.1-1.1,0.2-2.1,0.3-2.9
				C91.2,62.7,91.2,62.1,91.3,61.7z"/>
			
				<linearGradient id="SVGID_3_" gradientUnits="userSpaceOnUse" x1="102.8" y1="72.8" x2="140.9375" y2="72.8" gradientTransform="matrix(1 0 0 -1 0 152)">
				<stop  offset="0" style="stop-color:#000000"/>
				<stop  offset="1" style="stop-color:#CC0000"/>
			</linearGradient>
			<path class="st3" d="M120.7,56.1c0-0.5,0.1-0.9,0.3-1.2c0.2-0.3,0.5-0.6,0.8-0.8s0.7-0.3,1.2-0.4c0.5-0.1,1-0.1,1.5-0.1
				c0.7,0,1.3,0.1,2,0.2c0.6,0.1,1.1,0.3,1.4,0.6v-0.1c0.4,0.3,0.5,1.3,0.5,3c0,1,0,2.1-0.1,3.5c-0.1,1.3-0.2,2.8-0.4,4.4
				c-0.2,1.6-0.4,3.3-0.7,5c-0.3,1.8-0.6,3.6-0.9,5.5c2.4-2.5,4.6-5,6.6-7.4s3.5-4.7,4.5-6.8c0.1-0.2,0.4-0.3,0.8-0.3
				c0.4,0,0.9,0,1.3,0.1c0.4,0.1,0.8,0.3,1.1,0.6s0.4,0.6,0.3,0.9c-0.6,1.5-1.5,3.2-2.7,4.9c-1.2,1.7-2.5,3.4-3.9,5.1
				c-1.5,1.7-3,3.4-4.6,5.1s-3.2,3.3-4.8,4.8c-0.4,1.9-0.9,3.8-1.4,5.6c-0.5,1.8-1,3.5-1.6,5.1s-1.1,3-1.7,4.3s-1.2,2.3-1.9,3.1
				c-1.1,1.4-2.3,2.4-3.5,3.1c-1.2,0.6-2.4,0.9-3.5,0.9c-1.5,0-2.7-0.4-3.6-1.3s-1.4-2-1.4-3.5c0-0.5,0.1-1,0.2-1.6s0.3-1.1,0.6-1.8
				v0.1c0.3-0.6,0.8-1.4,1.5-2.3s1.6-1.9,2.6-3s2.1-2.3,3.4-3.5c1.2-1.2,2.5-2.5,3.8-3.8l0.5-0.5c0.3-2.4,0.6-4.8,0.8-7.2
				c0.2-2.4,0.4-4.7,0.6-6.9c-0.7,1.4-1.5,2.8-2.3,4.3c-0.9,1.5-1.8,2.9-2.8,4.1c-1,1.3-2,2.3-3.1,3.2c-1,0.8-2.1,1.3-3.1,1.4
				c-1.2,0-2.1-0.2-2.9-0.5c-0.8-0.4-1.4-0.9-1.9-1.5s-0.8-1.4-1.1-2.2c-0.2-0.8-0.3-1.8-0.3-2.7c0-1,0.1-2.1,0.2-3.2
				s0.3-2.2,0.4-3.4c0.2-1.1,0.3-2.2,0.5-3.3c0.1-1.1,0.2-2,0.2-2.9c0-1.5-0.2-2.8-0.6-3.6c-0.2-0.4-0.3-0.7-0.1-1
				c0.1-0.3,0.4-0.6,0.8-0.8s0.8-0.4,1.3-0.5s1.1-0.2,1.6-0.2c1,0,1.9,0.2,2.7,0.5c0.8,0.3,1.3,0.8,1.3,1.4c0.1,0.4,0.2,0.9,0.3,1.4
				s0.1,1.1,0.1,1.6c0,1.5-0.2,3.1-0.4,4.9c-0.3,1.7-0.6,3.4-1,5c-0.3,1.3-0.5,2.5-0.7,3.6s-0.3,2.1-0.3,2.8c0,1,0.2,1.6,0.7,1.7
				c0.2-0.1,0.6-0.5,1.2-1.2s1.2-1.7,1.9-2.9c0.7-1.2,1.5-2.5,2.3-3.9c0.8-1.5,1.6-2.9,2.3-4.4c0.8-1.5,1.4-2.9,2-4.3
				c0.6-1.4,1.1-2.6,1.4-3.6c0-0.9,0.1-1.6,0.1-2.1C120.7,56.4,120.7,56.1,120.7,56.1z M112.7,101.9c1.1-0.9,2-2.4,2.8-4.6
				s1.5-4.8,2.1-7.7c-1.1,1.2-2.2,2.3-3.1,3.3c-1,1.1-1.8,2.1-2.4,3.1c-0.7,1-1.2,1.9-1.6,2.8s-0.5,1.7-0.5,2.5c0,0.3,0.1,0.6,0.2,1
				s0.3,0.6,0.6,0.6c0.2,0,0.4-0.1,0.7-0.2C111.9,102.5,112.3,102.3,112.7,101.9z"/>
			
				<linearGradient id="SVGID_4_" gradientUnits="userSpaceOnUse" x1="134" y1="81.45" x2="168.8375" y2="81.45" gradientTransform="matrix(1 0 0 -1 0 152)">
				<stop  offset="0" style="stop-color:#000000"/>
				<stop  offset="1" style="stop-color:#CC0000"/>
			</linearGradient>
			<path class="st4" d="M150.5,61.7c0-0.1,0-0.2,0.1-0.3c0-0.2,0.2-0.4,0.4-0.6s0.5-0.5,0.9-0.6c0.3-0.2,0.7-0.4,1.2-0.5
				c0.4-0.1,0.9-0.2,1.3-0.2c0.6,0,1.1,0.1,1.5,0.4s0.7,0.7,0.8,1.4s0.2,1.7,0.2,2.9c0,1.3-0.1,2.7-0.2,4.2
				c-0.1,1.5-0.3,3.1-0.5,4.7c-0.1,1.5-0.3,3-0.4,4.3c-0.1,1.4-0.2,2.6-0.2,3.8c0,1.2,0.1,2.1,0.3,2.8c0.2,0.7,0.5,1.1,0.9,1
				c0.3,0,0.7-0.4,1.2-1.2c0.4-0.7,0.9-1.7,1.4-2.8c0.5-1.1,1-2.4,1.5-3.8s1-2.8,1.5-4.2c0.5-1.4,0.9-2.7,1.4-4
				c0.4-1.3,0.8-2.3,1.1-3.1l0.5-1.8c0.1-0.3,0.4-0.4,0.8-0.5c0.4-0.1,0.8-0.1,1.2,0s0.8,0.2,1.1,0.4c0.3,0.2,0.4,0.4,0.3,0.6v-0.1
				l-0.4,1.5c-0.2,1-0.5,2.2-0.9,3.6c-0.4,1.5-0.9,3-1.5,4.6s-1.2,3.3-1.9,4.9c-0.7,1.7-1.5,3.1-2.4,4.5c-0.9,1.3-1.9,2.4-2.9,3.2
				c-1.1,0.8-2.2,1.2-3.4,1.2c-0.8-0.1-1.5-0.4-2.1-0.9s-1.1-1.1-1.5-1.9s-0.8-1.6-1.1-2.6s-0.5-2-0.7-3.2c-0.5,0.9-1.2,1.8-2.1,2.6
				c-0.9,0.8-1.9,1.3-3.2,1.4c-2.5,0.1-4.4-0.2-5.9-1.1c-1.4-0.9-2.5-2-3.2-3.3s-1.1-2.7-1.3-4.2S134,72,134,70.9
				c0-0.7,0-1.6,0.1-2.8c0.1-1.1,0.3-2.3,0.6-3.6c0.3-1.3,0.8-2.6,1.3-3.9c0.6-1.3,1.3-2.5,2.2-3.6s2-2,3.4-2.7
				c1.3-0.7,2.9-1.1,4.7-1.2c1.4,0,2.6,0.1,3.5,0.4c0.9,0.3,1.6,0.6,2.2,1.1c0.5,0.4,0.9,0.9,1.2,1.4s0.4,0.9,0.5,1.2l0.2,0.5v-0.1
				c0.3,0.6,0.2,1.1-0.1,1.4c-0.4,0.3-0.9,0.5-1.5,0.5c-0.4,0-0.7-0.1-1.1-0.2c-0.4-0.2-0.7-0.4-1-0.7c-0.2-0.1-0.3-0.3-0.3-0.3
				c0-0.1,0-0.2-0.1-0.3c-0.2-0.4-0.5-0.8-0.9-1.4c-0.4-0.5-1.1-0.7-2-0.7c-0.5,0-1.1,0.4-1.8,1.1c-0.6,0.7-1.2,1.7-1.8,2.9
				c-0.6,1.3-1.1,2.8-1.5,4.6c-0.4,1.8-0.7,3.8-0.9,6.1c0,0.2,0,0.5,0,0.9s0,0.6,0,0.8c0,2.1,0.2,3.7,0.5,4.8
				c0.3,1.1,0.7,1.9,1.1,2.4s0.9,0.7,1.3,0.8c0.4,0,0.8,0.1,1,0.1c0.4,0,0.9-0.2,1.4-0.6s0.9-1,1.3-1.6c0.4-0.6,0.8-1.3,1.2-2.1
				c0.4-0.7,0.7-1.4,1-2c0-1.4,0-2.7,0.1-4s0.2-2.5,0.3-3.6s0.2-2.1,0.3-2.9C150.3,62.7,150.4,62.1,150.5,61.7z"/>
			
				<linearGradient id="SVGID_5_" gradientUnits="userSpaceOnUse" x1="163.8" y1="92.85" x2="189.6" y2="92.85" gradientTransform="matrix(1 0 0 -1 0 152)">
				<stop  offset="0" style="stop-color:#000000"/>
				<stop  offset="1" style="stop-color:#CC0000"/>
			</linearGradient>
			<path class="st5" d="M170.9,35.3c0.7-0.8,1.5-1.3,2.3-1.7s1.7-0.5,2.6-0.5c0.8,0,1.6,0.2,2.3,0.5c0.8,0.3,1.4,0.7,2,1.3
				c0.6,0.5,1.1,1.2,1.4,2c0.3,0.8,0.5,1.6,0.5,2.5c0,4-0.4,7.6-1.2,11s-1.7,6.4-2.8,9.2c-1.1,2.7-2.3,5.1-3.5,7.2
				c-1.2,2-2.3,3.7-3.2,4.9c0.1,1.8,0.4,3.4,0.6,4.7c0.3,1.3,0.5,2.3,0.8,3.1c0.3,0.8,0.5,1.4,0.7,1.7c0.2,0.4,0.4,0.5,0.4,0.5
				c0.5-0.1,1.2-0.6,2-1.6c0.8-0.9,1.7-2.1,2.6-3.4c0.9-1.3,1.8-2.8,2.7-4.3s1.7-3,2.5-4.3c0.7-1.3,1.4-2.5,1.8-3.4
				c0.5-0.9,0.7-1.5,0.8-1.6c0-0.3,0.2-0.5,0.5-0.7s0.7-0.3,1.1-0.3s0.7,0.1,1.1,0.3c0.3,0.2,0.6,0.5,0.7,0.9c0,0.5-0.3,1.3-0.7,2.4
				c-0.5,1.1-1,2.3-1.7,3.7c-0.7,1.4-1.5,2.8-2.3,4.3s-1.7,2.9-2.4,4.2c-0.8,1.3-1.5,2.4-2.1,3.3s-1,1.5-1.3,1.8
				c-0.8,0.7-1.6,1.3-2.5,1.6c-0.9,0.4-1.9,0.6-2.9,0.6c-0.8,0-1.6-0.1-2.3-0.4s-1.4-0.7-1.9-1.2c-1-1.1-1.8-2.4-2.5-3.9
				s-1.3-3-1.8-4.7s-0.8-3.4-1-5.2c-0.2-1.8-0.4-3.7-0.4-5.5c0-3.1,0.2-6.2,0.7-9.3c0.4-3.1,1-5.9,1.7-8.6c0.7-2.6,1.4-4.9,2.3-6.8
				C169.4,37.5,170.2,36.1,170.9,35.3z M171.3,67.6c1-1.9,1.8-3.9,2.5-5.9s1.2-4,1.7-5.9c0.4-1.9,0.8-3.8,1.1-5.6s0.4-3.4,0.6-4.9
				c0.1-1.5,0.2-2.7,0.2-3.8s0.1-1.8,0.1-2.3v-0.5c0-2.1-0.2-3.2-0.7-3.2c-0.3,0-0.6,0.3-0.9,1c-0.3,0.7-0.7,1.6-0.9,2.7
				c-0.6,2.6-1.1,5.2-1.5,7.7s-0.8,4.9-1.1,7.2s-0.5,4.4-0.7,6.3c-0.1,2-0.2,3.7-0.2,5.2v2H171.3z"/>
			
				<linearGradient id="SVGID_6_" gradientUnits="userSpaceOnUse" x1="201.1" y1="90" x2="246.3124" y2="90" gradientTransform="matrix(1 0 0 -1 0 152)">
				<stop  offset="0" style="stop-color:#000000"/>
				<stop  offset="1" style="stop-color:#CC0000"/>
			</linearGradient>
			<path class="st6" d="M202.6,43.7c2.7-3.2,5.6-5.7,8.7-7.3c3.1-1.6,6.2-2.6,9.2-2.9c0.6-0.1,1.1-0.1,1.7-0.2
				c0.6,0,1.1-0.1,1.8-0.1c3.1,0,6,0.5,8.7,1.3c2.7,0.9,5.1,2.2,7.2,3.9s3.6,3.9,4.8,6.4s1.7,5.4,1.6,8.6c0,1.2-0.3,2.3-0.6,3.3
				c-0.4,1-0.9,2-1.5,3c-0.6,0.9-1.3,1.8-2.1,2.6s-1.6,1.5-2.5,2.2c-2,1.5-4.2,2.9-6.6,4c0.4,0.2,0.8,0.5,1.4,1
				c0.6,0.5,1.1,1,1.6,1.7s0.9,1.5,1.2,2.5s0.4,2.1,0.4,3.4c-0.1,1.8-0.6,3.4-1.5,4.8s-1.9,2.6-3.2,3.6s-2.7,1.8-4.3,2.5
				s-3.1,1.2-4.6,1.6s-2.9,0.7-4.2,0.9c-1.3,0.2-2.3,0.3-3.1,0.3c-2.8-0.1-5.2-0.6-7.2-1.4s-3.6-1.7-4.8-2.7s-2.1-2.1-2.7-3.2
				c-0.6-1.1-0.9-2-0.9-2.8c0.2-1.9,0.8-3.6,1.9-4.9c1-1.3,2.2-2.4,3.4-3.1c1.3-0.8,2.5-1.3,3.7-1.7c1.2-0.4,2.1-0.6,2.6-0.6
				c0.1,0,0.1,0,0.2,0c0.1,0,0.1,0,0.2,0c-0.2-1.9-0.4-4-0.5-6.2c-0.1-2.2-0.3-4.3-0.4-6.5c-0.1-2.1-0.2-4.2-0.2-6.1
				c-0.1-1.9-0.1-3.7-0.1-5.1c0-1.4,0-2.5,0.1-3.3s0.1-1.3,0.2-1.5h0.1c0.2-0.3,0.6-0.6,1.2-0.8c0.6-0.2,1.2-0.3,1.9-0.3
				c0.5,0,1,0.1,1.5,0.2c0.5,0.1,0.9,0.3,1.3,0.5s0.7,0.5,0.8,0.9c0.2,0.4,0.2,0.9,0.2,1.4c0,0,0,0.6-0.1,1.6s-0.2,2.3-0.2,4
				c-0.1,1.7-0.2,3.5-0.2,5.6c-0.1,2.1-0.1,4.2-0.1,6.4c0,1.6,0,3.1,0.1,4.7c0,1.5,0.1,3,0.2,4.5c1,0.1,1.8,0.3,2.5,0.5
				c0.7,0.3,1.2,0.5,1.6,0.8c0.4,0.3,0.8,0.6,1.1,0.9s0.5,0.6,0.7,0.8l0.1,0.2c0.2,0.3,0.3,0.7,0.3,1.1c0,0.5,0,0.8-0.2,1.1
				c-0.2,0.3-0.5,0.3-0.9,0.2c-0.4-0.1-1-0.5-1.7-1.3c-0.6-0.6-1.7-1.1-3.2-1.4c0.3,2.5,0.8,4.4,1.4,5.7h-0.1
				c0.3,0.5,0.5,0.9,0.5,1.4s-0.2,0.9-0.7,1.2c-0.5,0.3-1.2,0.3-2.3,0s-1.9-0.7-2.4-1.2c-0.5-0.6-0.8-1.2-0.9-1.8
				c-0.2-0.6-0.4-1.4-0.5-2.4c-0.2-0.9-0.3-2-0.5-3.1c-0.1,0-0.3,0.1-0.5,0.1c-1.5,0.2-2.7,0.7-3.6,1.4c-0.9,0.7-1.6,1.5-2.2,2.4
				c-0.5,0.9-0.9,1.7-1.1,2.5c-0.2,0.8-0.3,1.4-0.3,1.8c0,1.1,0.4,2.1,1.2,2.9s1.7,1.4,2.8,1.9s2.3,0.8,3.5,1
				c1.3,0.2,2.4,0.2,3.3,0.1c3.2-0.4,5.8-1.1,7.7-2.1s3.3-2,4.3-3.2c1-1.1,1.6-2.3,1.8-3.4c0.3-1.1,0.4-2,0.4-2.7s-0.2-1.4-0.5-2.2
				c-0.4-0.8-0.9-1.5-1.5-2.2s-1.4-1.2-2.2-1.7c-0.8-0.4-1.8-0.7-2.7-0.7c-0.7,0-1-0.1-0.9-0.4s0.4-0.6,0.9-0.9s1.1-0.7,1.7-1
				c0.7-0.3,1.2-0.5,1.7-0.6c1.4-0.2,2.7-0.6,3.8-1.2s2.1-1.3,2.9-2.2c0.8-0.8,1.5-1.7,2-2.6s1-1.9,1.3-2.8c0.3-0.9,0.6-1.7,0.7-2.5
				c0.1-0.7,0.2-1.3,0.3-1.8c-0.3-3-0.9-5.6-1.8-7.6s-2.2-3.7-3.6-5c-1.4-1.3-3-2.2-4.8-2.8s-3.5-0.8-5.3-0.8c-0.5,0-1,0-1.5,0.1
				c-0.5,0-1,0.1-1.5,0.2h0.1c-1.8,0.2-3.4,0.6-5,1.2c-1.5,0.6-2.9,1.2-4.2,1.9c-1.2,0.7-2.3,1.4-3.1,2.1c-0.9,0.7-1.5,1.3-1.9,1.8
				c-0.2,0.2-0.5,0.3-0.9,0.4c-0.4,0.1-0.8,0-1.1,0c-0.3-0.1-0.6-0.2-0.8-0.3C202.4,44,202.4,43.9,202.6,43.7z"/>
			
				<linearGradient id="SVGID_7_" gradientUnits="userSpaceOnUse" x1="247.7" y1="92.3017" x2="282.7785" y2="92.3017" gradientTransform="matrix(1 0 0 -1 0 152)">
				<stop  offset="0" style="stop-color:#000000"/>
				<stop  offset="1" style="stop-color:#CC0000"/>
			</linearGradient>
			<path class="st7" d="M265.4,53.6c2,0,3.4,0.6,4.2,1.9c0.8,1.3,1.2,2.9,1.2,4.9c0,0.6-0.1,1.5-0.2,2.5s-0.3,2.1-0.5,3.2
				s-0.4,2.2-0.6,3.3c-0.2,1.1-0.4,2-0.6,2.8c-0.3,1.6-0.6,3.2-0.9,4.8c-0.3,1.6-0.5,2.9-0.5,4c0,0.8,0.1,1.4,0.3,1.9
				c0.2,0.5,0.5,0.7,0.9,0.7s0.8-0.3,1.3-0.8s1-1.3,1.5-2.2c0.5-0.9,1.1-1.9,1.7-3.1s1.1-2.3,1.6-3.5s1-2.4,1.5-3.5
				c0.5-1.2,0.9-2.2,1.2-3.1c0.3-0.7,0.5-1.3,0.7-1.9c0.2-0.5,0.4-0.8,0.5-0.9v0.1c0.1-0.3,0.4-0.5,0.8-0.6s0.8-0.2,1.2-0.2
				c0.6,0,1.1,0.1,1.6,0.4c0.4,0.3,0.6,0.7,0.4,1.2c-1.4,4.4-2.8,7.9-4.4,10.7c-1.6,2.8-3.1,5-4.6,6.6s-2.9,2.7-4.1,3.2
				c-1.3,0.5-2.3,0.6-3,0.4c-1.3-0.4-2.1-1.2-2.6-2.3c-0.5-1.1-0.7-2.5-0.7-4.1c0-1.4,0.1-2.9,0.4-4.6s0.5-3.3,0.8-4.9
				c0.3-1.5,0.5-2.9,0.8-4.3c0.2-1.4,0.3-2.6,0.3-3.6s-0.1-1.8-0.4-2.4s-0.7-1-1.3-1c-0.7,0-1.6,0.4-2.6,1.3s-2.1,2.1-3.1,3.5
				c-1,1.4-2,2.9-2.9,4.5s-1.5,3.1-1.9,4.5c0,1.3,0.1,2.4,0.2,3.4c0.1,1,0.3,1.8,0.6,2.4c0.2,0.4,0.3,0.8,0.3,1.2c0,0.4,0,0.7-0.2,1
				s-0.5,0.4-0.9,0.5c-0.5,0.1-1.1,0-1.9-0.1c-1.2-0.3-2-0.7-2.4-1.3c-0.5-0.6-0.8-1.2-0.9-1.9c-0.2-0.7-0.3-1.6-0.4-2.8
				c-0.1-1.2-0.1-2.4-0.1-3.8c0-2.1,0.1-4.5,0.2-7.2c0.1-2.6,0.3-5.3,0.5-8s0.4-5.4,0.6-8c0.2-2.6,0.5-5,0.7-7
				c0.2-2.1,0.4-3.8,0.6-5.1c0.2-1.3,0.3-2,0.4-2.2v-0.2c0.2-0.3,0.6-0.5,1.2-0.7c0.6-0.2,1.2-0.3,1.9-0.3c0.5,0,0.9,0.1,1.4,0.2
				c0.5,0.1,0.9,0.3,1.3,0.5s0.6,0.5,0.8,0.9c0.2,0.4,0.2,0.8,0.1,1.4c0,0-0.1,0.8-0.4,2.3s-0.6,3.5-0.9,5.9
				c-0.4,2.4-0.7,5.1-1.2,8.2c-0.4,3-0.8,6-1.1,9c0.7-0.9,1.5-1.8,2.4-2.7c0.9-0.9,1.8-1.7,2.8-2.5c1-0.7,2-1.3,3.1-1.8
				C263.3,53.9,264.4,53.6,265.4,53.6z"/>
			
				<linearGradient id="SVGID_8_" gradientUnits="userSpaceOnUse" x1="277.1001" y1="81.6925" x2="311.7375" y2="81.6925" gradientTransform="matrix(1 0 0 -1 0 152)">
				<stop  offset="0" style="stop-color:#000000"/>
				<stop  offset="1" style="stop-color:#CC0000"/>
			</linearGradient>
			<path class="st8" d="M295,52.7c0.2-0.3,0.5-0.5,0.8-0.7s0.7-0.3,1.1-0.5s0.8-0.2,1.3-0.2c0.7,0,1.3,0.2,1.8,0.5s0.7,0.9,0.7,1.6
				c-0.1,0.9-0.2,2.2-0.3,3.7c-0.1,1.5-0.3,3.2-0.5,5c-0.2,1.4-0.3,2.9-0.5,4.4c-0.1,1.5-0.3,3-0.4,4.5s-0.3,2.9-0.3,4.3
				c-0.1,1.4-0.1,2.7-0.1,3.9c0,1.8,0.1,3.3,0.4,4.5c0.2,1.1,0.6,1.7,1.1,1.8c0.3-0.1,0.7-0.5,1.1-1.2s0.9-1.6,1.3-2.8
				c0.5-1.1,1-2.4,1.5-3.7s1-2.7,1.4-4.1s0.9-2.7,1.3-3.9c0.4-1.3,0.7-2.4,1-3.3c0.1-0.4,0.2-0.7,0.3-1.1c0.1-0.4,0.3-0.7,0.4-1.1
				c0.1-0.3,0.4-0.4,0.8-0.5s0.8-0.1,1.2,0c0.4,0.1,0.7,0.2,1,0.4c0.3,0.2,0.4,0.4,0.3,0.6s-0.3,0.7-0.4,1.6
				c-0.2,0.9-0.5,2.2-0.9,3.7s-0.8,3.2-1.3,4.9c-0.5,1.7-1.1,3.5-1.8,5.2c-0.7,1.7-1.5,3.3-2.4,4.7c-0.9,1.4-1.9,2.5-2.9,3.3
				s-2.2,1.2-3.5,1.1c-1.1-0.1-2-0.5-2.8-1.3c-0.7-0.8-1.3-1.8-1.8-3.1s-0.7-2.8-0.9-4.5c-0.2-1.7-0.3-3.5-0.3-5.3s0.1-3.7,0.2-5.5
				c-0.6,1.4-1.3,2.8-2.1,4.2c-0.8,1.5-1.6,2.8-2.5,4s-1.8,2.2-2.8,3s-1.9,1.2-2.9,1.3c-2-0.1-3.4-0.7-4.3-1.9
				c-0.8-1.2-1.2-2.7-1.2-4.6c0-1.4,0.1-2.8,0.4-4.4c0.3-1.5,0.5-3.1,0.8-4.8c0.3-1.5,0.6-3,0.8-4.4c0.2-1.4,0.4-2.7,0.4-3.9
				s-0.2-2.2-0.5-3h-0.1c-0.4-0.7-0.3-1.3,0.3-1.6c0.6-0.4,1.4-0.6,2.3-0.6c0.8,0,1.6,0.2,2.3,0.5c0.8,0.3,1.2,0.9,1.2,1.5
				c0.3,1,0.4,2,0.4,3.1c0,1.5-0.2,3.1-0.5,4.8s-0.7,3.4-1,5c-0.3,1.3-0.5,2.6-0.7,3.7c-0.2,1.2-0.3,2.1-0.3,2.9
				c0,1.1,0.3,1.7,0.8,1.7c0.2-0.1,0.6-0.5,1.1-1.1c0.5-0.7,1.1-1.6,1.8-2.7c0.7-1.1,1.4-2.3,2.1-3.7c0.7-1.3,1.5-2.7,2.2-4.2
				c0.7-1.4,1.4-2.8,1.9-4.2c0.6-1.4,1.1-2.6,1.4-3.7c0.1-0.8,0.2-1.4,0.3-1.9s0.2-1,0.2-1.2c0-0.1,0-0.1,0-0.1s0,0,0-0.1v-0.1
				C294.7,53.2,294.8,52.9,295,52.7z"/>
			
				<linearGradient id="SVGID_9_" gradientUnits="userSpaceOnUse" x1="292.9" y1="78.65" x2="326.1598" y2="78.65" gradientTransform="matrix(1 0 0 -1 0 152)">
				<stop  offset="0" style="stop-color:#000000"/>
				<stop  offset="1" style="stop-color:#CC0000"/>
			</linearGradient>
			<path class="st9" d="M306.6,50.1c0-0.5,0.1-0.9,0.3-1.2c0.2-0.3,0.5-0.6,0.8-0.8s0.7-0.3,1.2-0.4c0.5-0.1,1-0.1,1.5-0.1
				c0.7,0,1.3,0.1,2,0.2c0.6,0.1,1.1,0.3,1.4,0.6c0.4,0.3,0.6,1.7,0.6,4.3c0,1.3-0.1,2.9-0.2,4.7s-0.3,3.8-0.4,5.9
				c-0.2,2.1-0.4,4.4-0.7,6.8c-0.3,2.4-0.6,4.7-0.9,7.1c2.3-2.5,4.4-4.9,6.3-7.4c1.9-2.4,3.4-4.8,4.5-7c0.1-0.2,0.4-0.3,0.7-0.4
				s0.8-0.1,1.2-0.1c0.4,0.1,0.7,0.2,1,0.4s0.3,0.5,0.2,0.9c-0.6,1.6-1.5,3.3-2.6,5s-2.3,3.5-3.6,5.3c-1.4,1.8-2.8,3.5-4.3,5.3
				s-3,3.5-4.5,5.1c-0.4,2.2-0.8,4.3-1.3,6.3s-0.9,3.9-1.5,5.6c-0.5,1.7-1.1,3.3-1.6,4.6c-0.6,1.3-1.1,2.4-1.7,3.1
				c-1.1,1.4-2.3,2.4-3.5,3.1s-2.4,0.9-3.6,0.9c-1.5,0-2.7-0.4-3.6-1.3s-1.4-2.1-1.4-3.6c0-1,0.2-2.1,0.7-3.2s1.1-2.2,1.9-3.5
				c0.8-1.2,1.8-2.5,2.8-3.9c1.1-1.3,2.2-2.7,3.5-4.1c1.2-1.4,2.5-2.8,3.8-4.2c0.3-2.5,0.5-5.1,0.6-7.7s0.3-5.2,0.3-7.7
				s0.1-4.8,0.2-7c0-2.2,0.1-4.2,0.1-5.9s0-3.1-0.1-4.2C306.6,50.7,306.6,50.2,306.6,50.1z M300.3,103.5c1-0.8,1.8-2.2,2.5-4.3
				s1.3-4.6,1.8-7.4c-1.8,2.1-3.3,4.1-4.5,6c-1.3,1.9-2,3.6-2.3,5c-0.1,0.3-0.1,0.6,0,1s0.3,0.6,0.7,0.6c0.2,0,0.4-0.1,0.8-0.2
				C299.5,104.1,299.9,103.9,300.3,103.5z M307.5,42.6c0-1,0.3-1.9,1-2.7c0.7-0.7,1.5-1.1,2.4-1.1s1.7,0.4,2.4,1.1
				c0.7,0.7,1,1.6,1,2.7c0,1-0.3,1.9-1,2.6c-0.7,0.7-1.5,1.1-2.4,1.1s-1.7-0.4-2.4-1.1C307.8,44.5,307.5,43.6,307.5,42.6z"/>
			
				<linearGradient id="SVGID_10_" gradientUnits="userSpaceOnUse" x1="320.1" y1="84.6245" x2="368.0657" y2="84.6245" gradientTransform="matrix(1 0 0 -1 0 152)">
				<stop  offset="0" style="stop-color:#000000"/>
				<stop  offset="1" style="stop-color:#CC0000"/>
			</linearGradient>
			<path class="st10" d="M335.6,62.6c0-1,0.3-1.7,0.8-2.3c0.5-0.5,1.1-0.8,1.7-0.8s1.1,0.3,1.6,0.8s0.7,1.3,0.7,2.3v1.3
				c0,0.7,0,1.5,0.1,2.6c0,1,0.1,2.2,0.3,3.3c0.1,1.2,0.4,2.4,0.6,3.6s0.6,2.4,1.1,3.5s1,2,1.7,2.8s1.5,1.3,2.5,1.5
				c0.4,0.1,1.1-0.3,2-1.2c0.9-0.9,1.8-2.2,2.7-3.9c0.9-1.7,1.7-3.6,2.3-5.9c0.6-2.3,0.9-4.7,0.8-7.3c0-0.4-0.1-0.8-0.2-1.1
				c-0.1-0.4-0.2-0.7-0.4-1c-0.1-0.3-0.2-0.6-0.3-1c-0.1-0.3-0.1-0.7-0.1-1c0-0.6,0.3-1.4,0.8-2.1c0.5-0.6,0.9-1,1.3-1.3
				s0.8-0.4,1.2-0.4c0.5,0,1,0.2,1.4,0.7s0.6,1,0.9,1.6c0.2,0.6,0.4,1.2,0.5,1.9c0.1,0.6,0.1,1.1,0.1,1.3c0,0,0.1,0.1,0.4,0.1
				s0.6,0,1,0s0.8,0,1.3-0.1s0.9-0.1,1.4-0.1c0.4,0,0.8-0.1,1.2-0.1s0.7,0,1,0c0.6,0,1,0.1,1.4,0.4c0.3,0.2,0.6,0.5,0.6,0.8
				c0.1,0.3,0.1,0.6-0.1,0.9c-0.1,0.3-0.4,0.5-0.7,0.7c-0.8,0.4-1.7,0.6-2.6,0.6s-1.8,0-2.6,0h-1.8c0,0.4-0.2,1.3-0.5,2.5
				s-0.8,2.7-1.5,4.2c-0.7,1.6-1.5,3.2-2.5,4.9c-1,1.7-2.1,3.3-3.3,4.6c-1.2,1.4-2.6,2.5-4.2,3.3s-3.2,1.2-4.9,1
				c-1.3-0.1-2.3-0.4-3.3-0.9c-0.9-0.5-1.7-1.2-2.3-2c-0.6-0.8-1.1-1.7-1.5-2.7s-0.7-2.1-0.8-3.2c-0.8,2.1-1.8,3.6-3,4.7
				s-2.5,1.5-4.2,1.4c-1.6-0.1-3-0.7-4-1.8c-1-1-1.9-2.3-2.5-3.8s-1-3.2-1.2-5.1s-0.4-3.8-0.4-5.6c0-1.2,0-2.3,0.1-3.4
				s0.2-2.1,0.2-3.1c0.1-0.9,0.2-1.8,0.3-2.5c0.1-0.7,0.2-1.3,0.2-1.8c0-0.2,0.1-0.4,0.1-0.5s0-0.2,0-0.3c0-1,0.3-1.7,0.8-2.3
				s1.1-0.8,1.8-0.8c0.5,0,1,0.3,1.5,0.8s0.7,1.3,0.7,2.3c0,0.1,0,0.2,0,0.3s0,0.3,0,0.5c0,0.6-0.1,1.5-0.1,2.8
				c-0.1,1.3-0.1,2.7-0.1,4.3c0,1.7,0.1,3.5,0.2,5.4s0.4,3.6,0.7,5.3c0.3,1.6,0.8,3,1.3,4.1c0.6,1.1,1.3,1.7,2.1,1.9
				c0.2,0,0.6-0.4,1-1c0.5-0.6,1-1.5,1.5-2.6s1-2.4,1.6-4c0.5-1.5,1-3.2,1.3-5.1c0.1-0.5,0.1-1,0.2-1.4s0.1-0.8,0.1-1.1
				c0.1-0.2,0.1-0.3,0.1-0.4S335.6,62.7,335.6,62.6z"/>
			
				<linearGradient id="SVGID_11_" gradientUnits="userSpaceOnUse" x1="363.4" y1="81.45" x2="398.2375" y2="81.45" gradientTransform="matrix(1 0 0 -1 0 152)">
				<stop  offset="0" style="stop-color:#000000"/>
				<stop  offset="1" style="stop-color:#CC0000"/>
			</linearGradient>
			<path class="st11" d="M380,61.7c0-0.1,0-0.2,0.1-0.3c0-0.2,0.2-0.4,0.4-0.6c0.2-0.2,0.5-0.5,0.9-0.6c0.3-0.2,0.7-0.4,1.2-0.5
				c0.4-0.1,0.9-0.2,1.3-0.2c0.6,0,1.1,0.1,1.5,0.4c0.5,0.3,0.7,0.7,0.8,1.4c0.1,0.7,0.2,1.7,0.2,2.9c0,1.3-0.1,2.7-0.2,4.2
				s-0.3,3.1-0.5,4.7c-0.1,1.5-0.3,3-0.4,4.3c-0.1,1.4-0.2,2.6-0.2,3.8c0,1.2,0.1,2.1,0.3,2.8c0.2,0.7,0.5,1.1,0.9,1
				c0.3,0,0.7-0.4,1.2-1.2s0.9-1.7,1.4-2.8s1-2.4,1.5-3.8s1-2.8,1.5-4.2c0.5-1.4,0.9-2.7,1.3-4s0.8-2.3,1.1-3.1l0.5-1.8
				c0.1-0.3,0.4-0.4,0.8-0.5s0.8-0.1,1.2,0c0.4,0.1,0.8,0.2,1.1,0.4c0.3,0.2,0.4,0.4,0.3,0.6v-0.1l-0.4,1.5c-0.2,1-0.5,2.2-0.9,3.6
				c-0.4,1.5-0.9,3-1.5,4.6s-1.2,3.3-1.9,4.9c-0.7,1.7-1.5,3.1-2.4,4.5c-0.9,1.3-1.9,2.4-2.9,3.2c-1.1,0.8-2.2,1.2-3.4,1.2
				c-0.8-0.1-1.5-0.4-2.1-0.9s-1.1-1.1-1.5-1.9s-0.8-1.6-1.1-2.6c-0.3-1-0.5-2-0.7-3.2c-0.5,0.9-1.2,1.8-2.1,2.6
				c-0.9,0.8-1.9,1.3-3.2,1.4c-2.5,0.1-4.4-0.2-5.9-1.1c-1.4-0.9-2.5-2-3.2-3.3s-1.1-2.7-1.3-4.2c-0.2-1.5-0.3-2.8-0.3-3.9
				c0-0.7,0-1.6,0.1-2.8s0.3-2.3,0.6-3.6c0.3-1.3,0.8-2.6,1.3-3.9c0.6-1.3,1.3-2.5,2.2-3.6c0.9-1.1,2-2,3.4-2.7s2.9-1.1,4.7-1.2
				c1.4,0,2.6,0.1,3.5,0.4c0.9,0.3,1.6,0.6,2.2,1.1c0.5,0.4,0.9,0.9,1.2,1.4s0.4,0.9,0.5,1.2l0.2,0.5v-0.1c0.3,0.6,0.2,1.1-0.1,1.4
				s-0.9,0.5-1.5,0.5c-0.4,0-0.7-0.1-1.1-0.2c-0.4-0.2-0.7-0.4-1-0.7c-0.2-0.1-0.3-0.3-0.3-0.3c0-0.1,0-0.2-0.1-0.3
				c-0.2-0.4-0.5-0.8-0.9-1.4c-0.4-0.5-1.1-0.7-2-0.7c-0.5,0-1.1,0.4-1.8,1.1s-1.2,1.7-1.8,2.9c-0.6,1.3-1.1,2.8-1.5,4.6
				c-0.4,1.8-0.7,3.8-0.9,6.1c0,0.2,0,0.5,0,0.9s0,0.6,0,0.8c0,2.1,0.2,3.7,0.5,4.8c0.3,1.1,0.7,1.9,1.1,2.4s0.9,0.7,1.3,0.8
				c0.4,0,0.8,0.1,1,0.1c0.4,0,0.9-0.2,1.3-0.6c0.5-0.4,0.9-1,1.3-1.6s0.8-1.3,1.2-2.1c0.4-0.7,0.7-1.4,1-2c0-1.4,0-2.7,0.1-4
				s0.2-2.5,0.3-3.6c0.1-1.1,0.2-2.1,0.3-2.9C379.8,62.7,379.9,62.1,380,61.7z"/>
			
				<linearGradient id="SVGID_12_" gradientUnits="userSpaceOnUse" x1="393.3" y1="92.85" x2="419.1" y2="92.85" gradientTransform="matrix(1 0 0 -1 0 152)">
				<stop  offset="0" style="stop-color:#000000"/>
				<stop  offset="1" style="stop-color:#CC0000"/>
			</linearGradient>
			<path class="st12" d="M400.4,35.3c0.7-0.8,1.5-1.3,2.3-1.7s1.7-0.5,2.6-0.5c0.8,0,1.6,0.2,2.3,0.5c0.8,0.3,1.4,0.7,2,1.3
				c0.6,0.5,1.1,1.2,1.4,2s0.5,1.6,0.5,2.5c0,4-0.4,7.6-1.2,11s-1.7,6.4-2.8,9.2c-1.1,2.7-2.3,5.1-3.5,7.2c-1.2,2-2.3,3.7-3.2,4.9
				c0.1,1.8,0.4,3.4,0.6,4.7c0.3,1.3,0.5,2.3,0.8,3.1c0.3,0.8,0.5,1.4,0.7,1.7c0.2,0.4,0.4,0.5,0.4,0.5c0.5-0.1,1.2-0.6,2-1.6
				c0.8-0.9,1.7-2.1,2.6-3.4s1.8-2.8,2.7-4.3s1.7-3,2.5-4.3c0.7-1.3,1.3-2.5,1.8-3.4s0.7-1.5,0.8-1.6c0-0.3,0.2-0.5,0.5-0.7
				s0.7-0.3,1.1-0.3s0.7,0.1,1.1,0.3c0.3,0.2,0.6,0.5,0.7,0.9c0,0.5-0.3,1.3-0.7,2.4c-0.5,1.1-1,2.3-1.7,3.7
				c-0.7,1.4-1.5,2.8-2.3,4.3s-1.7,2.9-2.4,4.2c-0.8,1.3-1.5,2.4-2.1,3.3s-1,1.5-1.3,1.8c-0.8,0.7-1.6,1.3-2.5,1.6
				c-0.9,0.4-1.9,0.6-2.9,0.6c-0.8,0-1.6-0.1-2.3-0.4c-0.7-0.3-1.4-0.7-1.9-1.2c-1-1.1-1.8-2.4-2.5-3.9s-1.3-3-1.8-4.7
				s-0.8-3.4-1-5.2c-0.2-1.8-0.4-3.7-0.4-5.5c0-3.1,0.2-6.2,0.7-9.3s1-5.9,1.7-8.6c0.7-2.6,1.4-4.9,2.3-6.8
				C398.9,37.5,399.7,36.1,400.4,35.3z M400.8,67.6c1-1.9,1.8-3.9,2.5-5.9s1.2-4,1.7-5.9c0.4-1.9,0.8-3.8,1.1-5.6
				c0.3-1.8,0.4-3.4,0.6-4.9c0.1-1.5,0.2-2.7,0.2-3.8s0.1-1.8,0.1-2.3v-0.5c0-2.1-0.2-3.2-0.7-3.2c-0.3,0-0.6,0.3-0.9,1
				s-0.7,1.6-0.9,2.7c-0.6,2.6-1.1,5.2-1.5,7.7s-0.8,4.9-1.1,7.2c-0.3,2.3-0.5,4.4-0.7,6.3c-0.1,2-0.2,3.7-0.2,5.2v2H400.8z"/>
			
				<linearGradient id="SVGID_13_" gradientUnits="userSpaceOnUse" x1="412.3" y1="81.45" x2="447.1375" y2="81.45" gradientTransform="matrix(1 0 0 -1 0 152)">
				<stop  offset="0" style="stop-color:#000000"/>
				<stop  offset="1" style="stop-color:#CC0000"/>
			</linearGradient>
			<path class="st13" d="M428.9,61.7c0-0.1,0-0.2,0.1-0.3c0-0.2,0.2-0.4,0.4-0.6c0.2-0.2,0.5-0.5,0.9-0.6c0.3-0.2,0.7-0.4,1.2-0.5
				c0.4-0.1,0.9-0.2,1.3-0.2c0.6,0,1.1,0.1,1.5,0.4c0.5,0.3,0.7,0.7,0.8,1.4c0.1,0.7,0.2,1.7,0.2,2.9c0,1.3-0.1,2.7-0.2,4.2
				s-0.3,3.1-0.5,4.7c-0.1,1.5-0.3,3-0.4,4.3c-0.1,1.4-0.2,2.6-0.2,3.8c0,1.2,0.1,2.1,0.3,2.8c0.2,0.7,0.5,1.1,0.9,1
				c0.3,0,0.7-0.4,1.2-1.2s0.9-1.7,1.4-2.8s1-2.4,1.5-3.8s1-2.8,1.5-4.2c0.5-1.4,0.9-2.7,1.3-4s0.8-2.3,1.1-3.1l0.5-1.8
				c0.1-0.3,0.4-0.4,0.8-0.5s0.8-0.1,1.2,0c0.4,0.1,0.8,0.2,1.1,0.4c0.3,0.2,0.4,0.4,0.3,0.6v-0.1l-0.4,1.5c-0.2,1-0.5,2.2-0.9,3.6
				c-0.4,1.5-0.9,3-1.5,4.6s-1.2,3.3-1.9,4.9c-0.7,1.7-1.5,3.1-2.4,4.5c-0.9,1.3-1.9,2.4-2.9,3.2c-1.1,0.8-2.2,1.2-3.4,1.2
				c-0.8-0.1-1.5-0.4-2.1-0.9s-1.1-1.1-1.5-1.9s-0.8-1.6-1.1-2.6c-0.3-1-0.5-2-0.7-3.2c-0.5,0.9-1.2,1.8-2.1,2.6
				c-0.9,0.8-1.9,1.3-3.2,1.4c-2.5,0.1-4.4-0.2-5.9-1.1c-1.4-0.9-2.5-2-3.2-3.3s-1.1-2.7-1.3-4.2c-0.2-1.5-0.3-2.8-0.3-3.9
				c0-0.7,0-1.6,0.1-2.8s0.3-2.3,0.6-3.6c0.3-1.3,0.8-2.6,1.3-3.9c0.6-1.3,1.3-2.5,2.2-3.6c0.9-1.1,2-2,3.4-2.7s2.9-1.1,4.7-1.2
				c1.4,0,2.6,0.1,3.5,0.4c0.9,0.3,1.6,0.6,2.2,1.1c0.5,0.4,0.9,0.9,1.2,1.4s0.4,0.9,0.5,1.2l0.2,0.5v-0.1c0.3,0.6,0.2,1.1-0.1,1.4
				s-0.9,0.5-1.5,0.5c-0.4,0-0.7-0.1-1.1-0.2c-0.4-0.2-0.7-0.4-1-0.7c-0.2-0.1-0.3-0.3-0.3-0.3c0-0.1,0-0.2-0.1-0.3
				c-0.2-0.4-0.5-0.8-0.9-1.4c-0.4-0.5-1.1-0.7-2-0.7c-0.5,0-1.1,0.4-1.8,1.1s-1.2,1.7-1.8,2.9c-0.6,1.3-1.1,2.8-1.5,4.6
				c-0.4,1.8-0.7,3.8-0.9,6.1c0,0.2,0,0.5,0,0.9s0,0.6,0,0.8c0,2.1,0.2,3.7,0.5,4.8c0.3,1.1,0.7,1.9,1.1,2.4s0.9,0.7,1.3,0.8
				c0.4,0,0.8,0.1,1,0.1c0.4,0,0.9-0.2,1.3-0.6c0.5-0.4,0.9-1,1.3-1.6s0.8-1.3,1.2-2.1c0.4-0.7,0.7-1.4,1-2c0-1.4,0-2.7,0.1-4
				s0.2-2.5,0.3-3.6c0.1-1.1,0.2-2.1,0.3-2.9C428.7,62.7,428.8,62.1,428.9,61.7z"/>
		</g>
	</g>
	<g>
		<g>
			
				<linearGradient id="SVGID_14_" gradientUnits="userSpaceOnUse" x1="36" y1="11.0669" x2="452.8374" y2="11.0669" gradientTransform="matrix(1 0 0 1 -5.7 48.3706)">
				<stop  offset="0" style="stop-color:#000000"/>
				<stop  offset="1" style="stop-color:#CC0000"/>
			</linearGradient>
			<path class="st14" d="M51.4,28.7c3-0.1,5.7,0.1,7.9,0.6s4.2,1.2,5.8,2.1c1.6,0.9,3,2,4.1,3.2s2,2.5,2.6,3.8
				c0.7,1.3,1.2,2.7,1.5,4s0.6,2.6,0.7,3.7c0.1,1.1,0.2,2.1,0.2,3c0,0.8,0,1.4,0,1.8c0,2.7-0.4,5-1.2,7.2c-0.8,2.1-1.9,4-3.2,5.5
				c-1.3,1.6-2.9,2.9-4.6,4.1c-1.7,1.1-3.6,2.1-5.4,2.8c-1.9,0.8-3.7,1.3-5.6,1.8c-1.9,0.4-3.6,0.7-5.2,0.9c0,1.9,0,3.8,0,5.5
				s0,3.3-0.1,4.6c0,1.3-0.1,2.4-0.1,3.3s-0.1,1.4-0.2,1.6c-0.3,0.6-0.9,1.1-1.8,1.5C45.9,90,45,90.2,44,90.2c-1.1,0-2-0.2-2.8-0.6
				s-1.1-1-0.9-1.8c0.4-1.8,0.7-4,1-6.6s0.5-5.3,0.7-8.2c-1.6-0.4-3.1-0.9-4.5-1.5c-1.4-0.7-2.6-1.4-3.7-2.3
				c-1.1-0.9-1.9-1.9-2.5-3.1c-0.6-1.1-0.9-2.3-1-3.6c0.1-1.6,0.5-3,1.3-4.3s1.8-2.4,3-3.4s2.5-1.8,4-2.4c1.5-0.6,2.9-1.1,4.3-1.5
				c0.2-3.1,0.4-5.9,0.6-8.4c0.3-2.5,0.6-4.3,1.1-5.6c0.3-0.8,0.8-1.3,1.6-1.7s1.6-0.5,2.4-0.5c0.8,0,1.5,0.2,2,0.5s0.6,0.8,0.2,1.5
				c-0.2,0.5-0.4,1.3-0.6,2.2c-0.2,0.9-0.3,2-0.5,3.2c-0.1,1.2-0.3,2.5-0.4,4c-0.1,1.5-0.2,3-0.2,4.6c1.7,0.2,3.2,0.6,4.3,1.1
				c1.2,0.5,2.1,1.1,2.7,1.7c0.7,0.6,1.1,1.2,1.3,1.9c0.2,0.6,0.3,1.2,0.3,1.6c-0.1,0.6-0.3,1-0.8,1.4c-0.5,0.3-0.9,0.6-1.4,0.8
				s-1,0.2-1.4,0.2s-0.6-0.1-0.7-0.4c0-0.2,0.1-0.4,0.1-0.6s0-0.4,0-0.6c0-1-0.4-2-1.1-2.8c-0.7-0.8-1.9-1.3-3.5-1.5
				c-0.1,2.8-0.1,5.7-0.1,8.6s0,5.8,0,8.6c3-0.4,5.4-1,7.5-1.9c2-0.8,3.7-1.8,5.1-2.9c1.3-1.1,2.4-2.3,3.2-3.5
				c0.8-1.2,1.3-2.4,1.7-3.6s0.6-2.2,0.6-3.1S67,54,67,53.5V53c0.1-3.2-0.1-5.9-0.6-8.2s-1.2-4.2-2.1-5.8s-1.9-2.8-3-3.8
				S59,33.5,57.8,33s-2.3-0.8-3.4-0.9c-1.1-0.1-2.1-0.2-2.9-0.1c-2.6,0.3-4.8,0.8-6.6,1.5s-3.2,1.5-4.3,2.3s-2,1.6-2.5,2.4
				c-0.6,0.8-1,1.4-1.2,1.8c-0.1,0.1-0.1,0.2-0.2,0.3c-0.1,0.1-0.1,0.2-0.2,0.3c-0.1,0.1-0.1,0.2-0.2,0.2h0.1
				c-0.2,0.1-0.5,0.2-0.8,0.3s-0.7,0.2-1.1,0.1c-0.4,0-0.7-0.1-1-0.3s-0.5-0.5-0.6-1c0-0.2,0.1-0.6,0.4-1.2s0.7-1.3,1.3-2
				c0.6-0.8,1.4-1.5,2.4-2.4c1-0.8,2.1-1.6,3.5-2.3s3-1.3,4.8-1.8C47.2,29.1,49.2,28.8,51.4,28.7z M42.8,53.4
				c-1.7,0.4-3.1,1-4.1,1.7c-1,0.8-1.8,1.6-2.3,2.4c-0.5,0.8-0.9,1.7-1.1,2.5c-0.2,0.8-0.3,1.5-0.4,2c-0.1,1,0,2,0.5,2.8
				c0.4,0.8,1,1.6,1.7,2.2s1.5,1.2,2.4,1.6s1.8,0.8,2.6,1c0.1-1.6,0.1-3.2,0.2-4.8c0.1-1.6,0.1-3.2,0.2-4.7L42.8,53.4z"/>
			
				<linearGradient id="SVGID_15_" gradientUnits="userSpaceOnUse" x1="35.9813" y1="22.1794" x2="452.8187" y2="22.1794" gradientTransform="matrix(1 0 0 1 -5.7 48.3706)">
				<stop  offset="0" style="stop-color:#000000"/>
				<stop  offset="1" style="stop-color:#CC0000"/>
			</linearGradient>
			<path class="st15" d="M91.3,61.7c0-0.1,0-0.2,0.1-0.3c0-0.2,0.2-0.4,0.4-0.6c0.2-0.2,0.5-0.5,0.9-0.6c0.3-0.2,0.7-0.4,1.2-0.5
				c0.4-0.1,0.9-0.2,1.3-0.2c0.6,0,1.1,0.1,1.5,0.4s0.7,0.7,0.8,1.4c0.1,0.7,0.2,1.7,0.2,2.9c0,1.3-0.1,2.7-0.2,4.2
				s-0.3,3.1-0.5,4.7c-0.1,1.5-0.3,3-0.4,4.3c-0.1,1.4-0.2,2.6-0.2,3.8c0,1.2,0.1,2.1,0.3,2.8c0.2,0.7,0.5,1.1,0.9,1
				c0.3,0,0.7-0.4,1.2-1.2c0.4-0.7,0.9-1.7,1.4-2.8c0.5-1.1,1-2.4,1.5-3.8s1-2.8,1.5-4.2c0.5-1.4,0.9-2.7,1.4-4
				c0.4-1.3,0.8-2.3,1.1-3.1l0.5-1.8c0.1-0.3,0.4-0.4,0.8-0.5s0.8-0.1,1.2,0c0.4,0.1,0.8,0.2,1.1,0.4c0.3,0.2,0.4,0.4,0.3,0.6v-0.1
				l-0.4,1.5c-0.2,1-0.5,2.2-0.9,3.6c-0.4,1.5-0.9,3-1.5,4.6s-1.2,3.3-1.9,4.9c-0.7,1.7-1.5,3.1-2.4,4.5c-0.9,1.3-1.9,2.4-2.9,3.2
				c-1.1,0.8-2.2,1.2-3.4,1.2c-0.8-0.1-1.5-0.4-2.1-0.9S93,86,92.6,85.2s-0.8-1.6-1.1-2.6c-0.3-1-0.5-2-0.7-3.2
				c-0.5,0.9-1.2,1.8-2.1,2.6c-0.9,0.8-1.9,1.3-3.2,1.4c-2.5,0.1-4.4-0.2-5.9-1.1c-1.4-0.9-2.5-2-3.2-3.3s-1.1-2.7-1.3-4.2
				c-0.2-1.5-0.3-2.8-0.3-3.9c0-0.7,0-1.6,0.1-2.8c0.1-1.1,0.3-2.3,0.6-3.6c0.3-1.3,0.8-2.6,1.3-3.9c0.6-1.3,1.3-2.5,2.2-3.6
				s2-2,3.4-2.7c1.3-0.7,2.9-1.1,4.7-1.2c1.4,0,2.6,0.1,3.5,0.4c0.9,0.3,1.6,0.6,2.2,1.1c0.5,0.4,0.9,0.9,1.2,1.4
				c0.3,0.5,0.4,0.9,0.5,1.2l0.2,0.5v-0.1c0.3,0.6,0.2,1.1-0.1,1.4c-0.4,0.3-0.9,0.5-1.5,0.5c-0.4,0-0.7-0.1-1.1-0.2
				c-0.4-0.2-0.7-0.4-1-0.7c-0.2-0.1-0.3-0.3-0.3-0.3c0-0.1,0-0.2-0.1-0.3c-0.2-0.4-0.5-0.8-0.9-1.4c-0.4-0.5-1.1-0.7-2-0.7
				c-0.5,0-1.1,0.4-1.8,1.1c-0.6,0.7-1.2,1.7-1.8,2.9c-0.6,1.3-1.1,2.8-1.5,4.6c-0.4,1.8-0.7,3.8-0.9,6.1c0,0.2,0,0.5,0,0.9
				s0,0.6,0,0.8c0,2.1,0.2,3.7,0.5,4.8c0.3,1.1,0.7,1.9,1.1,2.4s0.9,0.7,1.3,0.8c0.4,0,0.8,0.1,1,0.1c0.4,0,0.9-0.2,1.4-0.6
				s0.9-1,1.3-1.6s0.8-1.3,1.2-2.1c0.4-0.7,0.7-1.4,1-2c0-1.4,0-2.7,0.1-4s0.2-2.5,0.3-3.6c0.1-1.1,0.2-2.1,0.3-2.9
				C91.2,62.7,91.2,62.1,91.3,61.7z"/>
			
				<linearGradient id="SVGID_16_" gradientUnits="userSpaceOnUse" x1="35.9813" y1="30.8294" x2="452.8187" y2="30.8294" gradientTransform="matrix(1 0 0 1 -5.7 48.3706)">
				<stop  offset="0" style="stop-color:#000000"/>
				<stop  offset="1" style="stop-color:#CC0000"/>
			</linearGradient>
			<path class="st16" d="M120.7,56.1c0-0.5,0.1-0.9,0.3-1.2c0.2-0.3,0.5-0.6,0.8-0.8s0.7-0.3,1.2-0.4c0.5-0.1,1-0.1,1.5-0.1
				c0.7,0,1.3,0.1,2,0.2c0.6,0.1,1.1,0.3,1.4,0.6v-0.1c0.4,0.3,0.5,1.3,0.5,3c0,1,0,2.1-0.1,3.5c-0.1,1.3-0.2,2.8-0.4,4.4
				c-0.2,1.6-0.4,3.3-0.7,5c-0.3,1.8-0.6,3.6-0.9,5.5c2.4-2.5,4.6-5,6.6-7.4s3.5-4.7,4.5-6.8c0.1-0.2,0.4-0.3,0.8-0.3
				c0.4,0,0.9,0,1.3,0.1c0.4,0.1,0.8,0.3,1.1,0.6s0.4,0.6,0.3,0.9c-0.6,1.5-1.5,3.2-2.7,4.9c-1.2,1.7-2.5,3.4-3.9,5.1
				c-1.5,1.7-3,3.4-4.6,5.1s-3.2,3.3-4.8,4.8c-0.4,1.9-0.9,3.8-1.4,5.6c-0.5,1.8-1,3.5-1.6,5.1s-1.1,3-1.7,4.3s-1.2,2.3-1.9,3.1
				c-1.1,1.4-2.3,2.4-3.5,3.1c-1.2,0.6-2.4,0.9-3.5,0.9c-1.5,0-2.7-0.4-3.6-1.3s-1.4-2-1.4-3.5c0-0.5,0.1-1,0.2-1.6s0.3-1.1,0.6-1.8
				v0.1c0.3-0.6,0.8-1.4,1.5-2.3s1.6-1.9,2.6-3s2.1-2.3,3.4-3.5c1.2-1.2,2.5-2.5,3.8-3.8l0.5-0.5c0.3-2.4,0.6-4.8,0.8-7.2
				c0.2-2.4,0.4-4.7,0.6-6.9c-0.7,1.4-1.5,2.8-2.3,4.3c-0.9,1.5-1.8,2.9-2.8,4.1c-1,1.3-2,2.3-3.1,3.2c-1,0.8-2.1,1.3-3.1,1.4
				c-1.2,0-2.1-0.2-2.9-0.5c-0.8-0.4-1.4-0.9-1.9-1.5s-0.8-1.4-1.1-2.2c-0.2-0.8-0.3-1.8-0.3-2.7c0-1,0.1-2.1,0.2-3.2
				s0.3-2.2,0.4-3.4c0.2-1.1,0.3-2.2,0.5-3.3c0.1-1.1,0.2-2,0.2-2.9c0-1.5-0.2-2.8-0.6-3.6c-0.2-0.4-0.3-0.7-0.1-1
				c0.1-0.3,0.4-0.6,0.8-0.8s0.8-0.4,1.3-0.5s1.1-0.2,1.6-0.2c1,0,1.9,0.2,2.7,0.5c0.8,0.3,1.3,0.8,1.3,1.4c0.1,0.4,0.2,0.9,0.3,1.4
				s0.1,1.1,0.1,1.6c0,1.5-0.2,3.1-0.4,4.9c-0.3,1.7-0.6,3.4-1,5c-0.3,1.3-0.5,2.5-0.7,3.6s-0.3,2.1-0.3,2.8c0,1,0.2,1.6,0.7,1.7
				c0.2-0.1,0.6-0.5,1.2-1.2s1.2-1.7,1.9-2.9c0.7-1.2,1.5-2.5,2.3-3.9c0.8-1.5,1.6-2.9,2.3-4.4c0.8-1.5,1.4-2.9,2-4.3
				c0.6-1.4,1.1-2.6,1.4-3.6c0-0.9,0.1-1.6,0.1-2.1C120.7,56.4,120.7,56.1,120.7,56.1z M112.7,101.9c1.1-0.9,2-2.4,2.8-4.6
				s1.5-4.8,2.1-7.7c-1.1,1.2-2.2,2.3-3.1,3.3c-1,1.1-1.8,2.1-2.4,3.1c-0.7,1-1.2,1.9-1.6,2.8s-0.5,1.7-0.5,2.5c0,0.3,0.1,0.6,0.2,1
				s0.3,0.6,0.6,0.6c0.2,0,0.4-0.1,0.7-0.2C111.9,102.5,112.3,102.3,112.7,101.9z"/>
			
				<linearGradient id="SVGID_17_" gradientUnits="userSpaceOnUse" x1="35.9813" y1="22.1794" x2="452.8187" y2="22.1794" gradientTransform="matrix(1 0 0 1 -5.7 48.3706)">
				<stop  offset="0" style="stop-color:#000000"/>
				<stop  offset="1" style="stop-color:#CC0000"/>
			</linearGradient>
			<path class="st17" d="M150.5,61.7c0-0.1,0-0.2,0.1-0.3c0-0.2,0.2-0.4,0.4-0.6s0.5-0.5,0.9-0.6c0.3-0.2,0.7-0.4,1.2-0.5
				c0.4-0.1,0.9-0.2,1.3-0.2c0.6,0,1.1,0.1,1.5,0.4s0.7,0.7,0.8,1.4s0.2,1.7,0.2,2.9c0,1.3-0.1,2.7-0.2,4.2
				c-0.1,1.5-0.3,3.1-0.5,4.7c-0.1,1.5-0.3,3-0.4,4.3c-0.1,1.4-0.2,2.6-0.2,3.8c0,1.2,0.1,2.1,0.3,2.8c0.2,0.7,0.5,1.1,0.9,1
				c0.3,0,0.7-0.4,1.2-1.2c0.4-0.7,0.9-1.7,1.4-2.8c0.5-1.1,1-2.4,1.5-3.8s1-2.8,1.5-4.2c0.5-1.4,0.9-2.7,1.4-4
				c0.4-1.3,0.8-2.3,1.1-3.1l0.5-1.8c0.1-0.3,0.4-0.4,0.8-0.5c0.4-0.1,0.8-0.1,1.2,0s0.8,0.2,1.1,0.4c0.3,0.2,0.4,0.4,0.3,0.6v-0.1
				l-0.4,1.5c-0.2,1-0.5,2.2-0.9,3.6c-0.4,1.5-0.9,3-1.5,4.6s-1.2,3.3-1.9,4.9c-0.7,1.7-1.5,3.1-2.4,4.5c-0.9,1.3-1.9,2.4-2.9,3.2
				c-1.1,0.8-2.2,1.2-3.4,1.2c-0.8-0.1-1.5-0.4-2.1-0.9s-1.1-1.1-1.5-1.9s-0.8-1.6-1.1-2.6s-0.5-2-0.7-3.2c-0.5,0.9-1.2,1.8-2.1,2.6
				c-0.9,0.8-1.9,1.3-3.2,1.4c-2.5,0.1-4.4-0.2-5.9-1.1c-1.4-0.9-2.5-2-3.2-3.3s-1.1-2.7-1.3-4.2S134,72,134,70.9
				c0-0.7,0-1.6,0.1-2.8c0.1-1.1,0.3-2.3,0.6-3.6c0.3-1.3,0.8-2.6,1.3-3.9c0.6-1.3,1.3-2.5,2.2-3.6s2-2,3.4-2.7
				c1.3-0.7,2.9-1.1,4.7-1.2c1.4,0,2.6,0.1,3.5,0.4c0.9,0.3,1.6,0.6,2.2,1.1c0.5,0.4,0.9,0.9,1.2,1.4s0.4,0.9,0.5,1.2l0.2,0.5v-0.1
				c0.3,0.6,0.2,1.1-0.1,1.4c-0.4,0.3-0.9,0.5-1.5,0.5c-0.4,0-0.7-0.1-1.1-0.2c-0.4-0.2-0.7-0.4-1-0.7c-0.2-0.1-0.3-0.3-0.3-0.3
				c0-0.1,0-0.2-0.1-0.3c-0.2-0.4-0.5-0.8-0.9-1.4c-0.4-0.5-1.1-0.7-2-0.7c-0.5,0-1.1,0.4-1.8,1.1c-0.6,0.7-1.2,1.7-1.8,2.9
				c-0.6,1.3-1.1,2.8-1.5,4.6c-0.4,1.8-0.7,3.8-0.9,6.1c0,0.2,0,0.5,0,0.9s0,0.6,0,0.8c0,2.1,0.2,3.7,0.5,4.8
				c0.3,1.1,0.7,1.9,1.1,2.4s0.9,0.7,1.3,0.8c0.4,0,0.8,0.1,1,0.1c0.4,0,0.9-0.2,1.4-0.6s0.9-1,1.3-1.6c0.4-0.6,0.8-1.3,1.2-2.1
				c0.4-0.7,0.7-1.4,1-2c0-1.4,0-2.7,0.1-4s0.2-2.5,0.3-3.6s0.2-2.1,0.3-2.9C150.3,62.7,150.4,62.1,150.5,61.7z"/>
			
				<linearGradient id="SVGID_18_" gradientUnits="userSpaceOnUse" x1="35.9813" y1="10.7794" x2="452.8187" y2="10.7794" gradientTransform="matrix(1 0 0 1 -5.7 48.3706)">
				<stop  offset="0" style="stop-color:#000000"/>
				<stop  offset="1" style="stop-color:#CC0000"/>
			</linearGradient>
			<path class="st18" d="M170.9,35.3c0.7-0.8,1.5-1.3,2.3-1.7s1.7-0.5,2.6-0.5c0.8,0,1.6,0.2,2.3,0.5c0.8,0.3,1.4,0.7,2,1.3
				c0.6,0.5,1.1,1.2,1.4,2c0.3,0.8,0.5,1.6,0.5,2.5c0,4-0.4,7.6-1.2,11s-1.7,6.4-2.8,9.2c-1.1,2.7-2.3,5.1-3.5,7.2
				c-1.2,2-2.3,3.7-3.2,4.9c0.1,1.8,0.4,3.4,0.6,4.7c0.3,1.3,0.5,2.3,0.8,3.1c0.3,0.8,0.5,1.4,0.7,1.7c0.2,0.4,0.4,0.5,0.4,0.5
				c0.5-0.1,1.2-0.6,2-1.6c0.8-0.9,1.7-2.1,2.6-3.4c0.9-1.3,1.8-2.8,2.7-4.3s1.7-3,2.5-4.3c0.7-1.3,1.4-2.5,1.8-3.4
				c0.5-0.9,0.7-1.5,0.8-1.6c0-0.3,0.2-0.5,0.5-0.7s0.7-0.3,1.1-0.3s0.7,0.1,1.1,0.3c0.3,0.2,0.6,0.5,0.7,0.9c0,0.5-0.3,1.3-0.7,2.4
				c-0.5,1.1-1,2.3-1.7,3.7c-0.7,1.4-1.5,2.8-2.3,4.3s-1.7,2.9-2.4,4.2c-0.8,1.3-1.5,2.4-2.1,3.3s-1,1.5-1.3,1.8
				c-0.8,0.7-1.6,1.3-2.5,1.6c-0.9,0.4-1.9,0.6-2.9,0.6c-0.8,0-1.6-0.1-2.3-0.4s-1.4-0.7-1.9-1.2c-1-1.1-1.8-2.4-2.5-3.9
				s-1.3-3-1.8-4.7s-0.8-3.4-1-5.2c-0.2-1.8-0.4-3.7-0.4-5.5c0-3.1,0.2-6.2,0.7-9.3c0.4-3.1,1-5.9,1.7-8.6c0.7-2.6,1.4-4.9,2.3-6.8
				C169.4,37.5,170.2,36.1,170.9,35.3z M171.3,67.6c1-1.9,1.8-3.9,2.5-5.9s1.2-4,1.7-5.9c0.4-1.9,0.8-3.8,1.1-5.6s0.4-3.4,0.6-4.9
				c0.1-1.5,0.2-2.7,0.2-3.8s0.1-1.8,0.1-2.3v-0.5c0-2.1-0.2-3.2-0.7-3.2c-0.3,0-0.6,0.3-0.9,1c-0.3,0.7-0.7,1.6-0.9,2.7
				c-0.6,2.6-1.1,5.2-1.5,7.7s-0.8,4.9-1.1,7.2s-0.5,4.4-0.7,6.3c-0.1,2-0.2,3.7-0.2,5.2v2H171.3z"/>
			
				<linearGradient id="SVGID_19_" gradientUnits="userSpaceOnUse" x1="35.9813" y1="13.6294" x2="452.8187" y2="13.6294" gradientTransform="matrix(1 0 0 1 -5.7 48.3706)">
				<stop  offset="0" style="stop-color:#000000"/>
				<stop  offset="1" style="stop-color:#CC0000"/>
			</linearGradient>
			<path class="st19" d="M202.6,43.7c2.7-3.2,5.6-5.7,8.7-7.3c3.1-1.6,6.2-2.6,9.2-2.9c0.6-0.1,1.1-0.1,1.7-0.2
				c0.6,0,1.1-0.1,1.8-0.1c3.1,0,6,0.5,8.7,1.3c2.7,0.9,5.1,2.2,7.2,3.9s3.6,3.9,4.8,6.4s1.7,5.4,1.6,8.6c0,1.2-0.3,2.3-0.6,3.3
				c-0.4,1-0.9,2-1.5,3c-0.6,0.9-1.3,1.8-2.1,2.6s-1.6,1.5-2.5,2.2c-2,1.5-4.2,2.9-6.6,4c0.4,0.2,0.8,0.5,1.4,1
				c0.6,0.5,1.1,1,1.6,1.7s0.9,1.5,1.2,2.5s0.4,2.1,0.4,3.4c-0.1,1.8-0.6,3.4-1.5,4.8s-1.9,2.6-3.2,3.6s-2.7,1.8-4.3,2.5
				s-3.1,1.2-4.6,1.6s-2.9,0.7-4.2,0.9c-1.3,0.2-2.3,0.3-3.1,0.3c-2.8-0.1-5.2-0.6-7.2-1.4s-3.6-1.7-4.8-2.7s-2.1-2.1-2.7-3.2
				c-0.6-1.1-0.9-2-0.9-2.8c0.2-1.9,0.8-3.6,1.9-4.9c1-1.3,2.2-2.4,3.4-3.1c1.3-0.8,2.5-1.3,3.7-1.7c1.2-0.4,2.1-0.6,2.6-0.6
				c0.1,0,0.1,0,0.2,0c0.1,0,0.1,0,0.2,0c-0.2-1.9-0.4-4-0.5-6.2c-0.1-2.2-0.3-4.3-0.4-6.5c-0.1-2.1-0.2-4.2-0.2-6.1
				c-0.1-1.9-0.1-3.7-0.1-5.1c0-1.4,0-2.5,0.1-3.3s0.1-1.3,0.2-1.5h0.1c0.2-0.3,0.6-0.6,1.2-0.8c0.6-0.2,1.2-0.3,1.9-0.3
				c0.5,0,1,0.1,1.5,0.2c0.5,0.1,0.9,0.3,1.3,0.5s0.7,0.5,0.8,0.9c0.2,0.4,0.2,0.9,0.2,1.4c0,0,0,0.6-0.1,1.6s-0.2,2.3-0.2,4
				c-0.1,1.7-0.2,3.5-0.2,5.6c-0.1,2.1-0.1,4.2-0.1,6.4c0,1.6,0,3.1,0.1,4.7c0,1.5,0.1,3,0.2,4.5c1,0.1,1.8,0.3,2.5,0.5
				c0.7,0.3,1.2,0.5,1.6,0.8c0.4,0.3,0.8,0.6,1.1,0.9s0.5,0.6,0.7,0.8l0.1,0.2c0.2,0.3,0.3,0.7,0.3,1.1c0,0.5,0,0.8-0.2,1.1
				c-0.2,0.3-0.5,0.3-0.9,0.2c-0.4-0.1-1-0.5-1.7-1.3c-0.6-0.6-1.7-1.1-3.2-1.4c0.3,2.5,0.8,4.4,1.4,5.7h-0.1
				c0.3,0.5,0.5,0.9,0.5,1.4s-0.2,0.9-0.7,1.2c-0.5,0.3-1.2,0.3-2.3,0s-1.9-0.7-2.4-1.2c-0.5-0.6-0.8-1.2-0.9-1.8
				c-0.2-0.6-0.4-1.4-0.5-2.4c-0.2-0.9-0.3-2-0.5-3.1c-0.1,0-0.3,0.1-0.5,0.1c-1.5,0.2-2.7,0.7-3.6,1.4c-0.9,0.7-1.6,1.5-2.2,2.4
				c-0.5,0.9-0.9,1.7-1.1,2.5c-0.2,0.8-0.3,1.4-0.3,1.8c0,1.1,0.4,2.1,1.2,2.9s1.7,1.4,2.8,1.9s2.3,0.8,3.5,1
				c1.3,0.2,2.4,0.2,3.3,0.1c3.2-0.4,5.8-1.1,7.7-2.1s3.3-2,4.3-3.2c1-1.1,1.6-2.3,1.8-3.4c0.3-1.1,0.4-2,0.4-2.7s-0.2-1.4-0.5-2.2
				c-0.4-0.8-0.9-1.5-1.5-2.2s-1.4-1.2-2.2-1.7c-0.8-0.4-1.8-0.7-2.7-0.7c-0.7,0-1-0.1-0.9-0.4s0.4-0.6,0.9-0.9s1.1-0.7,1.7-1
				c0.7-0.3,1.2-0.5,1.7-0.6c1.4-0.2,2.7-0.6,3.8-1.2s2.1-1.3,2.9-2.2c0.8-0.8,1.5-1.7,2-2.6s1-1.9,1.3-2.8c0.3-0.9,0.6-1.7,0.7-2.5
				c0.1-0.7,0.2-1.3,0.3-1.8c-0.3-3-0.9-5.6-1.8-7.6s-2.2-3.7-3.6-5c-1.4-1.3-3-2.2-4.8-2.8s-3.5-0.8-5.3-0.8c-0.5,0-1,0-1.5,0.1
				c-0.5,0-1,0.1-1.5,0.2h0.1c-1.8,0.2-3.4,0.6-5,1.2c-1.5,0.6-2.9,1.2-4.2,1.9c-1.2,0.7-2.3,1.4-3.1,2.1c-0.9,0.7-1.5,1.3-1.9,1.8
				c-0.2,0.2-0.5,0.3-0.9,0.4c-0.4,0.1-0.8,0-1.1,0c-0.3-0.1-0.6-0.2-0.8-0.3C202.4,44,202.4,43.9,202.6,43.7z"/>
			
				<linearGradient id="SVGID_20_" gradientUnits="userSpaceOnUse" x1="35.9813" y1="11.3277" x2="452.8187" y2="11.3277" gradientTransform="matrix(1 0 0 1 -5.7 48.3706)">
				<stop  offset="0" style="stop-color:#000000"/>
				<stop  offset="1" style="stop-color:#CC0000"/>
			</linearGradient>
			<path class="st20" d="M265.4,53.6c2,0,3.4,0.6,4.2,1.9c0.8,1.3,1.2,2.9,1.2,4.9c0,0.6-0.1,1.5-0.2,2.5s-0.3,2.1-0.5,3.2
				s-0.4,2.2-0.6,3.3c-0.2,1.1-0.4,2-0.6,2.8c-0.3,1.6-0.6,3.2-0.9,4.8c-0.3,1.6-0.5,2.9-0.5,4c0,0.8,0.1,1.4,0.3,1.9
				c0.2,0.5,0.5,0.7,0.9,0.7s0.8-0.3,1.3-0.8s1-1.3,1.5-2.2c0.5-0.9,1.1-1.9,1.7-3.1s1.1-2.3,1.6-3.5s1-2.4,1.5-3.5
				c0.5-1.2,0.9-2.2,1.2-3.1c0.3-0.7,0.5-1.3,0.7-1.9c0.2-0.5,0.4-0.8,0.5-0.9v0.1c0.1-0.3,0.4-0.5,0.8-0.6s0.8-0.2,1.2-0.2
				c0.6,0,1.1,0.1,1.6,0.4c0.4,0.3,0.6,0.7,0.4,1.2c-1.4,4.4-2.8,7.9-4.4,10.7c-1.6,2.8-3.1,5-4.6,6.6s-2.9,2.7-4.1,3.2
				c-1.3,0.5-2.3,0.6-3,0.4c-1.3-0.4-2.1-1.2-2.6-2.3c-0.5-1.1-0.7-2.5-0.7-4.1c0-1.4,0.1-2.9,0.4-4.6s0.5-3.3,0.8-4.9
				c0.3-1.5,0.5-2.9,0.8-4.3c0.2-1.4,0.3-2.6,0.3-3.6s-0.1-1.8-0.4-2.4s-0.7-1-1.3-1c-0.7,0-1.6,0.4-2.6,1.3s-2.1,2.1-3.1,3.5
				c-1,1.4-2,2.9-2.9,4.5s-1.5,3.1-1.9,4.5c0,1.3,0.1,2.4,0.2,3.4c0.1,1,0.3,1.8,0.6,2.4c0.2,0.4,0.3,0.8,0.3,1.2c0,0.4,0,0.7-0.2,1
				s-0.5,0.4-0.9,0.5c-0.5,0.1-1.1,0-1.9-0.1c-1.2-0.3-2-0.7-2.4-1.3c-0.5-0.6-0.8-1.2-0.9-1.9c-0.2-0.7-0.3-1.6-0.4-2.8
				c-0.1-1.2-0.1-2.4-0.1-3.8c0-2.1,0.1-4.5,0.2-7.2c0.1-2.6,0.3-5.3,0.5-8s0.4-5.4,0.6-8c0.2-2.6,0.5-5,0.7-7
				c0.2-2.1,0.4-3.8,0.6-5.1c0.2-1.3,0.3-2,0.4-2.2v-0.2c0.2-0.3,0.6-0.5,1.2-0.7c0.6-0.2,1.2-0.3,1.9-0.3c0.5,0,0.9,0.1,1.4,0.2
				c0.5,0.1,0.9,0.3,1.3,0.5s0.6,0.5,0.8,0.9c0.2,0.4,0.2,0.8,0.1,1.4c0,0-0.1,0.8-0.4,2.3s-0.6,3.5-0.9,5.9
				c-0.4,2.4-0.7,5.1-1.2,8.2c-0.4,3-0.8,6-1.1,9c0.7-0.9,1.5-1.8,2.4-2.7c0.9-0.9,1.8-1.7,2.8-2.5c1-0.7,2-1.3,3.1-1.8
				C263.3,53.9,264.4,53.6,265.4,53.6z"/>
			
				<linearGradient id="SVGID_21_" gradientUnits="userSpaceOnUse" x1="35.9813" y1="21.9369" x2="452.8187" y2="21.9369" gradientTransform="matrix(1 0 0 1 -5.7 48.3706)">
				<stop  offset="0" style="stop-color:#000000"/>
				<stop  offset="1" style="stop-color:#CC0000"/>
			</linearGradient>
			<path class="st21" d="M295,52.7c0.2-0.3,0.5-0.5,0.8-0.7s0.7-0.3,1.1-0.5s0.8-0.2,1.3-0.2c0.7,0,1.3,0.2,1.8,0.5s0.7,0.9,0.7,1.6
				c-0.1,0.9-0.2,2.2-0.3,3.7c-0.1,1.5-0.3,3.2-0.5,5c-0.2,1.4-0.3,2.9-0.5,4.4c-0.1,1.5-0.3,3-0.4,4.5s-0.3,2.9-0.3,4.3
				c-0.1,1.4-0.1,2.7-0.1,3.9c0,1.8,0.1,3.3,0.4,4.5c0.2,1.1,0.6,1.7,1.1,1.8c0.3-0.1,0.7-0.5,1.1-1.2s0.9-1.6,1.3-2.8
				c0.5-1.1,1-2.4,1.5-3.7s1-2.7,1.4-4.1s0.9-2.7,1.3-3.9c0.4-1.3,0.7-2.4,1-3.3c0.1-0.4,0.2-0.7,0.3-1.1c0.1-0.4,0.3-0.7,0.4-1.1
				c0.1-0.3,0.4-0.4,0.8-0.5s0.8-0.1,1.2,0c0.4,0.1,0.7,0.2,1,0.4c0.3,0.2,0.4,0.4,0.3,0.6s-0.3,0.7-0.4,1.6
				c-0.2,0.9-0.5,2.2-0.9,3.7s-0.8,3.2-1.3,4.9c-0.5,1.7-1.1,3.5-1.8,5.2c-0.7,1.7-1.5,3.3-2.4,4.7c-0.9,1.4-1.9,2.5-2.9,3.3
				s-2.2,1.2-3.5,1.1c-1.1-0.1-2-0.5-2.8-1.3c-0.7-0.8-1.3-1.8-1.8-3.1s-0.7-2.8-0.9-4.5c-0.2-1.7-0.3-3.5-0.3-5.3s0.1-3.7,0.2-5.5
				c-0.6,1.4-1.3,2.8-2.1,4.2c-0.8,1.5-1.6,2.8-2.5,4s-1.8,2.2-2.8,3s-1.9,1.2-2.9,1.3c-2-0.1-3.4-0.7-4.3-1.9
				c-0.8-1.2-1.2-2.7-1.2-4.6c0-1.4,0.1-2.8,0.4-4.4c0.3-1.5,0.5-3.1,0.8-4.8c0.3-1.5,0.6-3,0.8-4.4c0.2-1.4,0.4-2.7,0.4-3.9
				s-0.2-2.2-0.5-3h-0.1c-0.4-0.7-0.3-1.3,0.3-1.6c0.6-0.4,1.4-0.6,2.3-0.6c0.8,0,1.6,0.2,2.3,0.5c0.8,0.3,1.2,0.9,1.2,1.5
				c0.3,1,0.4,2,0.4,3.1c0,1.5-0.2,3.1-0.5,4.8s-0.7,3.4-1,5c-0.3,1.3-0.5,2.6-0.7,3.7c-0.2,1.2-0.3,2.1-0.3,2.9
				c0,1.1,0.3,1.7,0.8,1.7c0.2-0.1,0.6-0.5,1.1-1.1c0.5-0.7,1.1-1.6,1.8-2.7c0.7-1.1,1.4-2.3,2.1-3.7c0.7-1.3,1.5-2.7,2.2-4.2
				c0.7-1.4,1.4-2.8,1.9-4.2c0.6-1.4,1.1-2.6,1.4-3.7c0.1-0.8,0.2-1.4,0.3-1.9s0.2-1,0.2-1.2c0-0.1,0-0.1,0-0.1s0,0,0-0.1v-0.1
				C294.7,53.2,294.8,52.9,295,52.7z"/>
			
				<linearGradient id="SVGID_22_" gradientUnits="userSpaceOnUse" x1="35.9813" y1="24.9794" x2="452.8187" y2="24.9794" gradientTransform="matrix(1 0 0 1 -5.7 48.3706)">
				<stop  offset="0" style="stop-color:#000000"/>
				<stop  offset="1" style="stop-color:#CC0000"/>
			</linearGradient>
			<path class="st22" d="M306.6,50.1c0-0.5,0.1-0.9,0.3-1.2c0.2-0.3,0.5-0.6,0.8-0.8s0.7-0.3,1.2-0.4c0.5-0.1,1-0.1,1.5-0.1
				c0.7,0,1.3,0.1,2,0.2c0.6,0.1,1.1,0.3,1.4,0.6c0.4,0.3,0.6,1.7,0.6,4.3c0,1.3-0.1,2.9-0.2,4.7s-0.3,3.8-0.4,5.9
				c-0.2,2.1-0.4,4.4-0.7,6.8c-0.3,2.4-0.6,4.7-0.9,7.1c2.3-2.5,4.4-4.9,6.3-7.4c1.9-2.4,3.4-4.8,4.5-7c0.1-0.2,0.4-0.3,0.7-0.4
				s0.8-0.1,1.2-0.1c0.4,0.1,0.7,0.2,1,0.4s0.3,0.5,0.2,0.9c-0.6,1.6-1.5,3.3-2.6,5s-2.3,3.5-3.6,5.3c-1.4,1.8-2.8,3.5-4.3,5.3
				s-3,3.5-4.5,5.1c-0.4,2.2-0.8,4.3-1.3,6.3s-0.9,3.9-1.5,5.6c-0.5,1.7-1.1,3.3-1.6,4.6c-0.6,1.3-1.1,2.4-1.7,3.1
				c-1.1,1.4-2.3,2.4-3.5,3.1s-2.4,0.9-3.6,0.9c-1.5,0-2.7-0.4-3.6-1.3s-1.4-2.1-1.4-3.6c0-1,0.2-2.1,0.7-3.2s1.1-2.2,1.9-3.5
				c0.8-1.2,1.8-2.5,2.8-3.9c1.1-1.3,2.2-2.7,3.5-4.1c1.2-1.4,2.5-2.8,3.8-4.2c0.3-2.5,0.5-5.1,0.6-7.7s0.3-5.2,0.3-7.7
				s0.1-4.8,0.2-7c0-2.2,0.1-4.2,0.1-5.9s0-3.1-0.1-4.2C306.6,50.7,306.6,50.2,306.6,50.1z M300.3,103.5c1-0.8,1.8-2.2,2.5-4.3
				s1.3-4.6,1.8-7.4c-1.8,2.1-3.3,4.1-4.5,6c-1.3,1.9-2,3.6-2.3,5c-0.1,0.3-0.1,0.6,0,1s0.3,0.6,0.7,0.6c0.2,0,0.4-0.1,0.8-0.2
				C299.5,104.1,299.9,103.9,300.3,103.5z M307.5,42.6c0-1,0.3-1.9,1-2.7c0.7-0.7,1.5-1.1,2.4-1.1s1.7,0.4,2.4,1.1
				c0.7,0.7,1,1.6,1,2.7c0,1-0.3,1.9-1,2.6c-0.7,0.7-1.5,1.1-2.4,1.1s-1.7-0.4-2.4-1.1C307.8,44.5,307.5,43.6,307.5,42.6z"/>
			
				<linearGradient id="SVGID_23_" gradientUnits="userSpaceOnUse" x1="35.9813" y1="19.0049" x2="452.8187" y2="19.0049" gradientTransform="matrix(1 0 0 1 -5.7 48.3706)">
				<stop  offset="0" style="stop-color:#000000"/>
				<stop  offset="1" style="stop-color:#CC0000"/>
			</linearGradient>
			<path class="st23" d="M335.6,62.6c0-1,0.3-1.7,0.8-2.3c0.5-0.5,1.1-0.8,1.7-0.8s1.1,0.3,1.6,0.8s0.7,1.3,0.7,2.3v1.3
				c0,0.7,0,1.5,0.1,2.6c0,1,0.1,2.2,0.3,3.3c0.1,1.2,0.4,2.4,0.6,3.6s0.6,2.4,1.1,3.5s1,2,1.7,2.8s1.5,1.3,2.5,1.5
				c0.4,0.1,1.1-0.3,2-1.2c0.9-0.9,1.8-2.2,2.7-3.9c0.9-1.7,1.7-3.6,2.3-5.9c0.6-2.3,0.9-4.7,0.8-7.3c0-0.4-0.1-0.8-0.2-1.1
				c-0.1-0.4-0.2-0.7-0.4-1c-0.1-0.3-0.2-0.6-0.3-1c-0.1-0.3-0.1-0.7-0.1-1c0-0.6,0.3-1.4,0.8-2.1c0.5-0.6,0.9-1,1.3-1.3
				s0.8-0.4,1.2-0.4c0.5,0,1,0.2,1.4,0.7s0.6,1,0.9,1.6c0.2,0.6,0.4,1.2,0.5,1.9c0.1,0.6,0.1,1.1,0.1,1.3c0,0,0.1,0.1,0.4,0.1
				s0.6,0,1,0s0.8,0,1.3-0.1s0.9-0.1,1.4-0.1c0.4,0,0.8-0.1,1.2-0.1s0.7,0,1,0c0.6,0,1,0.1,1.4,0.4c0.3,0.2,0.6,0.5,0.6,0.8
				c0.1,0.3,0.1,0.6-0.1,0.9c-0.1,0.3-0.4,0.5-0.7,0.7c-0.8,0.4-1.7,0.6-2.6,0.6s-1.8,0-2.6,0h-1.8c0,0.4-0.2,1.3-0.5,2.5
				s-0.8,2.7-1.5,4.2c-0.7,1.6-1.5,3.2-2.5,4.9c-1,1.7-2.1,3.3-3.3,4.6c-1.2,1.4-2.6,2.5-4.2,3.3s-3.2,1.2-4.9,1
				c-1.3-0.1-2.3-0.4-3.3-0.9c-0.9-0.5-1.7-1.2-2.3-2c-0.6-0.8-1.1-1.7-1.5-2.7s-0.7-2.1-0.8-3.2c-0.8,2.1-1.8,3.6-3,4.7
				s-2.5,1.5-4.2,1.4c-1.6-0.1-3-0.7-4-1.8c-1-1-1.9-2.3-2.5-3.8s-1-3.2-1.2-5.1s-0.4-3.8-0.4-5.6c0-1.2,0-2.3,0.1-3.4
				s0.2-2.1,0.2-3.1c0.1-0.9,0.2-1.8,0.3-2.5c0.1-0.7,0.2-1.3,0.2-1.8c0-0.2,0.1-0.4,0.1-0.5s0-0.2,0-0.3c0-1,0.3-1.7,0.8-2.3
				s1.1-0.8,1.8-0.8c0.5,0,1,0.3,1.5,0.8s0.7,1.3,0.7,2.3c0,0.1,0,0.2,0,0.3s0,0.3,0,0.5c0,0.6-0.1,1.5-0.1,2.8
				c-0.1,1.3-0.1,2.7-0.1,4.3c0,1.7,0.1,3.5,0.2,5.4s0.4,3.6,0.7,5.3c0.3,1.6,0.8,3,1.3,4.1c0.6,1.1,1.3,1.7,2.1,1.9
				c0.2,0,0.6-0.4,1-1c0.5-0.6,1-1.5,1.5-2.6s1-2.4,1.6-4c0.5-1.5,1-3.2,1.3-5.1c0.1-0.5,0.1-1,0.2-1.4s0.1-0.8,0.1-1.1
				c0.1-0.2,0.1-0.3,0.1-0.4S335.6,62.7,335.6,62.6z"/>
			
				<linearGradient id="SVGID_24_" gradientUnits="userSpaceOnUse" x1="35.9813" y1="22.1794" x2="452.8187" y2="22.1794" gradientTransform="matrix(1 0 0 1 -5.7 48.3706)">
				<stop  offset="0" style="stop-color:#000000"/>
				<stop  offset="1" style="stop-color:#CC0000"/>
			</linearGradient>
			<path class="st24" d="M380,61.7c0-0.1,0-0.2,0.1-0.3c0-0.2,0.2-0.4,0.4-0.6c0.2-0.2,0.5-0.5,0.9-0.6c0.3-0.2,0.7-0.4,1.2-0.5
				c0.4-0.1,0.9-0.2,1.3-0.2c0.6,0,1.1,0.1,1.5,0.4c0.5,0.3,0.7,0.7,0.8,1.4c0.1,0.7,0.2,1.7,0.2,2.9c0,1.3-0.1,2.7-0.2,4.2
				s-0.3,3.1-0.5,4.7c-0.1,1.5-0.3,3-0.4,4.3c-0.1,1.4-0.2,2.6-0.2,3.8c0,1.2,0.1,2.1,0.3,2.8c0.2,0.7,0.5,1.1,0.9,1
				c0.3,0,0.7-0.4,1.2-1.2s0.9-1.7,1.4-2.8s1-2.4,1.5-3.8s1-2.8,1.5-4.2c0.5-1.4,0.9-2.7,1.3-4s0.8-2.3,1.1-3.1l0.5-1.8
				c0.1-0.3,0.4-0.4,0.8-0.5s0.8-0.1,1.2,0c0.4,0.1,0.8,0.2,1.1,0.4c0.3,0.2,0.4,0.4,0.3,0.6v-0.1l-0.4,1.5c-0.2,1-0.5,2.2-0.9,3.6
				c-0.4,1.5-0.9,3-1.5,4.6s-1.2,3.3-1.9,4.9c-0.7,1.7-1.5,3.1-2.4,4.5c-0.9,1.3-1.9,2.4-2.9,3.2c-1.1,0.8-2.2,1.2-3.4,1.2
				c-0.8-0.1-1.5-0.4-2.1-0.9s-1.1-1.1-1.5-1.9s-0.8-1.6-1.1-2.6c-0.3-1-0.5-2-0.7-3.2c-0.5,0.9-1.2,1.8-2.1,2.6
				c-0.9,0.8-1.9,1.3-3.2,1.4c-2.5,0.1-4.4-0.2-5.9-1.1c-1.4-0.9-2.5-2-3.2-3.3s-1.1-2.7-1.3-4.2c-0.2-1.5-0.3-2.8-0.3-3.9
				c0-0.7,0-1.6,0.1-2.8s0.3-2.3,0.6-3.6c0.3-1.3,0.8-2.6,1.3-3.9c0.6-1.3,1.3-2.5,2.2-3.6c0.9-1.1,2-2,3.4-2.7s2.9-1.1,4.7-1.2
				c1.4,0,2.6,0.1,3.5,0.4c0.9,0.3,1.6,0.6,2.2,1.1c0.5,0.4,0.9,0.9,1.2,1.4s0.4,0.9,0.5,1.2l0.2,0.5v-0.1c0.3,0.6,0.2,1.1-0.1,1.4
				s-0.9,0.5-1.5,0.5c-0.4,0-0.7-0.1-1.1-0.2c-0.4-0.2-0.7-0.4-1-0.7c-0.2-0.1-0.3-0.3-0.3-0.3c0-0.1,0-0.2-0.1-0.3
				c-0.2-0.4-0.5-0.8-0.9-1.4c-0.4-0.5-1.1-0.7-2-0.7c-0.5,0-1.1,0.4-1.8,1.1s-1.2,1.7-1.8,2.9c-0.6,1.3-1.1,2.8-1.5,4.6
				c-0.4,1.8-0.7,3.8-0.9,6.1c0,0.2,0,0.5,0,0.9s0,0.6,0,0.8c0,2.1,0.2,3.7,0.5,4.8c0.3,1.1,0.7,1.9,1.1,2.4s0.9,0.7,1.3,0.8
				c0.4,0,0.8,0.1,1,0.1c0.4,0,0.9-0.2,1.3-0.6c0.5-0.4,0.9-1,1.3-1.6s0.8-1.3,1.2-2.1c0.4-0.7,0.7-1.4,1-2c0-1.4,0-2.7,0.1-4
				s0.2-2.5,0.3-3.6c0.1-1.1,0.2-2.1,0.3-2.9C379.8,62.7,379.9,62.1,380,61.7z"/>
			
				<linearGradient id="SVGID_25_" gradientUnits="userSpaceOnUse" x1="35.9813" y1="10.7794" x2="452.8187" y2="10.7794" gradientTransform="matrix(1 0 0 1 -5.7 48.3706)">
				<stop  offset="0" style="stop-color:#000000"/>
				<stop  offset="1" style="stop-color:#CC0000"/>
			</linearGradient>
			<path class="st25" d="M400.4,35.3c0.7-0.8,1.5-1.3,2.3-1.7s1.7-0.5,2.6-0.5c0.8,0,1.6,0.2,2.3,0.5c0.8,0.3,1.4,0.7,2,1.3
				c0.6,0.5,1.1,1.2,1.4,2s0.5,1.6,0.5,2.5c0,4-0.4,7.6-1.2,11s-1.7,6.4-2.8,9.2c-1.1,2.7-2.3,5.1-3.5,7.2c-1.2,2-2.3,3.7-3.2,4.9
				c0.1,1.8,0.4,3.4,0.6,4.7c0.3,1.3,0.5,2.3,0.8,3.1c0.3,0.8,0.5,1.4,0.7,1.7c0.2,0.4,0.4,0.5,0.4,0.5c0.5-0.1,1.2-0.6,2-1.6
				c0.8-0.9,1.7-2.1,2.6-3.4s1.8-2.8,2.7-4.3s1.7-3,2.5-4.3c0.7-1.3,1.3-2.5,1.8-3.4s0.7-1.5,0.8-1.6c0-0.3,0.2-0.5,0.5-0.7
				s0.7-0.3,1.1-0.3s0.7,0.1,1.1,0.3c0.3,0.2,0.6,0.5,0.7,0.9c0,0.5-0.3,1.3-0.7,2.4c-0.5,1.1-1,2.3-1.7,3.7
				c-0.7,1.4-1.5,2.8-2.3,4.3s-1.7,2.9-2.4,4.2c-0.8,1.3-1.5,2.4-2.1,3.3s-1,1.5-1.3,1.8c-0.8,0.7-1.6,1.3-2.5,1.6
				c-0.9,0.4-1.9,0.6-2.9,0.6c-0.8,0-1.6-0.1-2.3-0.4c-0.7-0.3-1.4-0.7-1.9-1.2c-1-1.1-1.8-2.4-2.5-3.9s-1.3-3-1.8-4.7
				s-0.8-3.4-1-5.2c-0.2-1.8-0.4-3.7-0.4-5.5c0-3.1,0.2-6.2,0.7-9.3s1-5.9,1.7-8.6c0.7-2.6,1.4-4.9,2.3-6.8
				C398.9,37.5,399.7,36.1,400.4,35.3z M400.8,67.6c1-1.9,1.8-3.9,2.5-5.9s1.2-4,1.7-5.9c0.4-1.9,0.8-3.8,1.1-5.6
				c0.3-1.8,0.4-3.4,0.6-4.9c0.1-1.5,0.2-2.7,0.2-3.8s0.1-1.8,0.1-2.3v-0.5c0-2.1-0.2-3.2-0.7-3.2c-0.3,0-0.6,0.3-0.9,1
				s-0.7,1.6-0.9,2.7c-0.6,2.6-1.1,5.2-1.5,7.7s-0.8,4.9-1.1,7.2c-0.3,2.3-0.5,4.4-0.7,6.3c-0.1,2-0.2,3.7-0.2,5.2v2H400.8z"/>
			
				<linearGradient id="SVGID_26_" gradientUnits="userSpaceOnUse" x1="35.9813" y1="22.1794" x2="452.8187" y2="22.1794" gradientTransform="matrix(1 0 0 1 -5.7 48.3706)">
				<stop  offset="0" style="stop-color:#000000"/>
				<stop  offset="1" style="stop-color:#CC0000"/>
			</linearGradient>
			<path class="st26" d="M428.9,61.7c0-0.1,0-0.2,0.1-0.3c0-0.2,0.2-0.4,0.4-0.6c0.2-0.2,0.5-0.5,0.9-0.6c0.3-0.2,0.7-0.4,1.2-0.5
				c0.4-0.1,0.9-0.2,1.3-0.2c0.6,0,1.1,0.1,1.5,0.4c0.5,0.3,0.7,0.7,0.8,1.4c0.1,0.7,0.2,1.7,0.2,2.9c0,1.3-0.1,2.7-0.2,4.2
				s-0.3,3.1-0.5,4.7c-0.1,1.5-0.3,3-0.4,4.3c-0.1,1.4-0.2,2.6-0.2,3.8c0,1.2,0.1,2.1,0.3,2.8c0.2,0.7,0.5,1.1,0.9,1
				c0.3,0,0.7-0.4,1.2-1.2s0.9-1.7,1.4-2.8s1-2.4,1.5-3.8s1-2.8,1.5-4.2c0.5-1.4,0.9-2.7,1.3-4s0.8-2.3,1.1-3.1l0.5-1.8
				c0.1-0.3,0.4-0.4,0.8-0.5s0.8-0.1,1.2,0c0.4,0.1,0.8,0.2,1.1,0.4c0.3,0.2,0.4,0.4,0.3,0.6v-0.1l-0.4,1.5c-0.2,1-0.5,2.2-0.9,3.6
				c-0.4,1.5-0.9,3-1.5,4.6s-1.2,3.3-1.9,4.9c-0.7,1.7-1.5,3.1-2.4,4.5c-0.9,1.3-1.9,2.4-2.9,3.2c-1.1,0.8-2.2,1.2-3.4,1.2
				c-0.8-0.1-1.5-0.4-2.1-0.9s-1.1-1.1-1.5-1.9s-0.8-1.6-1.1-2.6c-0.3-1-0.5-2-0.7-3.2c-0.5,0.9-1.2,1.8-2.1,2.6
				c-0.9,0.8-1.9,1.3-3.2,1.4c-2.5,0.1-4.4-0.2-5.9-1.1c-1.4-0.9-2.5-2-3.2-3.3s-1.1-2.7-1.3-4.2c-0.2-1.5-0.3-2.8-0.3-3.9
				c0-0.7,0-1.6,0.1-2.8s0.3-2.3,0.6-3.6c0.3-1.3,0.8-2.6,1.3-3.9c0.6-1.3,1.3-2.5,2.2-3.6c0.9-1.1,2-2,3.4-2.7s2.9-1.1,4.7-1.2
				c1.4,0,2.6,0.1,3.5,0.4c0.9,0.3,1.6,0.6,2.2,1.1c0.5,0.4,0.9,0.9,1.2,1.4s0.4,0.9,0.5,1.2l0.2,0.5v-0.1c0.3,0.6,0.2,1.1-0.1,1.4
				s-0.9,0.5-1.5,0.5c-0.4,0-0.7-0.1-1.1-0.2c-0.4-0.2-0.7-0.4-1-0.7c-0.2-0.1-0.3-0.3-0.3-0.3c0-0.1,0-0.2-0.1-0.3
				c-0.2-0.4-0.5-0.8-0.9-1.4c-0.4-0.5-1.1-0.7-2-0.7c-0.5,0-1.1,0.4-1.8,1.1s-1.2,1.7-1.8,2.9c-0.6,1.3-1.1,2.8-1.5,4.6
				c-0.4,1.8-0.7,3.8-0.9,6.1c0,0.2,0,0.5,0,0.9s0,0.6,0,0.8c0,2.1,0.2,3.7,0.5,4.8c0.3,1.1,0.7,1.9,1.1,2.4s0.9,0.7,1.3,0.8
				c0.4,0,0.8,0.1,1,0.1c0.4,0,0.9-0.2,1.3-0.6c0.5-0.4,0.9-1,1.3-1.6s0.8-1.3,1.2-2.1c0.4-0.7,0.7-1.4,1-2c0-1.4,0-2.7,0.1-4
				s0.2-2.5,0.3-3.6c0.1-1.1,0.2-2.1,0.3-2.9C428.7,62.7,428.8,62.1,428.9,61.7z"/>
		</g>
	</g>
</g>
</svg>
