<?xml version="1.0" encoding="utf-8"?>
<!-- Generator: Adobe Illustrator 24.0.0, SVG Export Plug-In . SVG Version: 6.00 Build 0)  -->
<svg version="1.1" id="Layer_1" xmlns="http://www.w3.org/2000/svg" xmlns:xlink="http://www.w3.org/1999/xlink" x="0px" y="0px"
	 viewBox="0 0 477.1 159.5" style="enable-background:new 0 0 477.1 159.5;" xml:space="preserve">
<style type="text/css">
	.st0{enable-background:new    ;}
	.st1{fill:#0071BC;}
	.st2{fill:url(#SVGID_1_);}
	.st3{fill:url(#SVGID_2_);}
	.st4{fill:url(#SVGID_3_);}
	.st5{fill:url(#SVGID_4_);}
	.st6{fill:url(#SVGID_5_);}
	.st7{fill:url(#SVGID_6_);}
	.st8{fill:url(#SVGID_7_);}
	.st9{fill:url(#SVGID_8_);}
	.st10{fill:url(#SVGID_9_);}
	.st11{fill:url(#SVGID_10_);}
	.st12{fill:url(#SVGID_11_);}
	.st13{fill:url(#SVGID_12_);}
	.st14{fill:url(#SVGID_13_);}
</style>
<title>Header</title>
<g class="st0">
	<path class="st1" d="M19.2,123.4v9.7c0,0.9,0.1,1.7,0.3,2.3s0.5,1.2,0.9,1.6s0.9,0.7,1.5,0.9s1.2,0.3,1.9,0.3s1.4-0.1,2-0.3
		s1.1-0.5,1.5-0.9s0.7-0.9,0.9-1.6c0.2-0.6,0.3-1.4,0.3-2.3v-9.7H30v10c0,0.8-0.1,1.6-0.3,2.3c-0.2,0.7-0.6,1.4-1.1,1.9
		s-1.1,1-1.9,1.3s-1.7,0.5-2.8,0.5s-2-0.2-2.8-0.5s-1.4-0.7-1.9-1.3c-0.5-0.5-0.9-1.2-1.1-1.9c-0.2-0.7-0.3-1.5-0.3-2.3v-10H19.2z"
		/>
	<path class="st1" d="M40,135.9c0.3,0.5,0.6,1,1.1,1.3s1,0.6,1.6,0.7c0.6,0.1,1.3,0.2,2,0.2c0.4,0,0.9-0.1,1.3-0.2
		c0.5-0.1,0.9-0.3,1.4-0.6s0.8-0.6,1-1s0.4-0.9,0.4-1.5c0-0.4-0.1-0.8-0.3-1.1c-0.2-0.3-0.5-0.6-0.8-0.8s-0.7-0.4-1-0.5
		s-0.8-0.3-1.1-0.3l-3.5-0.9c-0.5-0.1-0.9-0.3-1.3-0.4c-0.4-0.2-0.8-0.4-1.1-0.7c-0.3-0.3-0.6-0.7-0.8-1.1c-0.2-0.4-0.3-0.9-0.3-1.6
		c0-0.4,0.1-0.8,0.2-1.3s0.4-1,0.8-1.5s1-0.8,1.7-1.2c0.7-0.3,1.6-0.5,2.7-0.5c0.8,0,1.5,0.1,2.2,0.3s1.3,0.5,1.8,0.9
		s0.9,0.9,1.3,1.5c0.3,0.6,0.5,1.3,0.5,2.1h-1.5c0-0.6-0.2-1.1-0.4-1.6c-0.2-0.4-0.6-0.8-0.9-1.1s-0.8-0.5-1.3-0.7s-1-0.2-1.6-0.2
		c-0.5,0-1,0.1-1.5,0.2c-0.5,0.1-0.9,0.3-1.3,0.5s-0.6,0.6-0.9,1c-0.2,0.4-0.3,0.9-0.3,1.5c0,0.4,0.1,0.7,0.2,1s0.3,0.5,0.5,0.7
		s0.5,0.3,0.8,0.5c0.3,0.1,0.6,0.2,0.9,0.3l3.8,0.9c0.6,0.1,1.1,0.3,1.6,0.5s0.9,0.5,1.3,0.8s0.7,0.7,0.9,1.2s0.3,1,0.3,1.6
		c0,0.2,0,0.4-0.1,0.7c0,0.3-0.1,0.6-0.3,0.9c-0.1,0.3-0.3,0.7-0.6,1s-0.6,0.6-1.1,0.9c-0.4,0.3-1,0.5-1.7,0.7s-1.5,0.3-2.4,0.3
		s-1.8-0.1-2.6-0.3c-0.8-0.2-1.5-0.5-2-1c-0.6-0.4-1-1-1.3-1.7s-0.4-1.5-0.4-2.5h1.5C39.6,134.7,39.7,135.4,40,135.9z"/>
	<path class="st1" d="M69.6,123.4v1.3h-9.4v5.7H69v1.3h-8.8v6.2h9.5v1.3h-11v-15.8H69.6z"/>
	<path class="st1" d="M85,123.4c0.6,0,1.3,0.1,1.8,0.2c0.6,0.2,1.1,0.4,1.5,0.7s0.8,0.8,1,1.3c0.3,0.5,0.4,1.1,0.4,1.8
		c0,1-0.3,1.9-0.8,2.6s-1.3,1.2-2.3,1.4l0,0c0.5,0.1,0.9,0.2,1.3,0.4s0.6,0.5,0.8,0.8s0.4,0.7,0.5,1.1c0.1,0.4,0.2,0.8,0.2,1.3
		c0,0.3,0,0.6,0,1s0,0.8,0.1,1.2c0,0.4,0.1,0.8,0.2,1.1s0.2,0.6,0.4,0.8h-1.7c-0.1-0.1-0.2-0.3-0.2-0.5c-0.1-0.2-0.1-0.4-0.1-0.7
		c0-0.2,0-0.5-0.1-0.7s0-0.4,0-0.6c0-0.6-0.1-1.1-0.1-1.7c-0.1-0.6-0.2-1-0.4-1.5s-0.5-0.8-0.9-1s-1-0.4-1.7-0.4h-5.7v7h-1.5v-15.6
		L85,123.4L85,123.4z M84.9,130.8c0.5,0,0.9-0.1,1.3-0.2c0.4-0.1,0.8-0.3,1.1-0.6s0.6-0.6,0.7-1c0.2-0.4,0.3-0.8,0.3-1.3
		c0-1-0.3-1.7-0.8-2.3c-0.6-0.6-1.4-0.8-2.6-0.8h-5.6v6.2C79.3,130.8,84.9,130.8,84.9,130.8z"/>
	<path class="st1" d="M121.4,123.4v1.3H112v5.7h8.8v1.3H112v6.2h9.5v1.3h-11v-15.8H121.4z"/>
	<path class="st1" d="M129.8,123.4l4.4,6.6l4.6-6.6h1.7l-5.4,7.7l5.7,8.1H139l-4.8-6.9l-4.8,6.9h-1.7l5.6-8.1l-5.3-7.6L129.8,123.4
		L129.8,123.4z"/>
	<path class="st1" d="M155.2,123.4c0.7,0,1.3,0.1,1.9,0.3c0.6,0.2,1.1,0.5,1.5,0.9s0.7,0.9,0.9,1.4c0.2,0.6,0.3,1.2,0.3,1.9
		s-0.1,1.3-0.3,1.9c-0.2,0.6-0.5,1-0.9,1.4s-0.9,0.7-1.5,0.9s-1.2,0.3-1.9,0.3h-5.5v6.7h-1.5v-15.7L155.2,123.4L155.2,123.4z
		 M154.8,131.1c1,0,1.9-0.3,2.5-0.8s1-1.3,1-2.4c0-1.1-0.3-1.9-1-2.4c-0.6-0.5-1.5-0.8-2.5-0.8h-5.1v6.4
		C149.7,131.1,154.8,131.1,154.8,131.1z"/>
	<path class="st1" d="M178.9,123.4v1.3h-9.4v5.7h8.8v1.3h-8.8v6.2h9.5v1.3h-11v-15.8H178.9z"/>
	<path class="st1" d="M194.2,123.4c0.6,0,1.3,0.1,1.8,0.2c0.6,0.2,1.1,0.4,1.5,0.7s0.8,0.8,1,1.3c0.3,0.5,0.4,1.1,0.4,1.8
		c0,1-0.3,1.9-0.8,2.6s-1.3,1.2-2.3,1.4l0,0c0.5,0.1,0.9,0.2,1.3,0.4c0.4,0.2,0.6,0.5,0.8,0.8s0.4,0.7,0.5,1.1
		c0.1,0.4,0.2,0.8,0.2,1.3c0,0.3,0,0.6,0,1s0,0.8,0.1,1.2c0,0.4,0.1,0.8,0.2,1.1c0.1,0.3,0.2,0.6,0.4,0.8h-1.7
		c-0.1-0.1-0.2-0.3-0.2-0.5c-0.1-0.2-0.1-0.4-0.1-0.7c0-0.2,0-0.5-0.1-0.7s0-0.4,0-0.6c0-0.6-0.1-1.1-0.1-1.7
		c-0.1-0.6-0.2-1-0.4-1.5s-0.5-0.8-0.9-1s-1-0.4-1.7-0.4h-5.7v7h-1.5v-15.6L194.2,123.4L194.2,123.4z M194.1,130.8
		c0.5,0,0.9-0.1,1.3-0.2c0.4-0.1,0.8-0.3,1.1-0.6s0.6-0.6,0.7-1c0.2-0.4,0.3-0.8,0.3-1.3c0-1-0.3-1.7-0.8-2.3
		c-0.6-0.6-1.4-0.8-2.6-0.8h-5.6v6.2C188.5,130.8,194.1,130.8,194.1,130.8z"/>
	<path class="st1" d="M209.3,123.4v15.7h-1.5v-15.7H209.3z"/>
	<path class="st1" d="M229.4,123.4v1.3H220v5.7h8.8v1.3H220v6.2h9.5v1.3h-11v-15.8H229.4z"/>
	<path class="st1" d="M239.3,123.4l9.2,13.3l0,0v-13.3h1.5v15.7h-1.7l-9.2-13.3l0,0v13.3h-1.5v-15.7H239.3z"/>
	<path class="st1" d="M269.9,126.5c-0.3-0.5-0.7-0.9-1.1-1.2s-0.9-0.6-1.4-0.7c-0.5-0.2-1.1-0.3-1.6-0.3c-1,0-1.9,0.2-2.7,0.6
		c-0.7,0.4-1.4,0.9-1.8,1.6s-0.8,1.4-1.1,2.2c-0.3,0.8-0.3,1.7-0.3,2.5c0,0.9,0.1,1.7,0.3,2.5c0.2,0.8,0.6,1.6,1.1,2.2
		c0.5,0.7,1.1,1.2,1.8,1.6c0.7,0.4,1.6,0.6,2.7,0.6c0.7,0,1.4-0.1,2-0.4c0.6-0.3,1.1-0.6,1.5-1.1s0.8-1,1-1.6s0.4-1.3,0.5-2h1.5
		c-0.1,1-0.3,1.8-0.7,2.6c-0.4,0.8-0.8,1.4-1.4,2s-1.2,1-2,1.3s-1.6,0.4-2.5,0.4c-1.2,0-2.3-0.2-3.2-0.7s-1.7-1-2.3-1.8
		c-0.6-0.7-1.1-1.6-1.4-2.6s-0.5-2-0.5-3.1s0.2-2.1,0.5-3.1s0.8-1.9,1.4-2.6c0.6-0.8,1.4-1.4,2.3-1.8c0.9-0.4,2-0.7,3.2-0.7
		c0.7,0,1.5,0.1,2.2,0.3s1.4,0.5,1.9,1s1.1,1,1.5,1.6s0.6,1.4,0.7,2.2h-1.5C270.4,127.5,270.2,127,269.9,126.5z"/>
	<path class="st1" d="M291.4,123.4v1.3H282v5.7h8.8v1.3H282v6.2h9.5v1.3h-11v-15.8H291.4z"/>
	<path class="st1" d="M317.1,123.4c2.4,0.1,4.2,0.7,5.4,2c1.2,1.3,1.8,3.2,1.8,5.8s-0.6,4.6-1.8,5.8s-3,2-5.4,2h-5.4v-15.6H317.1z
		 M316.4,137.8c1.1,0,2.1-0.1,2.9-0.4c0.8-0.2,1.5-0.6,2-1.2s0.9-1.2,1.2-2c0.2-0.8,0.4-1.8,0.4-3s-0.1-2.2-0.4-3
		c-0.2-0.8-0.6-1.5-1.2-2s-1.2-0.9-2-1.2c-0.8-0.2-1.8-0.4-2.9-0.4h-3.2v13.2L316.4,137.8L316.4,137.8z"/>
	<path class="st1" d="M343.6,123.4v1.3h-9.4v5.7h8.8v1.3h-8.8v6.2h9.5v1.3h-11v-15.8H343.6z"/>
	<path class="st1" d="M352.8,135.9c0.3,0.5,0.6,1,1.1,1.3s1,0.6,1.6,0.7c0.6,0.1,1.3,0.2,2,0.2c0.4,0,0.9-0.1,1.3-0.2
		s0.9-0.3,1.4-0.6s0.8-0.6,1-1c0.3-0.4,0.4-0.9,0.4-1.5c0-0.4-0.1-0.8-0.3-1.1c-0.2-0.3-0.5-0.6-0.8-0.8s-0.7-0.4-1-0.5
		c-0.4-0.1-0.8-0.3-1.1-0.3l-3.5-0.9c-0.5-0.1-0.9-0.3-1.3-0.4c-0.4-0.2-0.8-0.4-1.1-0.7c-0.3-0.3-0.6-0.7-0.8-1.1
		c-0.2-0.4-0.3-0.9-0.3-1.6c0-0.4,0.1-0.8,0.2-1.3s0.4-1,0.8-1.5s1-0.8,1.7-1.2c0.7-0.3,1.6-0.5,2.7-0.5c0.8,0,1.5,0.1,2.2,0.3
		s1.3,0.5,1.8,0.9s1,0.9,1.3,1.5s0.5,1.3,0.5,2.1h-1.5c0-0.6-0.2-1.1-0.4-1.6c-0.2-0.4-0.6-0.8-0.9-1.1s-0.8-0.5-1.3-0.7
		s-1-0.2-1.6-0.2c-0.5,0-1,0.1-1.5,0.2c-0.5,0.1-0.9,0.3-1.3,0.5s-0.6,0.6-0.9,1c-0.2,0.4-0.3,0.9-0.3,1.5c0,0.4,0.1,0.7,0.2,1
		s0.3,0.5,0.5,0.7s0.5,0.3,0.8,0.5c0.3,0.1,0.6,0.2,0.9,0.3l3.8,0.9c0.6,0.1,1.1,0.3,1.6,0.5s0.9,0.5,1.3,0.8s0.7,0.7,0.9,1.2
		c0.2,0.5,0.3,1,0.3,1.6c0,0.2,0,0.4-0.1,0.7c0,0.3-0.1,0.6-0.3,0.9c-0.1,0.3-0.3,0.7-0.6,1c-0.3,0.3-0.6,0.6-1.1,0.9
		c-0.4,0.3-1,0.5-1.7,0.7s-1.5,0.3-2.4,0.3s-1.8-0.1-2.6-0.3c-0.8-0.2-1.5-0.5-2-1c-0.6-0.4-1-1-1.3-1.7s-0.4-1.5-0.4-2.5h1.5
		C352.5,134.7,352.6,135.4,352.8,135.9z"/>
	<path class="st1" d="M373.2,123.4v15.7h-1.5v-15.7H373.2z"/>
	<path class="st1" d="M394.8,139.1l-0.2-2.9l0,0c-0.3,0.6-0.6,1-1,1.4s-0.8,0.7-1.3,1s-1,0.4-1.5,0.6s-1.1,0.2-1.7,0.2
		c-1.2,0-2.3-0.2-3.2-0.7s-1.7-1-2.3-1.8c-0.6-0.7-1.1-1.6-1.4-2.6s-0.5-2-0.5-3.1s0.2-2.1,0.5-3.1s0.8-1.9,1.4-2.6
		c0.6-0.8,1.4-1.4,2.3-1.8c0.9-0.4,2-0.7,3.2-0.7c0.8,0,1.6,0.1,2.3,0.3c0.7,0.2,1.4,0.5,2,1c0.6,0.4,1.1,1,1.5,1.6s0.7,1.4,0.8,2.3
		h-1.5c0-0.5-0.2-0.9-0.5-1.4s-0.6-0.9-1-1.3c-0.4-0.4-1-0.7-1.6-0.9s-1.3-0.4-2-0.4c-1,0-1.9,0.2-2.7,0.6c-0.7,0.4-1.4,0.9-1.8,1.6
		s-0.8,1.4-1.1,2.2c-0.3,0.8-0.3,1.7-0.3,2.5c0,0.9,0.1,1.7,0.3,2.5c0.2,0.8,0.6,1.6,1.1,2.2c0.5,0.7,1.1,1.2,1.8,1.6
		c0.7,0.4,1.6,0.6,2.7,0.6c0.9,0,1.6-0.1,2.3-0.4s1.3-0.7,1.7-1.2c0.5-0.5,0.8-1.1,1.1-1.8c0.2-0.7,0.3-1.5,0.3-2.3h-5.3V131h6.7v8
		L394.8,139.1L394.8,139.1z"/>
	<path class="st1" d="M406.4,123.4l9.2,13.3l0,0v-13.3h1.5v15.7h-1.7l-9.2-13.3l0,0v13.3h-1.5v-15.7H406.4z"/>
	<path class="st1" d="M437.1,123.4v1.3h-9.4v5.7h8.8v1.3h-8.8v6.2h9.5v1.3h-11v-15.8H437.1z"/>
	<path class="st1" d="M452.5,123.4c0.6,0,1.3,0.1,1.8,0.2c0.6,0.2,1.1,0.4,1.5,0.7s0.8,0.8,1,1.3c0.3,0.5,0.4,1.1,0.4,1.8
		c0,1-0.3,1.9-0.8,2.6s-1.3,1.2-2.3,1.4l0,0c0.5,0.1,0.9,0.2,1.3,0.4c0.3,0.2,0.6,0.5,0.8,0.8c0.2,0.3,0.4,0.7,0.5,1.1
		c0.1,0.4,0.2,0.8,0.2,1.3c0,0.3,0,0.6,0,1s0,0.8,0.1,1.2c0,0.4,0.1,0.8,0.2,1.1s0.2,0.6,0.4,0.8h-1.7c-0.1-0.1-0.2-0.3-0.2-0.5
		c-0.1-0.2-0.1-0.4-0.1-0.7c0-0.2,0-0.5-0.1-0.7s0-0.4,0-0.6c0-0.6-0.1-1.1-0.1-1.7c-0.1-0.6-0.2-1-0.4-1.5c-0.2-0.4-0.5-0.8-0.9-1
		s-1-0.4-1.7-0.4h-5.7v7h-1.5v-15.6L452.5,123.4L452.5,123.4z M452.3,130.8c0.5,0,0.9-0.1,1.3-0.2c0.4-0.1,0.8-0.3,1.1-0.6
		c0.3-0.3,0.6-0.6,0.7-1c0.2-0.4,0.3-0.8,0.3-1.3c0-1-0.3-1.7-0.8-2.3s-1.4-0.8-2.6-0.8h-5.6v6.2
		C446.7,130.8,452.3,130.8,452.3,130.8z"/>
</g>
<g>
	<g>
		
			<linearGradient id="SVGID_1_" gradientUnits="userSpaceOnUse" x1="453.4475" y1="92.8334" x2="23.4705" y2="92.8334" gradientTransform="matrix(1 0 0 -1 0 154.2417)">
			<stop  offset="0" style="stop-color:#0071BC"/>
			<stop  offset="7.305315e-02" style="stop-color:#0058A4"/>
			<stop  offset="0.1848" style="stop-color:#003786"/>
			<stop  offset="0.2782" style="stop-color:#002373"/>
			<stop  offset="0.3414" style="stop-color:#001C6C"/>
			<stop  offset="0.5619" style="stop-color:#1B1D68"/>
			<stop  offset="0.6898" style="stop-color:#2D1D65"/>
			<stop  offset="0.9052" style="stop-color:#0E0920"/>
			<stop  offset="1" style="stop-color:#000000"/>
		</linearGradient>
		<path class="st2" d="M45.3,29.8c3.1-0.1,5.8,0.1,8.2,0.6c2.3,0.5,4.3,1.3,6,2.2c1.7,0.9,3.1,2,4.2,3.3c1.1,1.2,2,2.6,2.7,3.9
			c0.7,1.4,1.2,2.7,1.6,4.1c0.4,1.4,0.6,2.6,0.7,3.8s0.2,2.2,0.2,3.1c0,0.9,0,1.5,0,1.8c0,2.7-0.4,5.2-1.3,7.4s-1.9,4.1-3.3,5.7
			c-1.4,1.6-3,3-4.8,4.2s-3.7,2.1-5.6,2.9s-3.9,1.4-5.8,1.8s-3.7,0.7-5.3,0.9c0,2,0,3.9,0,5.7c0,1.8,0,3.4-0.1,4.7
			c0,1.4-0.1,2.5-0.1,3.4c-0.1,0.9-0.1,1.4-0.3,1.6c-0.3,0.7-1,1.2-1.9,1.5c-0.8,0.5-1.8,0.6-2.8,0.6c-1.1,0-2.1-0.2-2.9-0.7
			c-0.8-0.4-1.1-1.1-0.9-1.9c0.4-1.9,0.8-4.2,1-6.8c0.3-2.6,0.5-5.5,0.7-8.5c-1.7-0.4-3.2-0.9-4.7-1.6c-1.4-0.7-2.7-1.5-3.8-2.4
			s-2-2-2.6-3.1c-0.6-1.2-1-2.4-1-3.8c0.1-1.6,0.5-3.1,1.3-4.5c0.8-1.3,1.8-2.5,3.1-3.5c1.2-1,2.6-1.8,4.1-2.5s3-1.2,4.5-1.5
			c0.2-3.2,0.4-6.1,0.7-8.7c0.3-2.5,0.6-4.5,1.2-5.8c0.3-0.8,0.9-1.4,1.7-1.7c0.8-0.4,1.7-0.6,2.5-0.6c0.9,0,1.5,0.2,2,0.5
			s0.6,0.9,0.3,1.6c-0.2,0.6-0.4,1.3-0.6,2.2s-0.3,2-0.5,3.3c-0.1,1.2-0.3,2.6-0.4,4.1s-0.2,3.1-0.3,4.8c1.8,0.2,3.3,0.6,4.5,1.1
			s2.1,1.1,2.8,1.7c0.7,0.6,1.2,1.3,1.4,1.9c0.2,0.6,0.3,1.2,0.3,1.6c-0.1,0.6-0.3,1.1-0.8,1.4c-0.5,0.4-1,0.6-1.5,0.8
			c-0.5,0.2-1,0.2-1.4,0.2s-0.7-0.1-0.7-0.4c0-0.2,0.1-0.4,0.1-0.6s0-0.5,0-0.6c0-1.1-0.4-2-1.1-2.9s-1.9-1.4-3.6-1.6
			c-0.1,2.9-0.1,5.8-0.1,8.9c0,3,0,6,0,8.9c3-0.4,5.6-1,7.7-1.9s3.8-1.9,5.2-3c1.4-1.1,2.5-2.3,3.3-3.6c0.8-1.3,1.4-2.5,1.8-3.7
			s0.6-2.3,0.7-3.2c0.1-1,0.1-1.7,0.1-2.2v-0.6c0.1-3.3-0.1-6.1-0.7-8.4c-0.5-2.4-1.2-4.3-2.1-6c-0.9-1.6-1.9-2.9-3.1-3.9
			s-2.4-1.7-3.6-2.3c-1.2-0.5-2.4-0.8-3.5-1c-1.2-0.1-2.1-0.2-3-0.1c-2.7,0.3-5,0.8-6.8,1.5s-3.3,1.5-4.5,2.3s-2,1.7-2.6,2.5
			s-1,1.4-1.3,1.9c-0.1,0.1-0.1,0.2-0.2,0.3s-0.1,0.2-0.2,0.3s-0.1,0.2-0.2,0.2H30c-0.2,0.1-0.5,0.2-0.9,0.3
			c-0.4,0.4-0.8,0.4-1.1,0.4c-0.4,0-0.7-0.1-1-0.3s-0.5-0.5-0.6-1c0-0.2,0.1-0.6,0.4-1.3c0.3-0.6,0.7-1.3,1.4-2.1
			c0.6-0.8,1.4-1.6,2.5-2.5c1-0.9,2.2-1.7,3.6-2.4c1.4-0.7,3-1.4,4.9-1.9C40.9,30.2,43,29.9,45.3,29.8z M36.4,55.3
			c-1.8,0.4-3.2,1-4.2,1.8c-1,0.8-1.8,1.6-2.4,2.5s-0.9,1.7-1.1,2.6c-0.2,0.8-0.3,1.5-0.4,2c-0.1,1.1,0,2,0.5,2.9
			c0.4,0.9,1,1.6,1.7,2.3S32,70.6,33,71c0.9,0.4,1.8,0.8,2.7,1.1c0.1-1.7,0.1-3.3,0.2-5s0.1-3.3,0.2-4.9L36.4,55.3z"/>
		
			<linearGradient id="SVGID_2_" gradientUnits="userSpaceOnUse" x1="453.4475" y1="80.9208" x2="23.4705" y2="80.9208" gradientTransform="matrix(1 0 0 -1 0 154.2417)">
			<stop  offset="0" style="stop-color:#0071BC"/>
			<stop  offset="7.305315e-02" style="stop-color:#0058A4"/>
			<stop  offset="0.1848" style="stop-color:#003786"/>
			<stop  offset="0.2782" style="stop-color:#002373"/>
			<stop  offset="0.3414" style="stop-color:#001C6C"/>
			<stop  offset="0.5619" style="stop-color:#1B1D68"/>
			<stop  offset="0.6898" style="stop-color:#2D1D65"/>
			<stop  offset="0.9052" style="stop-color:#0E0920"/>
			<stop  offset="1" style="stop-color:#000000"/>
		</linearGradient>
		<path class="st3" d="M86.4,63.9c0-0.1,0-0.2,0.1-0.3c0-0.2,0.2-0.4,0.4-0.6c0.2-0.2,0.5-0.5,0.9-0.7s0.8-0.4,1.2-0.5
			c0.4-0.1,0.9-0.2,1.3-0.2c0.6,0,1.1,0.1,1.6,0.4s0.8,0.8,0.9,1.5c0.1,0.7,0.2,1.7,0.2,3s-0.1,2.8-0.2,4.4s-0.3,3.2-0.5,4.8
			c-0.1,1.6-0.3,3.1-0.4,4.5s-0.2,2.7-0.2,3.9c0,1.2,0.1,2.2,0.3,2.9c0.2,0.8,0.5,1.1,0.9,1c0.3,0,0.7-0.4,1.2-1.2
			c0.5-0.8,1-1.7,1.5-2.9c0.5-1.2,1-2.5,1.6-3.9c0.5-1.4,1.1-2.9,1.6-4.3s1-2.8,1.4-4.1c0.4-1.3,0.8-2.4,1.1-3.2l0.6-1.8
			c0.1-0.3,0.4-0.4,0.8-0.5c0.4-0.1,0.8-0.1,1.3,0c0.4,0.1,0.8,0.2,1.1,0.4c0.3,0.2,0.4,0.4,0.3,0.6V67l-0.4,1.6
			c-0.2,1-0.5,2.3-0.9,3.8s-0.9,3.1-1.5,4.8c-0.6,1.7-1.3,3.4-2,5.1s-1.6,3.2-2.5,4.6s-1.9,2.5-3,3.3s-2.3,1.2-3.5,1.2
			c-0.8-0.1-1.5-0.4-2.1-0.9s-1.1-1.2-1.6-1.9c-0.4-0.8-0.8-1.7-1.1-2.7c-0.3-1-0.5-2.1-0.7-3.3c-0.5,1-1.2,1.8-2.1,2.6
			c-0.9,0.8-2,1.3-3.3,1.5c-2.6,0.1-4.6-0.2-6-1.2c-1.5-0.9-2.6-2.1-3.3-3.5c-0.7-1.4-1.2-2.8-1.4-4.4c-0.2-1.5-0.3-2.9-0.3-4
			c0-0.7,0-1.7,0.1-2.9c0.1-1.2,0.3-2.4,0.6-3.8c0.3-1.3,0.8-2.7,1.4-4c0.6-1.4,1.3-2.6,2.3-3.7s2.1-2,3.5-2.8
			c1.4-0.7,3-1.1,4.8-1.2c1.5,0,2.7,0.1,3.6,0.4c0.9,0.3,1.7,0.7,2.3,1.1c0.6,0.4,1,0.9,1.2,1.4c0.3,0.5,0.4,0.9,0.6,1.3l0.2,0.6
			v-0.1c0.3,0.6,0.3,1.1-0.1,1.4s-0.9,0.5-1.5,0.5c-0.4,0-0.8-0.1-1.2-0.3c-0.4-0.2-0.8-0.4-1.1-0.8c-0.2-0.1-0.3-0.3-0.3-0.3
			c0-0.1,0-0.2-0.1-0.3c-0.2-0.4-0.5-0.9-0.9-1.4S84,57.9,83,58c-0.6,0-1.2,0.4-1.8,1.1c-0.6,0.7-1.3,1.7-1.8,3
			c-0.6,1.3-1.1,2.9-1.5,4.7c-0.4,1.8-0.7,3.9-0.9,6.3c0,0.2,0,0.5,0,0.9s0,0.7,0,0.8c0,2.2,0.2,3.9,0.5,5s0.7,1.9,1.2,2.5
			c0.4,0.5,0.9,0.8,1.3,0.8s0.8,0.1,1,0.1c0.4,0,0.9-0.2,1.4-0.7c0.5-0.4,0.9-1,1.4-1.6c0.4-0.6,0.8-1.4,1.2-2.1
			c0.4-0.8,0.7-1.5,1-2.1c0-1.4,0-2.8,0.1-4.1c0.1-1.4,0.2-2.6,0.3-3.8c0.1-1.2,0.2-2.1,0.3-3C86.3,64.8,86.4,64.2,86.4,63.9z"/>
		
			<linearGradient id="SVGID_3_" gradientUnits="userSpaceOnUse" x1="453.4475" y1="72.4209" x2="23.4705" y2="72.4209" gradientTransform="matrix(1 0 0 -1 0 154.2417)">
			<stop  offset="0" style="stop-color:#0071BC"/>
			<stop  offset="7.305315e-02" style="stop-color:#0058A4"/>
			<stop  offset="0.1848" style="stop-color:#003786"/>
			<stop  offset="0.2782" style="stop-color:#002373"/>
			<stop  offset="0.3414" style="stop-color:#001C6C"/>
			<stop  offset="0.5619" style="stop-color:#1B1D68"/>
			<stop  offset="0.6898" style="stop-color:#2D1D65"/>
			<stop  offset="0.9052" style="stop-color:#0E0920"/>
			<stop  offset="1" style="stop-color:#000000"/>
		</linearGradient>
		<path class="st4" d="M116.8,58c0-0.5,0.1-0.9,0.3-1.3c0.2-0.4,0.5-0.6,0.9-0.8s0.8-0.4,1.3-0.4c0.5-0.1,1-0.1,1.5-0.1
			c0.7,0,1.4,0.1,2,0.2c0.6,0.1,1.1,0.4,1.5,0.6v-0.1c0.4,0.3,0.6,1.3,0.6,3.1c0,1,0,2.2-0.1,3.6c-0.1,1.4-0.2,2.9-0.4,4.5
			s-0.4,3.4-0.7,5.2c-0.3,1.8-0.6,3.7-0.9,5.7c2.5-2.6,4.7-5.1,6.8-7.7c2.1-2.5,3.6-4.9,4.6-7c0.1-0.2,0.4-0.3,0.8-0.3
			c0.4,0,0.9,0,1.4,0.1s0.9,0.3,1.2,0.6c0.3,0.3,0.4,0.6,0.3,1c-0.7,1.6-1.6,3.3-2.8,5s-2.5,3.5-4,5.3s-3.1,3.5-4.8,5.2
			c-1.7,1.7-3.4,3.4-5,5c-0.4,2-0.9,3.9-1.4,5.8s-1.1,3.6-1.6,5.3c-0.6,1.6-1.2,3.1-1.8,4.4s-1.3,2.4-1.9,3.2
			c-1.2,1.4-2.4,2.5-3.6,3.1s-2.5,1-3.6,1c-1.5,0-2.8-0.4-3.7-1.3c-1-0.9-1.4-2.1-1.4-3.6c0-0.5,0.1-1.1,0.2-1.6
			c0.1-0.6,0.3-1.2,0.6-1.8v0.1c0.3-0.7,0.8-1.5,1.6-2.4s1.7-2,2.7-3.1s2.2-2.3,3.5-3.6c1.3-1.3,2.6-2.6,3.9-3.9l0.5-0.6
			c0.3-2.5,0.6-4.9,0.9-7.4c0.2-2.5,0.4-4.9,0.6-7.1c-0.7,1.4-1.5,2.9-2.4,4.4s-1.9,3-2.9,4.3s-2.1,2.4-3.2,3.3
			c-1.1,0.9-2.1,1.3-3.2,1.4c-1.2,0-2.2-0.2-3-0.6s-1.4-0.9-1.9-1.5s-0.9-1.4-1.1-2.3c-0.2-0.9-0.3-1.8-0.3-2.8
			c0-1.1,0.1-2.2,0.2-3.3c0.1-1.1,0.3-2.3,0.4-3.5c0.2-1.2,0.3-2.3,0.5-3.4c0.1-1.1,0.2-2.1,0.2-3c0-1.6-0.2-2.8-0.7-3.7
			c-0.2-0.4-0.3-0.7-0.1-1c0.1-0.3,0.4-0.6,0.8-0.8c0.4-0.2,0.9-0.4,1.4-0.5s1.1-0.2,1.7-0.2c1,0,1.9,0.2,2.8,0.5
			c0.8,0.4,1.3,0.8,1.4,1.5c0.1,0.4,0.2,0.9,0.3,1.5c0.1,0.5,0.1,1.1,0.1,1.7c0,1.6-0.2,3.2-0.5,5s-0.6,3.5-1,5.2
			c-0.3,1.3-0.5,2.6-0.7,3.8c-0.2,1.2-0.3,2.1-0.3,2.9c0,1.1,0.2,1.7,0.7,1.7c0.2-0.1,0.6-0.5,1.2-1.3c0.6-0.8,1.3-1.7,2-3
			c0.7-1.2,1.5-2.6,2.4-4.1s1.6-3,2.4-4.5c0.8-1.5,1.5-3,2.1-4.4c0.6-1.4,1.1-2.7,1.4-3.8c0-0.9,0.1-1.7,0.1-2.2
			C116.8,58.4,116.8,58.1,116.8,58z M108.5,105.3c1.1-0.9,2.1-2.5,2.9-4.8c0.8-2.3,1.6-4.9,2.2-7.9c-1.2,1.2-2.2,2.3-3.2,3.4
			s-1.8,2.2-2.5,3.2s-1.2,2-1.6,2.9c-0.4,0.9-0.5,1.8-0.5,2.5c0,0.3,0.1,0.6,0.2,1c0.1,0.4,0.3,0.6,0.6,0.6c0.2,0,0.4-0.1,0.8-0.2
			C107.7,105.9,108,105.7,108.5,105.3z"/>
		
			<linearGradient id="SVGID_4_" gradientUnits="userSpaceOnUse" x1="453.4475" y1="80.9208" x2="23.4705" y2="80.9208" gradientTransform="matrix(1 0 0 -1 0 154.2417)">
			<stop  offset="0" style="stop-color:#0071BC"/>
			<stop  offset="7.305315e-02" style="stop-color:#0058A4"/>
			<stop  offset="0.1848" style="stop-color:#003786"/>
			<stop  offset="0.2782" style="stop-color:#002373"/>
			<stop  offset="0.3414" style="stop-color:#001C6C"/>
			<stop  offset="0.5619" style="stop-color:#1B1D68"/>
			<stop  offset="0.6898" style="stop-color:#2D1D65"/>
			<stop  offset="0.9052" style="stop-color:#0E0920"/>
			<stop  offset="1" style="stop-color:#000000"/>
		</linearGradient>
		<path class="st5" d="M147.5,63.9c0-0.1,0-0.2,0.1-0.3c0-0.2,0.2-0.4,0.4-0.6s0.5-0.5,0.9-0.7s0.8-0.4,1.2-0.5s0.9-0.2,1.3-0.2
			c0.6,0,1.1,0.1,1.6,0.4s0.8,0.8,0.9,1.5c0.1,0.7,0.2,1.7,0.2,3s-0.1,2.8-0.2,4.4c-0.1,1.6-0.3,3.2-0.5,4.8
			c-0.1,1.6-0.3,3.1-0.4,4.5c-0.1,1.4-0.2,2.7-0.2,3.9c0,1.2,0.1,2.2,0.3,2.9c0.2,0.8,0.5,1.1,0.9,1c0.3,0,0.7-0.4,1.2-1.2
			c0.5-0.8,1-1.7,1.5-2.9c0.5-1.2,1-2.5,1.6-3.9c0.5-1.4,1.1-2.9,1.6-4.3s1-2.8,1.4-4.1c0.4-1.3,0.8-2.4,1.1-3.2l0.6-1.8
			c0.1-0.3,0.4-0.4,0.8-0.5c0.4-0.1,0.8-0.1,1.3,0c0.4,0.1,0.8,0.2,1.1,0.4c0.3,0.2,0.4,0.4,0.3,0.6V67l-0.4,1.6
			c-0.2,1-0.5,2.3-0.9,3.8s-0.9,3.1-1.5,4.8c-0.6,1.7-1.3,3.4-2,5.1s-1.6,3.2-2.5,4.6s-1.9,2.5-3,3.3s-2.3,1.2-3.5,1.2
			c-0.8-0.1-1.5-0.4-2.1-0.9s-1.1-1.2-1.6-1.9c-0.4-0.8-0.8-1.7-1.1-2.7s-0.5-2.1-0.7-3.3c-0.5,1-1.2,1.8-2.1,2.6
			c-0.9,0.8-2,1.3-3.3,1.5c-2.6,0.1-4.6-0.2-6-1.2c-1.5-0.9-2.6-2.1-3.3-3.5s-1.2-2.8-1.4-4.4c-0.2-1.5-0.3-2.9-0.3-4
			c0-0.7,0-1.7,0.1-2.9c0.1-1.2,0.3-2.4,0.6-3.8c0.3-1.3,0.8-2.7,1.4-4c0.6-1.4,1.3-2.6,2.3-3.7s2.1-2,3.5-2.8
			c1.4-0.7,3-1.1,4.8-1.2c1.5,0,2.7,0.1,3.6,0.4c0.9,0.3,1.7,0.7,2.3,1.1c0.6,0.4,1,0.9,1.2,1.4c0.3,0.5,0.4,0.9,0.6,1.3l0.2,0.6
			v-0.1c0.3,0.6,0.3,1.1-0.1,1.4c-0.4,0.3-0.9,0.5-1.5,0.5c-0.4,0-0.8-0.1-1.2-0.3c-0.4-0.2-0.8-0.4-1.1-0.8
			c-0.2-0.1-0.3-0.3-0.3-0.3c0-0.1,0-0.2-0.1-0.3c-0.2-0.4-0.5-0.9-0.9-1.4s-1.1-0.8-2.1-0.7c-0.6,0-1.2,0.4-1.8,1.1s-1.3,1.7-1.8,3
			c-0.6,1.3-1.1,2.9-1.5,4.7c-0.4,1.8-0.7,3.9-0.9,6.3c0,0.2,0,0.5,0,0.9s0,0.7,0,0.8c0,2.2,0.2,3.9,0.5,5s0.7,1.9,1.2,2.5
			c0.4,0.5,0.9,0.8,1.3,0.8c0.4,0,0.8,0.1,1,0.1c0.4,0,0.9-0.2,1.4-0.7c0.5-0.4,0.9-1,1.4-1.6c0.4-0.6,0.8-1.4,1.2-2.1
			c0.4-0.8,0.7-1.5,1-2.1c0-1.4,0-2.8,0.1-4.1c0.1-1.4,0.2-2.6,0.3-3.8c0.1-1.2,0.2-2.1,0.3-3C147.3,64.8,147.4,64.2,147.5,63.9z"/>
		
			<linearGradient id="SVGID_5_" gradientUnits="userSpaceOnUse" x1="453.4475" y1="93.1709" x2="23.4705" y2="93.1709" gradientTransform="matrix(1 0 0 -1 0 154.2417)">
			<stop  offset="0" style="stop-color:#0071BC"/>
			<stop  offset="7.305315e-02" style="stop-color:#0058A4"/>
			<stop  offset="0.1848" style="stop-color:#003786"/>
			<stop  offset="0.2782" style="stop-color:#002373"/>
			<stop  offset="0.3414" style="stop-color:#001C6C"/>
			<stop  offset="0.5619" style="stop-color:#1B1D68"/>
			<stop  offset="0.6898" style="stop-color:#2D1D65"/>
			<stop  offset="0.9052" style="stop-color:#0E0920"/>
			<stop  offset="1" style="stop-color:#000000"/>
		</linearGradient>
		<path class="st6" d="M168.5,36.6c0.7-0.8,1.5-1.4,2.4-1.7c0.9-0.4,1.8-0.6,2.6-0.6s1.6,0.2,2.4,0.5c0.8,0.3,1.5,0.8,2.1,1.3
			c0.6,0.6,1.1,1.2,1.4,2c0.4,0.8,0.5,1.7,0.5,2.6c0,4.1-0.4,7.9-1.2,11.3c-0.8,3.5-1.7,6.6-2.9,9.4c-1.1,2.8-2.3,5.3-3.6,7.4
			s-2.4,3.8-3.3,5.1c0.1,1.9,0.4,3.5,0.6,4.8c0.3,1.3,0.6,2.4,0.8,3.2c0.3,0.8,0.5,1.4,0.8,1.8c0.2,0.4,0.4,0.6,0.4,0.6
			c0.5-0.1,1.2-0.6,2-1.6s1.7-2.1,2.6-3.5c0.9-1.4,1.9-2.8,2.8-4.4c0.9-1.6,1.8-3.1,2.6-4.5s1.4-2.6,1.9-3.5c0.5-1,0.8-1.5,0.8-1.7
			c0-0.3,0.2-0.5,0.6-0.7c0.3-0.2,0.7-0.3,1.1-0.3c0.4,0,0.8,0.1,1.1,0.3c0.4,0.2,0.6,0.5,0.8,0.9c0,0.5-0.3,1.3-0.8,2.5
			c-0.5,1.1-1.1,2.4-1.8,3.8s-1.5,2.9-2.4,4.4s-1.7,3-2.5,4.3s-1.5,2.5-2.1,3.4c-0.6,1-1.1,1.6-1.3,1.8c-0.8,0.7-1.7,1.3-2.6,1.7
			c-1,0.4-1.9,0.6-3,0.6c-0.9,0-1.7-0.1-2.4-0.4c-0.8-0.3-1.4-0.7-1.9-1.3c-1-1.1-1.9-2.5-2.6-4c-0.7-1.5-1.3-3.1-1.8-4.8
			c-0.5-1.7-0.8-3.5-1.1-5.4c-0.2-1.9-0.4-3.8-0.4-5.7c0-3.2,0.2-6.4,0.7-9.6c0.5-3.2,1-6.1,1.8-8.8c0.7-2.7,1.5-5,2.3-7
			C167,38.8,167.8,37.4,168.5,36.6z M168.9,69.9c1-2,1.8-4,2.5-6c0.7-2.1,1.3-4.1,1.7-6.1c0.5-2,0.8-3.9,1.1-5.7s0.5-3.5,0.6-5
			s0.2-2.8,0.3-3.9c0-1.1,0.1-1.9,0.1-2.4v-0.5c0-2.2-0.2-3.3-0.7-3.3c-0.3,0-0.6,0.3-1,1s-0.7,1.6-1,2.8c-0.6,2.7-1.1,5.4-1.6,7.9
			c-0.4,2.6-0.8,5-1.1,7.4c-0.3,2.3-0.5,4.5-0.7,6.5c-0.1,2-0.2,3.8-0.2,5.4L168.9,69.9L168.9,69.9z"/>
		
			<linearGradient id="SVGID_6_" gradientUnits="userSpaceOnUse" x1="453.4475" y1="89.8709" x2="23.4705" y2="89.8709" gradientTransform="matrix(1 0 0 -1 0 154.2417)">
			<stop  offset="0" style="stop-color:#0071BC"/>
			<stop  offset="7.305315e-02" style="stop-color:#0058A4"/>
			<stop  offset="0.1848" style="stop-color:#003786"/>
			<stop  offset="0.2782" style="stop-color:#002373"/>
			<stop  offset="0.3414" style="stop-color:#001C6C"/>
			<stop  offset="0.5619" style="stop-color:#1B1D68"/>
			<stop  offset="0.6898" style="stop-color:#2D1D65"/>
			<stop  offset="0.9052" style="stop-color:#0E0920"/>
			<stop  offset="1" style="stop-color:#000000"/>
		</linearGradient>
		<path class="st7" d="M201.2,45.3c2.8-3.3,5.8-5.8,9-7.5s6.4-2.7,9.5-3c0.6-0.1,1.2-0.1,1.8-0.2c0.6,0,1.2-0.1,1.8-0.1
			c3.2,0,6.1,0.5,9,1.4c2.8,0.9,5.3,2.3,7.4,4.1s3.7,4,5,6.6c1.2,2.6,1.8,5.6,1.7,8.9c0,1.2-0.3,2.4-0.7,3.5
			c-0.4,1.1-0.9,2.1-1.6,3.1c-0.6,1-1.4,1.9-2.2,2.7c-0.8,0.8-1.7,1.6-2.5,2.2c-2,1.6-4.3,3-6.9,4.2c0.4,0.2,0.8,0.6,1.4,1
			c0.6,0.5,1.1,1.1,1.6,1.8c0.5,0.7,0.9,1.6,1.3,2.6c0.3,1,0.5,2.2,0.4,3.5c-0.1,1.9-0.7,3.5-1.6,4.9s-2,2.6-3.3,3.7
			c-1.3,1-2.8,1.9-4.4,2.6s-3.2,1.2-4.8,1.7c-1.6,0.4-3,0.7-4.3,0.9c-1.3,0.2-2.4,0.3-3.2,0.3c-2.9-0.1-5.4-0.6-7.4-1.4
			s-3.7-1.8-5-2.8c-1.3-1.1-2.2-2.2-2.8-3.3c-0.6-1.1-0.9-2.1-0.9-2.9c0.2-2,0.9-3.7,1.9-5c1.1-1.4,2.2-2.4,3.5-3.2
			c1.3-0.8,2.6-1.4,3.8-1.8s2.1-0.6,2.7-0.7c0.1,0,0.1,0,0.2,0c0.1,0,0.1,0,0.2,0c-0.2-2-0.4-4.1-0.6-6.3c-0.1-2.2-0.3-4.4-0.4-6.7
			c-0.1-2.2-0.2-4.3-0.2-6.3s-0.1-3.8-0.1-5.3c0-1.4,0-2.5,0.1-3.4s0.1-1.4,0.2-1.5h0.1c0.2-0.3,0.6-0.6,1.2-0.8
			c0.6-0.2,1.3-0.3,1.9-0.3c0.5,0,1,0.1,1.5,0.2c0.5,0.1,0.9,0.3,1.3,0.5c0.4,0.2,0.7,0.6,0.9,1s0.2,0.9,0.2,1.4c0,0,0,0.6-0.1,1.6
			s-0.2,2.4-0.3,4.1c-0.1,1.7-0.2,3.6-0.2,5.8c-0.1,2.2-0.1,4.4-0.1,6.6c0,1.6,0,3.2,0.1,4.8c0,1.6,0.1,3.1,0.2,4.6
			c1,0.1,1.8,0.3,2.5,0.6c0.7,0.3,1.3,0.5,1.7,0.8s0.8,0.6,1.1,0.9c0.3,0.3,0.5,0.6,0.8,0.8l0.1,0.2c0.2,0.3,0.3,0.7,0.3,1.1
			c0,0.5,0,0.8-0.2,1.1c-0.2,0.3-0.5,0.3-0.9,0.2c-0.4-0.1-1-0.5-1.7-1.3c-0.7-0.7-1.8-1.2-3.3-1.4c0.3,2.6,0.8,4.5,1.4,5.8h-0.1
			c0.3,0.5,0.5,1,0.5,1.4c0,0.6-0.2,1-0.7,1.3s-1.3,0.3-2.4,0c-1.2-0.3-2-0.7-2.5-1.3c-0.5-0.6-0.8-1.2-1-1.9
			c-0.2-0.7-0.4-1.5-0.5-2.5c-0.2-1-0.3-2-0.5-3.2c-0.1,0-0.3,0.1-0.5,0.1c-1.6,0.2-2.8,0.7-3.8,1.4c-0.9,0.7-1.7,1.6-2.2,2.5
			s-0.9,1.8-1.1,2.6c-0.2,0.8-0.3,1.5-0.3,1.9c0,1.2,0.4,2.1,1.2,3c0.8,0.8,1.8,1.5,2.9,2c1.1,0.5,2.3,0.8,3.6,1s2.5,0.2,3.5,0.1
			c3.3-0.4,6-1.1,7.9-2.1c1.9-1,3.4-2.1,4.4-3.3c1-1.2,1.6-2.3,1.9-3.5s0.4-2.1,0.4-2.8s-0.2-1.5-0.6-2.3s-0.9-1.6-1.5-2.3
			c-0.6-0.7-1.4-1.3-2.3-1.7c-0.9-0.5-1.8-0.7-2.8-0.8c-0.7,0-1-0.1-0.9-0.4s0.4-0.6,0.9-0.9c0.5-0.4,1.1-0.7,1.8-1s1.3-0.5,1.8-0.6
			c1.5-0.2,2.8-0.6,4-1.3c1.2-0.6,2.1-1.4,3-2.2c0.8-0.9,1.5-1.8,2.1-2.7c0.6-1,1-1.9,1.4-2.8s0.6-1.8,0.8-2.5
			c0.1-0.8,0.2-1.4,0.3-1.8c-0.3-3.1-0.9-5.7-1.9-7.9c-1-2.1-2.2-3.9-3.7-5.2s-3.1-2.3-5-2.8c-1.8-0.6-3.7-0.9-5.5-0.9
			c-0.5,0-1,0-1.5,0.1c-0.5,0-1,0.1-1.5,0.2h0.1c-1.8,0.2-3.5,0.6-5.1,1.3c-1.6,0.6-3,1.3-4.3,2s-2.3,1.5-3.2,2.2s-1.6,1.4-2,1.8
			c-0.2,0.2-0.5,0.3-0.9,0.4c-0.4,0.1-0.8,0-1.1,0c-0.4-0.1-0.6-0.2-0.9-0.3C201,45.6,201,45.4,201.2,45.3z"/>
		
			<linearGradient id="SVGID_7_" gradientUnits="userSpaceOnUse" x1="453.4475" y1="92.4004" x2="23.4705" y2="92.4004" gradientTransform="matrix(1 0 0 -1 0 154.2417)">
			<stop  offset="0" style="stop-color:#0071BC"/>
			<stop  offset="7.305315e-02" style="stop-color:#0058A4"/>
			<stop  offset="0.1848" style="stop-color:#003786"/>
			<stop  offset="0.2782" style="stop-color:#002373"/>
			<stop  offset="0.3414" style="stop-color:#001C6C"/>
			<stop  offset="0.5619" style="stop-color:#1B1D68"/>
			<stop  offset="0.6898" style="stop-color:#2D1D65"/>
			<stop  offset="0.9052" style="stop-color:#0E0920"/>
			<stop  offset="1" style="stop-color:#000000"/>
		</linearGradient>
		<path class="st8" d="M265.9,55.5c2.1,0,3.5,0.6,4.3,1.9s1.2,3,1.2,5.1c0,0.7-0.1,1.5-0.2,2.6c-0.1,1-0.3,2.1-0.5,3.3
			c-0.2,1.2-0.4,2.3-0.6,3.4s-0.4,2.1-0.6,2.8c-0.3,1.7-0.7,3.3-1,5s-0.5,3-0.5,4.1c0,0.8,0.1,1.5,0.3,1.9c0.2,0.5,0.5,0.7,0.9,0.8
			c0.4,0,0.9-0.3,1.4-0.8c0.5-0.6,1-1.3,1.6-2.2c0.6-0.9,1.1-2,1.7-3.2s1.2-2.4,1.7-3.6s1-2.4,1.5-3.6s0.9-2.2,1.3-3.2
			c0.3-0.7,0.5-1.4,0.8-1.9c0.2-0.5,0.4-0.9,0.5-1V67c0.1-0.3,0.4-0.5,0.8-0.7c0.4-0.1,0.8-0.2,1.3-0.2c0.6,0,1.2,0.1,1.6,0.4
			s0.6,0.7,0.4,1.3c-1.4,4.5-2.9,8.2-4.5,11.1s-3.2,5.2-4.7,6.8c-1.5,1.7-3,2.7-4.3,3.3c-1.3,0.5-2.3,0.7-3.1,0.4
			c-1.3-0.4-2.2-1.2-2.7-2.4c-0.5-1.2-0.7-2.6-0.7-4.2c0-1.4,0.1-3,0.4-4.8s0.6-3.4,0.9-5.1c0.3-1.5,0.6-3,0.8-4.4
			c0.2-1.4,0.3-2.7,0.3-3.8c0-1-0.1-1.9-0.4-2.5s-0.7-1-1.3-1.1c-0.7,0-1.7,0.4-2.7,1.4c-1.1,0.9-2.1,2.1-3.2,3.6
			c-1.1,1.4-2,3-3,4.7s-1.6,3.2-2,4.7c0,1.3,0.1,2.5,0.2,3.5s0.3,1.8,0.6,2.5c0.2,0.4,0.3,0.8,0.3,1.2c0,0.4,0,0.7-0.2,1
			s-0.5,0.4-0.9,0.5c-0.5,0.1-1.1,0-1.9-0.1c-1.2-0.3-2-0.7-2.5-1.3c-0.5-0.6-0.8-1.3-0.9-1.9c-0.2-0.7-0.3-1.7-0.4-2.8
			c-0.1-1.2-0.1-2.5-0.1-4c0-2.2,0.1-4.6,0.2-7.4c0.1-2.7,0.3-5.5,0.5-8.3c0.2-2.8,0.4-5.6,0.7-8.3c0.2-2.7,0.5-5.1,0.7-7.3
			c0.2-2.1,0.5-3.9,0.6-5.2c0.2-1.4,0.3-2.1,0.4-2.3v-0.1c0.2-0.3,0.6-0.5,1.2-0.8c0.6-0.2,1.2-0.3,2-0.3c0.5,0,1,0.1,1.5,0.2
			c0.5,0.1,0.9,0.3,1.3,0.5s0.6,0.6,0.8,0.9c0.2,0.4,0.2,0.9,0.1,1.4c0,0-0.1,0.8-0.4,2.4c-0.3,1.6-0.6,3.6-1,6.1s-0.8,5.3-1.2,8.4
			c-0.4,3.1-0.8,6.2-1.1,9.3c0.7-0.9,1.5-1.9,2.5-2.8c0.9-0.9,1.9-1.8,2.9-2.5c1-0.8,2.1-1.4,3.1-1.9
			C263.8,55.7,264.9,55.5,265.9,55.5z"/>
		
			<linearGradient id="SVGID_8_" gradientUnits="userSpaceOnUse" x1="453.4475" y1="81.5709" x2="23.4705" y2="81.5709" gradientTransform="matrix(1 0 0 -1 0 154.2417)">
			<stop  offset="0" style="stop-color:#0071BC"/>
			<stop  offset="7.305315e-02" style="stop-color:#0058A4"/>
			<stop  offset="0.1848" style="stop-color:#003786"/>
			<stop  offset="0.2782" style="stop-color:#002373"/>
			<stop  offset="0.3414" style="stop-color:#001C6C"/>
			<stop  offset="0.5619" style="stop-color:#1B1D68"/>
			<stop  offset="0.6898" style="stop-color:#2D1D65"/>
			<stop  offset="0.9052" style="stop-color:#0E0920"/>
			<stop  offset="1" style="stop-color:#000000"/>
		</linearGradient>
		<path class="st9" d="M296.5,54.5c0.2-0.3,0.5-0.5,0.8-0.7c0.4-0.2,0.7-0.3,1.2-0.5c0.4-0.1,0.9-0.2,1.3-0.2c0.7,0,1.4,0.2,1.8,0.5
			c0.5,0.3,0.7,0.9,0.7,1.7c-0.1,1-0.2,2.2-0.3,3.8c-0.1,1.6-0.3,3.3-0.6,5.2c-0.2,1.4-0.4,3-0.5,4.5c-0.1,1.6-0.3,3.1-0.4,4.6
			s-0.3,3-0.3,4.5c-0.1,1.4-0.1,2.8-0.1,4c0,1.9,0.1,3.4,0.4,4.6c0.2,1.2,0.6,1.8,1.1,1.8c0.3-0.1,0.7-0.5,1.1-1.3s0.9-1.7,1.4-2.8
			s1-2.4,1.5-3.8s1-2.8,1.5-4.2c0.5-1.4,0.9-2.8,1.3-4.1c0.4-1.3,0.8-2.4,1.1-3.4c0.1-0.4,0.2-0.7,0.3-1.1c0.1-0.4,0.3-0.7,0.4-1.1
			c0.1-0.3,0.4-0.4,0.8-0.5s0.8-0.1,1.2,0c0.4,0.1,0.8,0.2,1.1,0.4c0.3,0.2,0.4,0.4,0.3,0.6s-0.3,0.7-0.4,1.6
			c-0.2,1-0.5,2.2-0.9,3.8c-0.4,1.6-0.8,3.3-1.4,5s-1.2,3.6-1.9,5.4c-0.7,1.8-1.5,3.4-2.5,4.8c-0.9,1.4-1.9,2.6-3,3.4
			c-1.1,0.9-2.3,1.2-3.6,1.2c-1.2-0.1-2.1-0.5-2.9-1.3s-1.4-1.9-1.8-3.2s-0.8-2.8-0.9-4.6s-0.3-3.6-0.3-5.5s0.1-3.8,0.2-5.7
			c-0.6,1.4-1.3,2.9-2.1,4.4c-0.8,1.5-1.7,2.9-2.6,4.1s-1.9,2.3-2.8,3.1c-1,0.8-2,1.3-3,1.3c-2.1-0.1-3.5-0.7-4.4-1.9
			s-1.3-2.8-1.3-4.7c0-1.4,0.1-2.9,0.4-4.5s0.6-3.2,0.9-4.9c0.3-1.6,0.6-3.1,0.9-4.5c0.2-1.5,0.4-2.8,0.4-4c0-1.3-0.2-2.3-0.6-3.1
			h-0.1c-0.4-0.7-0.3-1.3,0.3-1.7c0.6-0.4,1.4-0.6,2.4-0.6c0.8,0,1.6,0.2,2.4,0.5c0.8,0.4,1.2,0.9,1.3,1.6c0.3,1,0.4,2.1,0.4,3.2
			c0,1.6-0.2,3.2-0.5,5c-0.3,1.8-0.7,3.5-1.1,5.2c-0.3,1.4-0.5,2.7-0.8,3.8c-0.2,1.2-0.3,2.2-0.3,3c0,1.2,0.3,1.7,0.8,1.8
			c0.2-0.1,0.6-0.5,1.1-1.2s1.2-1.6,1.8-2.8c0.7-1.1,1.4-2.4,2.2-3.8c0.8-1.4,1.5-2.8,2.2-4.3s1.4-2.9,2-4.3
			c0.6-1.4,1.1-2.7,1.5-3.8c0.1-0.8,0.2-1.4,0.3-2c0.1-0.6,0.2-1,0.2-1.3c0-0.1,0-0.1,0-0.1s0,0,0-0.1v-0.1
			C296.2,55.1,296.3,54.8,296.5,54.5z"/>
		
			<linearGradient id="SVGID_9_" gradientUnits="userSpaceOnUse" x1="453.4475" y1="78.3709" x2="23.4705" y2="78.3709" gradientTransform="matrix(1 0 0 -1 0 154.2417)">
			<stop  offset="0" style="stop-color:#0071BC"/>
			<stop  offset="7.305315e-02" style="stop-color:#0058A4"/>
			<stop  offset="0.1848" style="stop-color:#003786"/>
			<stop  offset="0.2782" style="stop-color:#002373"/>
			<stop  offset="0.3414" style="stop-color:#001C6C"/>
			<stop  offset="0.5619" style="stop-color:#1B1D68"/>
			<stop  offset="0.6898" style="stop-color:#2D1D65"/>
			<stop  offset="0.9052" style="stop-color:#0E0920"/>
			<stop  offset="1" style="stop-color:#000000"/>
		</linearGradient>
		<path class="st10" d="M308.5,51.9c0-0.5,0.1-0.9,0.3-1.3c0.2-0.4,0.5-0.6,0.9-0.8s0.8-0.4,1.3-0.4c0.5-0.1,1-0.1,1.5-0.1
			c0.7,0,1.4,0.1,2,0.2c0.6,0.1,1.1,0.4,1.4,0.6c0.4,0.3,0.7,1.8,0.7,4.4c0,1.4-0.1,3-0.2,4.9s-0.3,3.9-0.4,6.1
			c-0.2,2.2-0.4,4.5-0.7,7c-0.3,2.4-0.6,4.9-1,7.3c2.3-2.6,4.5-5.1,6.5-7.6s3.5-4.9,4.6-7.2c0.1-0.2,0.4-0.3,0.8-0.4
			s0.8-0.1,1.2-0.1c0.4,0.1,0.7,0.2,1,0.4c0.3,0.2,0.3,0.5,0.2,0.9c-0.7,1.7-1.6,3.4-2.7,5.2c-1.1,1.8-2.4,3.6-3.8,5.4
			s-2.9,3.6-4.4,5.5c-1.6,1.8-3.1,3.6-4.6,5.3c-0.4,2.3-0.8,4.4-1.3,6.5s-1,4-1.5,5.8s-1.1,3.4-1.7,4.7c-0.6,1.4-1.2,2.5-1.8,3.2
			c-1.2,1.4-2.4,2.5-3.6,3.1c-1.3,0.6-2.5,1-3.7,1c-1.5,0-2.8-0.5-3.7-1.4c-0.9-0.9-1.4-2.1-1.4-3.7c0-1.1,0.2-2.2,0.7-3.3
			c0.5-1.1,1.2-2.3,2-3.6c0.9-1.3,1.8-2.6,2.9-4s2.3-2.8,3.6-4.2c1.3-1.4,2.6-2.9,3.9-4.3c0.3-2.6,0.5-5.3,0.6-8s0.3-5.4,0.3-7.9
			s0.1-5,0.2-7.3c0-2.3,0.1-4.3,0.1-6c0-1.8,0-3.2-0.1-4.3C308.5,52.5,308.5,52,308.5,51.9z M302,106.9c1-0.8,1.9-2.2,2.6-4.4
			c0.7-2.2,1.3-4.7,1.8-7.6c-1.8,2.2-3.4,4.3-4.7,6.2c-1.3,2-2.1,3.7-2.4,5.2c-0.1,0.3-0.1,0.6,0,1s0.3,0.6,0.7,0.6
			c0.2,0,0.4-0.1,0.8-0.2C301.1,107.6,301.5,107.3,302,106.9z M309.4,44.1c0-1.1,0.4-2,1.1-2.8s1.5-1.1,2.5-1.1s1.8,0.4,2.5,1.1
			c0.7,0.8,1,1.7,1,2.8s-0.3,2-1,2.7s-1.5,1.1-2.5,1.1c-0.9,0-1.7-0.4-2.5-1.1C309.7,46.1,309.4,45.2,309.4,44.1z"/>
		
			<linearGradient id="SVGID_10_" gradientUnits="userSpaceOnUse" x1="453.4475" y1="84.4117" x2="23.4705" y2="84.4117" gradientTransform="matrix(1 0 0 -1 0 154.2417)">
			<stop  offset="0" style="stop-color:#0071BC"/>
			<stop  offset="7.305315e-02" style="stop-color:#0058A4"/>
			<stop  offset="0.1848" style="stop-color:#003786"/>
			<stop  offset="0.2782" style="stop-color:#002373"/>
			<stop  offset="0.3414" style="stop-color:#001C6C"/>
			<stop  offset="0.5619" style="stop-color:#1B1D68"/>
			<stop  offset="0.6898" style="stop-color:#2D1D65"/>
			<stop  offset="0.9052" style="stop-color:#0E0920"/>
			<stop  offset="1" style="stop-color:#000000"/>
		</linearGradient>
		<path class="st11" d="M338.3,64.7c0-1,0.3-1.8,0.8-2.3c0.5-0.6,1.1-0.8,1.8-0.8c0.6,0,1.1,0.3,1.6,0.8s0.7,1.3,0.7,2.4v1.3
			c0,0.7,0,1.6,0.1,2.7c0,1.1,0.1,2.2,0.3,3.5c0.1,1.2,0.4,2.5,0.6,3.8s0.7,2.5,1.1,3.6c0.5,1.1,1.1,2,1.8,2.8
			c0.7,0.8,1.6,1.3,2.6,1.6c0.4,0.1,1.1-0.3,2.1-1.2c0.9-0.9,1.9-2.3,2.8-4s1.7-3.8,2.4-6.1s0.9-4.8,0.8-7.5c0-0.4-0.1-0.8-0.2-1.2
			c-0.1-0.4-0.2-0.7-0.4-1.1c-0.1-0.3-0.2-0.7-0.3-1c-0.1-0.3-0.1-0.7-0.1-1.1c0-0.7,0.3-1.4,0.8-2.2c0.5-0.6,1-1.1,1.4-1.3
			c0.4-0.3,0.8-0.4,1.2-0.4c0.6,0,1,0.2,1.4,0.7s0.7,1,0.9,1.7c0.2,0.6,0.4,1.3,0.5,1.9s0.1,1.1,0.1,1.4c0,0,0.1,0.1,0.4,0.1
			s0.6,0,1,0s0.9,0,1.3-0.1c0.5,0,1-0.1,1.4-0.1s0.8-0.1,1.2-0.1c0.4,0,0.8,0,1.1,0c0.6,0,1.1,0.1,1.4,0.4c0.4,0.2,0.6,0.5,0.7,0.8
			c0.1,0.3,0.1,0.6-0.1,0.9c-0.1,0.3-0.4,0.5-0.7,0.7c-0.9,0.4-1.8,0.6-2.7,0.6c-0.9,0-1.8,0-2.7,0h-1.8c0,0.4-0.2,1.3-0.5,2.6
			c-0.4,1.3-0.9,2.7-1.6,4.4c-0.7,1.6-1.5,3.3-2.6,5.1c-1,1.8-2.2,3.4-3.5,4.8s-2.7,2.6-4.3,3.4c-1.6,0.9-3.3,1.2-5.1,1.1
			c-1.3-0.1-2.4-0.4-3.4-1c-0.9-0.5-1.7-1.2-2.4-2.1s-1.2-1.8-1.6-2.8s-0.7-2.1-0.9-3.3c-0.9,2.1-1.9,3.7-3.1,4.8
			c-1.2,1.1-2.6,1.6-4.3,1.4s-3-0.8-4.1-1.8c-1.1-1.1-1.9-2.4-2.5-4s-1-3.3-1.3-5.3c-0.2-1.9-0.4-3.9-0.4-5.8c0-1.2,0-2.4,0.1-3.5
			c0.1-1.1,0.2-2.2,0.2-3.1c0.1-1,0.2-1.8,0.3-2.6c0.1-0.8,0.2-1.4,0.2-1.8c0-0.2,0.1-0.4,0.1-0.5s0-0.2,0-0.3c0-1,0.3-1.8,0.8-2.4
			c0.5-0.6,1.1-0.9,1.8-0.9c0.6,0,1.1,0.3,1.6,0.8s0.7,1.3,0.7,2.4c0,0.1,0,0.2,0,0.3s0,0.3,0,0.5c0,0.6-0.1,1.6-0.1,2.9
			c-0.1,1.3-0.1,2.8-0.1,4.4c0,1.8,0.1,3.6,0.2,5.6c0.1,1.9,0.4,3.8,0.7,5.4s0.8,3.1,1.4,4.2s1.3,1.8,2.2,1.9c0.2,0,0.6-0.4,1.1-1
			s1-1.5,1.5-2.7s1.1-2.5,1.6-4.1s1-3.3,1.4-5.2c0.1-0.5,0.1-1,0.2-1.4s0.1-0.8,0.1-1.1c0.1-0.2,0.1-0.3,0.1-0.4
			C338.3,64.9,338.3,64.8,338.3,64.7z"/>
		
			<linearGradient id="SVGID_11_" gradientUnits="userSpaceOnUse" x1="453.4475" y1="80.9208" x2="23.4705" y2="80.9208" gradientTransform="matrix(1 0 0 -1 0 154.2417)">
			<stop  offset="0" style="stop-color:#0071BC"/>
			<stop  offset="7.305315e-02" style="stop-color:#0058A4"/>
			<stop  offset="0.1848" style="stop-color:#003786"/>
			<stop  offset="0.2782" style="stop-color:#002373"/>
			<stop  offset="0.3414" style="stop-color:#001C6C"/>
			<stop  offset="0.5619" style="stop-color:#1B1D68"/>
			<stop  offset="0.6898" style="stop-color:#2D1D65"/>
			<stop  offset="0.9052" style="stop-color:#0E0920"/>
			<stop  offset="1" style="stop-color:#000000"/>
		</linearGradient>
		<path class="st12" d="M384.2,63.9c0-0.1,0-0.2,0.1-0.3c0-0.2,0.2-0.4,0.4-0.6c0.2-0.2,0.5-0.5,0.9-0.7s0.8-0.4,1.2-0.5
			c0.4-0.1,0.9-0.2,1.3-0.2c0.6,0,1.1,0.1,1.6,0.4s0.8,0.8,0.9,1.5c0.1,0.7,0.2,1.7,0.2,3s-0.1,2.8-0.2,4.4s-0.3,3.2-0.5,4.8
			c-0.1,1.6-0.3,3.1-0.4,4.5s-0.2,2.7-0.2,3.9c0,1.2,0.1,2.2,0.3,2.9c0.2,0.8,0.5,1.1,0.9,1c0.3,0,0.7-0.4,1.2-1.2
			c0.5-0.8,1-1.7,1.5-2.9c0.5-1.2,1-2.5,1.6-3.9c0.5-1.4,1.1-2.9,1.6-4.3s1-2.8,1.4-4.1c0.4-1.3,0.8-2.4,1.1-3.2l0.6-1.8
			c0.1-0.3,0.4-0.4,0.8-0.5s0.8-0.1,1.3,0c0.4,0.1,0.8,0.2,1.1,0.4c0.3,0.2,0.4,0.4,0.3,0.6V67l-0.4,1.6c-0.2,1-0.5,2.3-0.9,3.8
			s-0.9,3.1-1.5,4.8c-0.6,1.7-1.3,3.4-2,5.1s-1.6,3.2-2.5,4.6s-1.9,2.5-3,3.3s-2.3,1.2-3.5,1.2c-0.8-0.1-1.5-0.4-2.1-0.9
			s-1.1-1.2-1.6-1.9c-0.4-0.8-0.8-1.7-1.1-2.7c-0.3-1-0.5-2.1-0.7-3.3c-0.5,1-1.2,1.8-2.1,2.6c-0.9,0.8-2,1.3-3.3,1.5
			c-2.6,0.1-4.6-0.2-6-1.2c-1.5-0.9-2.6-2.1-3.3-3.5c-0.7-1.4-1.2-2.8-1.4-4.4c-0.2-1.5-0.3-2.9-0.3-4c0-0.7,0-1.7,0.1-2.9
			c0.1-1.2,0.3-2.4,0.6-3.8c0.3-1.3,0.8-2.7,1.4-4c0.6-1.4,1.3-2.6,2.3-3.7c0.9-1.1,2.1-2,3.5-2.8c1.4-0.7,3-1.1,4.8-1.2
			c1.5,0,2.7,0.1,3.6,0.4c0.9,0.3,1.7,0.7,2.3,1.1c0.6,0.4,1,0.9,1.2,1.4c0.3,0.5,0.4,0.9,0.6,1.3l0.2,0.6v-0.1
			c0.3,0.6,0.3,1.1-0.1,1.4s-0.9,0.5-1.5,0.5c-0.4,0-0.8-0.1-1.2-0.3c-0.4-0.2-0.8-0.4-1.1-0.8c-0.2-0.1-0.3-0.3-0.3-0.3
			c0-0.1,0-0.2-0.1-0.3c-0.2-0.4-0.5-0.9-0.9-1.4s-1.1-0.8-2.1-0.7c-0.6,0-1.2,0.4-1.8,1.1c-0.7,0.7-1.3,1.7-1.8,3
			c-0.6,1.3-1.1,2.9-1.5,4.7c-0.4,1.8-0.7,3.9-0.9,6.3c0,0.2,0,0.5,0,0.9s0,0.7,0,0.8c0,2.2,0.2,3.9,0.5,5s0.7,1.9,1.2,2.5
			s0.9,0.8,1.3,0.8s0.8,0.1,1,0.1c0.4,0,0.9-0.2,1.4-0.7c0.5-0.4,0.9-1,1.4-1.6c0.4-0.6,0.8-1.4,1.2-2.1c0.4-0.8,0.7-1.5,1-2.1
			c0-1.4,0-2.8,0.1-4.1c0.1-1.4,0.2-2.6,0.3-3.8c0.1-1.2,0.2-2.1,0.3-3C384,64.8,384.1,64.2,384.2,63.9z"/>
		
			<linearGradient id="SVGID_12_" gradientUnits="userSpaceOnUse" x1="453.4475" y1="93.1709" x2="23.4705" y2="93.1709" gradientTransform="matrix(1 0 0 -1 0 154.2417)">
			<stop  offset="0" style="stop-color:#0071BC"/>
			<stop  offset="7.305315e-02" style="stop-color:#0058A4"/>
			<stop  offset="0.1848" style="stop-color:#003786"/>
			<stop  offset="0.2782" style="stop-color:#002373"/>
			<stop  offset="0.3414" style="stop-color:#001C6C"/>
			<stop  offset="0.5619" style="stop-color:#1B1D68"/>
			<stop  offset="0.6898" style="stop-color:#2D1D65"/>
			<stop  offset="0.9052" style="stop-color:#0E0920"/>
			<stop  offset="1" style="stop-color:#000000"/>
		</linearGradient>
		<path class="st13" d="M405.2,36.6c0.7-0.8,1.5-1.4,2.4-1.7c0.9-0.4,1.8-0.6,2.6-0.6c0.8,0,1.6,0.2,2.4,0.5s1.5,0.8,2.1,1.3
			s1.1,1.2,1.4,2c0.4,0.8,0.5,1.7,0.5,2.6c0,4.1-0.4,7.9-1.2,11.3c-0.8,3.5-1.7,6.6-2.9,9.4c-1.1,2.8-2.3,5.3-3.6,7.4
			c-1.3,2.1-2.4,3.8-3.3,5.1c0.1,1.9,0.4,3.5,0.6,4.8c0.3,1.3,0.6,2.4,0.8,3.2c0.3,0.8,0.5,1.4,0.8,1.8c0.2,0.4,0.4,0.6,0.4,0.6
			c0.5-0.1,1.2-0.6,2-1.6s1.7-2.1,2.6-3.5s1.9-2.8,2.8-4.4s1.8-3.1,2.6-4.5c0.8-1.4,1.4-2.6,1.9-3.5c0.5-1,0.8-1.5,0.8-1.7
			c0-0.3,0.2-0.5,0.6-0.7c0.3-0.2,0.7-0.3,1.1-0.3s0.8,0.1,1.1,0.3c0.4,0.2,0.6,0.5,0.8,0.9c0,0.5-0.3,1.3-0.8,2.5
			c-0.5,1.1-1.1,2.4-1.8,3.8c-0.7,1.4-1.5,2.9-2.4,4.4s-1.7,3-2.5,4.3s-1.5,2.5-2.1,3.4c-0.6,1-1.1,1.6-1.3,1.8
			c-0.8,0.7-1.7,1.3-2.6,1.7c-1,0.4-1.9,0.6-3,0.6c-0.9,0-1.7-0.1-2.4-0.4c-0.8-0.3-1.4-0.7-1.9-1.3c-1-1.1-1.9-2.5-2.6-4
			s-1.3-3.1-1.8-4.8c-0.5-1.7-0.8-3.5-1.1-5.4c-0.2-1.9-0.4-3.8-0.4-5.7c0-3.2,0.2-6.4,0.7-9.6c0.5-3.2,1-6.1,1.8-8.8
			c0.7-2.7,1.5-5,2.3-7C403.7,38.8,404.5,37.4,405.2,36.6z M405.6,69.9c1-2,1.8-4,2.5-6c0.7-2.1,1.3-4.1,1.7-6.1
			c0.5-2,0.8-3.9,1.1-5.7c0.3-1.8,0.5-3.5,0.6-5s0.2-2.8,0.2-3.9c0-1.1,0.1-1.9,0.1-2.4v-0.5c0-2.2-0.2-3.3-0.7-3.3
			c-0.3,0-0.6,0.3-1,1s-0.7,1.6-1,2.8c-0.6,2.7-1.1,5.4-1.6,7.9c-0.4,2.6-0.8,5-1.1,7.4c-0.3,2.4-0.5,4.5-0.7,6.5
			c-0.1,2-0.2,3.8-0.2,5.4v1.9H405.6z"/>
		
			<linearGradient id="SVGID_13_" gradientUnits="userSpaceOnUse" x1="453.4475" y1="80.9208" x2="23.4705" y2="80.9208" gradientTransform="matrix(1 0 0 -1 0 154.2417)">
			<stop  offset="0" style="stop-color:#0071BC"/>
			<stop  offset="7.305315e-02" style="stop-color:#0058A4"/>
			<stop  offset="0.1848" style="stop-color:#003786"/>
			<stop  offset="0.2782" style="stop-color:#002373"/>
			<stop  offset="0.3414" style="stop-color:#001C6C"/>
			<stop  offset="0.5619" style="stop-color:#1B1D68"/>
			<stop  offset="0.6898" style="stop-color:#2D1D65"/>
			<stop  offset="0.9052" style="stop-color:#0E0920"/>
			<stop  offset="1" style="stop-color:#000000"/>
		</linearGradient>
		<path class="st14" d="M434.6,63.9c0-0.1,0-0.2,0.1-0.3c0-0.2,0.2-0.4,0.4-0.6c0.2-0.2,0.5-0.5,0.9-0.7s0.8-0.4,1.2-0.5
			c0.4-0.1,0.9-0.2,1.3-0.2c0.6,0,1.1,0.1,1.6,0.4s0.8,0.8,0.9,1.5c0.1,0.7,0.2,1.7,0.2,3s-0.1,2.8-0.2,4.4s-0.3,3.2-0.5,4.8
			c-0.1,1.6-0.3,3.1-0.4,4.5s-0.2,2.7-0.2,3.9c0,1.2,0.1,2.2,0.3,2.9c0.2,0.8,0.5,1.1,0.9,1c0.3,0,0.7-0.4,1.2-1.2
			c0.5-0.8,1-1.7,1.5-2.9c0.5-1.2,1-2.5,1.6-3.9c0.5-1.4,1.1-2.9,1.6-4.3s1-2.8,1.4-4.1c0.4-1.3,0.8-2.4,1.1-3.2l0.6-1.8
			c0.1-0.3,0.4-0.4,0.8-0.5s0.8-0.1,1.3,0c0.4,0.1,0.8,0.2,1.1,0.4c0.3,0.2,0.4,0.4,0.3,0.6V67l-0.4,1.6c-0.2,1-0.5,2.3-0.9,3.8
			s-0.9,3.1-1.5,4.8c-0.6,1.7-1.3,3.4-2,5.1s-1.6,3.2-2.5,4.6s-1.9,2.5-3,3.3s-2.3,1.2-3.5,1.2c-0.8-0.1-1.5-0.4-2.1-0.9
			s-1.1-1.2-1.6-1.9c-0.4-0.8-0.8-1.7-1.1-2.7c-0.3-1-0.5-2.1-0.7-3.3c-0.5,1-1.2,1.8-2.1,2.6c-0.9,0.8-2,1.3-3.3,1.5
			c-2.6,0.1-4.6-0.2-6-1.2c-1.5-0.9-2.6-2.1-3.3-3.5c-0.7-1.4-1.2-2.8-1.4-4.4c-0.2-1.5-0.3-2.9-0.3-4c0-0.7,0-1.7,0.1-2.9
			c0.1-1.2,0.3-2.4,0.6-3.8c0.3-1.3,0.8-2.7,1.4-4c0.6-1.4,1.3-2.6,2.3-3.7c0.9-1.1,2.1-2,3.5-2.8c1.4-0.7,3-1.1,4.8-1.2
			c1.5,0,2.7,0.1,3.6,0.4c0.9,0.3,1.7,0.7,2.3,1.1c0.6,0.4,1,0.9,1.2,1.4c0.3,0.5,0.4,0.9,0.6,1.3l0.2,0.6v-0.1
			c0.3,0.6,0.3,1.1-0.1,1.4s-0.9,0.5-1.5,0.5c-0.4,0-0.8-0.1-1.2-0.3c-0.4-0.2-0.8-0.4-1.1-0.8c-0.2-0.1-0.3-0.3-0.3-0.3
			c0-0.1,0-0.2-0.1-0.3c-0.2-0.4-0.5-0.9-0.9-1.4s-1.1-0.8-2.1-0.7c-0.6,0-1.2,0.4-1.8,1.1c-0.7,0.7-1.3,1.7-1.8,3
			c-0.6,1.3-1.1,2.9-1.5,4.7c-0.4,1.8-0.7,3.9-0.9,6.3c0,0.2,0,0.5,0,0.9s0,0.7,0,0.8c0,2.2,0.2,3.9,0.5,5s0.7,1.9,1.2,2.5
			s0.9,0.8,1.3,0.8s0.8,0.1,1,0.1c0.4,0,0.9-0.2,1.4-0.7c0.5-0.4,0.9-1,1.4-1.6c0.4-0.6,0.8-1.4,1.2-2.1c0.4-0.8,0.7-1.5,1-2.1
			c0-1.4,0-2.8,0.1-4.1c0.1-1.4,0.2-2.6,0.3-3.8c0.1-1.2,0.2-2.1,0.3-3C434.4,64.8,434.5,64.2,434.6,63.9z"/>
	</g>
</g>
</svg>
